<?xml version="1.0" encoding="UTF-8"?>
<svg xmlns="http://www.w3.org/2000/svg" xmlns:xlink="http://www.w3.org/1999/xlink" width="180pt" height="126pt" viewBox="0 0 180 126" version="1.1">
<defs>
<clipPath id="clip1">
  <path d="M 58 49 L 122 49 L 122 95 L 58 95 Z M 58 49 "/>
</clipPath>
<clipPath id="clip2">
  <path d="M 121.5 63 C 121.5 80.398438 107.398438 94.5 90 94.5 C 72.601562 94.5 58.5 80.398438 58.5 63 C 58.5 45.601562 72.601562 31.5 90 31.5 C 107.398438 31.5 121.5 45.601562 121.5 63 Z M 121.5 63 "/>
</clipPath>
<clipPath id="clip3">
  <path d="M 100 56 L 103 56 L 103 60 L 100 60 Z M 100 56 "/>
</clipPath>
<clipPath id="clip4">
  <path d="M 99.769531 58.746094 L 100.96875 55.996094 L 103.441406 57.070312 L 102.246094 59.820312 Z M 101.8125 57.4375 L 101.605469 57.910156 L 102.84375 58.445312 L 103.050781 57.976562 Z M 101.8125 57.4375 "/>
</clipPath>
</defs>
<g id="surface1">
<rect x="0" y="0" width="180" height="126" style="fill:rgb(0%,60.784314%,22.745098%);fill-opacity:1;stroke:none;"/>
<path style=" stroke:none;fill-rule:nonzero;fill:rgb(99.607843%,87.45098%,0%);fill-opacity:1;" d="M 15.300781 63 L 90 110.699219 L 164.699219 63 L 90 15.300781 Z M 15.300781 63 "/>
<path style=" stroke:none;fill-rule:nonzero;fill:rgb(0%,15.294118%,46.27451%);fill-opacity:1;" d="M 121.5 63 C 121.5 80.398438 107.398438 94.5 90 94.5 C 72.601562 94.5 58.5 80.398438 58.5 63 C 58.5 45.601562 72.601562 31.5 90 31.5 C 107.398438 31.5 121.5 45.601562 121.5 63 Z M 121.5 63 "/>
<g clip-path="url(#clip1)" clip-rule="nonzero">
<g clip-path="url(#clip2)" clip-rule="nonzero">
<path style=" stroke:none;fill-rule:nonzero;fill:rgb(100%,100%,100%);fill-opacity:1;" d="M -4.5 126 C -4.5 83.75 29.75 49.5 72 49.5 C 114.25 49.5 148.5 83.75 148.5 126 L 144 126 C 144 86.234375 111.765625 54 72 54 C 32.234375 54 0 86.234375 0 126 Z M -4.5 126 "/>
</g>
</g>
<path style=" stroke:none;fill-rule:evenodd;fill:rgb(0%,60.784314%,22.745098%);fill-opacity:1;" d="M 63.132812 53.792969 C 63.875 53.703125 64.390625 52.960938 64.292969 52.140625 C 64.191406 51.316406 63.507812 50.722656 62.769531 50.816406 C 62.027344 50.90625 61.511719 51.644531 61.609375 52.46875 C 61.710938 53.289062 62.394531 53.882812 63.132812 53.792969 M 63.066406 53.238281 C 63.5 53.1875 63.800781 52.722656 63.738281 52.207031 C 63.675781 51.691406 63.269531 51.3125 62.835938 51.367188 C 62.402344 51.421875 62.101562 51.882812 62.164062 52.398438 C 62.226562 52.917969 62.632812 53.292969 63.066406 53.238281 "/>
<path style=" stroke:none;fill-rule:evenodd;fill:rgb(0%,60.784314%,22.745098%);fill-opacity:1;" d="M 65.578125 53.519531 L 66.132812 53.484375 L 66.054688 52.371094 L 67.253906 52.289062 C 67.773438 52.25 68.164062 51.800781 68.128906 51.28125 C 68.09375 50.761719 67.640625 50.371094 67.121094 50.40625 L 65.410156 50.527344 Z M 66.019531 51.816406 L 67.171875 51.734375 C 67.382812 51.71875 67.542969 51.535156 67.53125 51.324219 C 67.515625 51.109375 67.332031 50.949219 67.117188 50.964844 L 65.964844 51.046875 Z M 66.019531 51.816406 "/>
<path style=" stroke:none;fill-rule:nonzero;fill:rgb(0%,60.784314%,22.745098%);fill-opacity:1;" d="M 68.121094 53.34375 C 68.09375 52.914062 68.027344 51.976562 67.386719 52.019531 L 66.574219 52.078125 C 67.511719 52.011719 67.578125 52.953125 67.609375 53.378906 "/>
<path style=" stroke:none;fill-rule:evenodd;fill:rgb(0%,60.784314%,22.745098%);fill-opacity:1;" d="M 69.378906 53.285156 L 70.792969 53.261719 C 71.503906 53.246094 72.070312 52.660156 72.058594 51.953125 L 72.050781 51.523438 C 72.039062 50.8125 71.453125 50.246094 70.742188 50.261719 L 69.328125 50.285156 Z M 69.929688 52.71875 L 70.742188 52.703125 C 71.191406 52.695312 71.550781 52.324219 71.542969 51.875 L 71.539062 51.617188 C 71.53125 51.167969 71.160156 50.808594 70.710938 50.816406 L 69.894531 50.832031 Z M 69.929688 52.71875 "/>
<path style=" stroke:none;fill-rule:nonzero;fill:rgb(0%,60.784314%,22.745098%);fill-opacity:1;" d="M 73.191406 53.246094 L 75.886719 53.339844 L 75.90625 52.785156 L 73.722656 52.707031 L 73.75 51.9375 L 75.464844 51.996094 L 75.480469 51.484375 L 73.769531 51.421875 L 73.789062 50.824219 L 75.84375 50.894531 L 75.863281 50.339844 L 73.292969 50.25 Z M 73.191406 53.246094 "/>
<path style=" stroke:none;fill-rule:nonzero;fill:rgb(0%,60.784314%,22.745098%);fill-opacity:1;" d="M 76.996094 53.410156 L 77.507812 53.453125 L 77.6875 51.40625 L 78.105469 53.507812 L 78.574219 53.546875 L 79.351562 51.550781 L 79.171875 53.601562 L 79.683594 53.644531 L 79.945312 50.65625 L 79.199219 50.589844 L 78.421875 52.585938 L 78.003906 50.484375 L 77.257812 50.421875 Z M 76.996094 53.410156 "/>
<path style=" stroke:none;fill-rule:nonzero;fill:rgb(0%,60.784314%,22.745098%);fill-opacity:1;" d="M 83.210938 54.109375 L 85.429688 54.492188 L 85.515625 53.984375 L 83.804688 53.691406 L 83.921875 53.015625 L 85.316406 53.253906 L 85.402344 52.746094 L 84.007812 52.507812 L 84.089844 52.042969 L 85.746094 52.328125 L 85.832031 51.820312 L 83.667969 51.449219 Z M 83.210938 54.109375 "/>
<path style=" stroke:none;fill-rule:evenodd;fill:rgb(0%,60.784314%,22.745098%);fill-opacity:1;" d="M 88.90625 55.230469 L 89.449219 55.367188 L 89.726562 54.289062 L 90.886719 54.589844 C 91.390625 54.722656 91.90625 54.417969 92.039062 53.914062 C 92.167969 53.410156 91.863281 52.894531 91.359375 52.765625 L 89.699219 52.335938 Z M 89.867188 53.75 L 90.984375 54.039062 C 91.191406 54.09375 91.402344 53.96875 91.457031 53.761719 C 91.507812 53.558594 91.386719 53.347656 91.179688 53.292969 L 90.058594 53.003906 Z M 89.867188 53.75 "/>
<path style=" stroke:none;fill-rule:evenodd;fill:rgb(0%,60.784314%,22.745098%);fill-opacity:1;" d="M 92.589844 56.210938 L 93.121094 56.378906 L 93.457031 55.316406 L 94.601562 55.675781 C 95.097656 55.832031 95.625 55.558594 95.78125 55.0625 C 95.9375 54.566406 95.664062 54.035156 95.167969 53.878906 L 93.53125 53.363281 Z M 93.621094 54.785156 L 94.726562 55.132812 C 94.929688 55.195312 95.144531 55.082031 95.210938 54.878906 C 95.273438 54.675781 95.160156 54.460938 94.957031 54.398438 L 93.855469 54.050781 Z M 93.621094 54.785156 "/>
<path style=" stroke:none;fill-rule:nonzero;fill:rgb(0%,60.784314%,22.745098%);fill-opacity:1;" d="M 95.019531 56.976562 C 95.148438 56.570312 95.433594 55.671875 94.820312 55.476562 L 94.042969 55.230469 C 94.941406 55.515625 94.660156 56.414062 94.53125 56.824219 "/>
<path style=" stroke:none;fill-rule:evenodd;fill:rgb(0%,60.784314%,22.745098%);fill-opacity:1;" d="M 97.476562 57.855469 C 98.175781 58.117188 98.976562 57.699219 99.265625 56.925781 C 99.558594 56.148438 99.226562 55.308594 98.527344 55.046875 C 97.828125 54.785156 97.027344 55.203125 96.738281 55.980469 C 96.449219 56.753906 96.777344 57.597656 97.476562 57.855469 M 97.671875 57.335938 C 98.082031 57.488281 98.5625 57.21875 98.746094 56.730469 C 98.929688 56.242188 98.742188 55.722656 98.332031 55.570312 C 97.921875 55.414062 97.441406 55.6875 97.261719 56.175781 C 97.078125 56.664062 97.261719 57.183594 97.671875 57.335938 "/>
<g clip-path="url(#clip3)" clip-rule="nonzero">
<g clip-path="url(#clip4)" clip-rule="nonzero">
<path style=" stroke:none;fill-rule:evenodd;fill:rgb(0%,60.784314%,22.745098%);fill-opacity:1;" d="M 101.007812 59.285156 C 101.691406 59.582031 102.515625 59.207031 102.84375 58.445312 C 103.175781 57.6875 102.890625 56.828125 102.207031 56.53125 C 101.523438 56.234375 100.699219 56.609375 100.367188 57.371094 C 100.039062 58.128906 100.324219 58.988281 101.007812 59.285156 M 101.230469 58.773438 C 101.632812 58.949219 102.125 58.703125 102.335938 58.222656 C 102.542969 57.746094 102.382812 57.21875 101.984375 57.042969 C 101.582031 56.867188 101.085938 57.113281 100.878906 57.59375 C 100.671875 58.070312 100.828125 58.597656 101.230469 58.773438 "/>
</g>
</g>
<path style=" stroke:none;fill-rule:nonzero;fill:rgb(0%,60.784314%,22.745098%);fill-opacity:1;" d="M 101.804688 57.992188 L 102.84375 58.445312 L 102.675781 58.839844 L 101.632812 58.386719 Z M 101.804688 57.992188 "/>
<path style=" stroke:none;fill-rule:nonzero;fill:rgb(0%,60.784314%,22.745098%);fill-opacity:1;" d="M 102.453125 58.277344 L 102.84375 58.445312 L 102.246094 59.820312 L 101.855469 59.652344 Z M 102.453125 58.277344 "/>
<path style=" stroke:none;fill-rule:evenodd;fill:rgb(0%,60.784314%,22.745098%);fill-opacity:1;" d="M 103.253906 60.292969 L 103.75 60.539062 L 104.25 59.542969 L 105.324219 60.078125 C 105.789062 60.308594 106.355469 60.121094 106.585938 59.65625 C 106.820312 59.1875 106.628906 58.621094 106.164062 58.390625 L 104.628906 57.625 Z M 104.496094 59.042969 L 105.53125 59.558594 C 105.722656 59.65625 105.953125 59.578125 106.050781 59.386719 C 106.144531 59.195312 106.066406 58.964844 105.875 58.871094 L 104.839844 58.355469 Z M 104.496094 59.042969 "/>
<path style=" stroke:none;fill-rule:nonzero;fill:rgb(0%,60.784314%,22.745098%);fill-opacity:1;" d="M 105.535156 61.429688 C 105.726562 61.046875 106.148438 60.203125 105.570312 59.914062 L 104.84375 59.550781 C 105.6875 59.972656 105.265625 60.816406 105.074219 61.199219 "/>
<path style=" stroke:none;fill-rule:nonzero;fill:rgb(0%,60.784314%,22.745098%);fill-opacity:1;" d="M 106.648438 62.015625 L 109 63.347656 L 109.273438 62.863281 L 107.371094 61.785156 L 107.75 61.113281 L 109.242188 61.957031 L 109.496094 61.511719 L 108.003906 60.667969 L 108.300781 60.144531 L 110.089844 61.15625 L 110.363281 60.671875 L 108.125 59.40625 Z M 106.648438 62.015625 "/>
<path style=" stroke:none;fill-rule:nonzero;fill:rgb(0%,60.784314%,22.745098%);fill-opacity:1;" d="M 111.027344 63.484375 C 110.863281 63.738281 111.027344 64.019531 111.390625 64.25 C 111.75 64.480469 111.996094 64.472656 112.101562 64.308594 C 112.429688 63.796875 110.53125 63.042969 111.117188 62.144531 C 111.621094 61.375 112.484375 61.976562 112.808594 62.183594 C 113.132812 62.390625 113.65625 62.925781 113.25 63.542969 L 112.699219 63.191406 C 112.871094 62.921875 112.683594 62.660156 112.394531 62.476562 C 112.113281 62.296875 111.886719 62.214844 111.71875 62.476562 C 111.4375 62.898438 113.296875 63.6875 112.726562 64.582031 C 112.308594 65.242188 111.578125 64.953125 111.089844 64.644531 C 110.671875 64.378906 110.050781 63.753906 110.457031 63.121094 Z M 111.027344 63.484375 "/>
<path style=" stroke:none;fill-rule:nonzero;fill:rgb(0%,60.784314%,22.745098%);fill-opacity:1;" d="M 114.242188 65.613281 C 114.070312 65.859375 114.21875 66.148438 114.566406 66.398438 C 114.917969 66.644531 115.164062 66.648438 115.273438 66.492188 C 115.628906 65.996094 113.773438 65.148438 114.40625 64.28125 C 114.949219 63.535156 115.777344 64.179688 116.09375 64.40625 C 116.40625 64.628906 116.902344 65.191406 116.460938 65.789062 L 115.929688 65.40625 C 116.117188 65.144531 115.941406 64.875 115.664062 64.675781 C 115.390625 64.484375 115.167969 64.390625 114.988281 64.644531 C 114.6875 65.046875 116.503906 65.933594 115.886719 66.796875 C 115.433594 67.433594 114.71875 67.109375 114.246094 66.773438 C 113.84375 66.488281 113.257812 65.832031 113.695312 65.222656 Z M 114.242188 65.613281 "/>
<path style=" stroke:none;fill-rule:evenodd;fill:rgb(0%,60.784314%,22.745098%);fill-opacity:1;" d="M 117.289062 69.066406 C 117.871094 69.53125 118.761719 69.378906 119.277344 68.730469 C 119.792969 68.082031 119.738281 67.179688 119.15625 66.71875 C 118.570312 66.253906 117.679688 66.402344 117.164062 67.050781 C 116.648438 67.699219 116.703125 68.601562 117.289062 69.066406 M 117.636719 68.628906 C 117.976562 68.902344 118.519531 68.792969 118.84375 68.386719 C 119.167969 67.976562 119.152344 67.425781 118.808594 67.152344 C 118.464844 66.882812 117.925781 66.992188 117.601562 67.398438 C 117.277344 67.804688 117.292969 68.355469 117.636719 68.628906 "/>
<path style=" stroke:none;fill-rule:nonzero;fill:rgb(100%,100%,100%);fill-opacity:1;" d="M 64.285156 55.992188 L 63.867188 57.277344 L 64.511719 57.484375 "/>
<path style=" stroke:none;fill-rule:nonzero;fill:rgb(100%,100%,100%);fill-opacity:1;" d="M 64.285156 55.992188 L 64.703125 57.277344 L 64.0625 57.484375 "/>
<path style=" stroke:none;fill-rule:nonzero;fill:rgb(100%,100%,100%);fill-opacity:1;" d="M 65.570312 56.925781 L 64.21875 56.925781 L 64.21875 57.601562 "/>
<path style=" stroke:none;fill-rule:nonzero;fill:rgb(100%,100%,100%);fill-opacity:1;" d="M 65.570312 56.925781 L 64.476562 57.71875 L 64.082031 57.171875 "/>
<path style=" stroke:none;fill-rule:nonzero;fill:rgb(100%,100%,100%);fill-opacity:1;" d="M 63 56.925781 L 64.09375 57.71875 L 64.492188 57.171875 "/>
<path style=" stroke:none;fill-rule:nonzero;fill:rgb(100%,100%,100%);fill-opacity:1;" d="M 63 56.925781 L 64.351562 56.925781 L 64.351562 57.601562 "/>
<path style=" stroke:none;fill-rule:nonzero;fill:rgb(100%,100%,100%);fill-opacity:1;" d="M 65.078125 58.433594 L 64.660156 57.152344 L 64.019531 57.359375 "/>
<path style=" stroke:none;fill-rule:nonzero;fill:rgb(100%,100%,100%);fill-opacity:1;" d="M 65.078125 58.433594 L 63.988281 57.640625 L 64.382812 57.09375 "/>
<path style=" stroke:none;fill-rule:nonzero;fill:rgb(100%,100%,100%);fill-opacity:1;" d="M 63.492188 58.433594 L 64.585938 57.640625 L 64.1875 57.09375 "/>
<path style=" stroke:none;fill-rule:nonzero;fill:rgb(100%,100%,100%);fill-opacity:1;" d="M 63.492188 58.433594 L 63.910156 57.152344 L 64.550781 57.359375 "/>
<path style=" stroke:none;fill-rule:nonzero;fill:rgb(100%,100%,100%);fill-opacity:1;" d="M 67.070312 69.234375 L 66.652344 70.519531 L 67.296875 70.726562 "/>
<path style=" stroke:none;fill-rule:nonzero;fill:rgb(100%,100%,100%);fill-opacity:1;" d="M 67.070312 69.234375 L 67.488281 70.519531 L 66.847656 70.726562 "/>
<path style=" stroke:none;fill-rule:nonzero;fill:rgb(100%,100%,100%);fill-opacity:1;" d="M 68.355469 70.167969 L 67.003906 70.167969 L 67.003906 70.84375 "/>
<path style=" stroke:none;fill-rule:nonzero;fill:rgb(100%,100%,100%);fill-opacity:1;" d="M 68.355469 70.167969 L 67.261719 70.960938 L 66.867188 70.414062 "/>
<path style=" stroke:none;fill-rule:nonzero;fill:rgb(100%,100%,100%);fill-opacity:1;" d="M 65.789062 70.167969 L 66.878906 70.960938 L 67.277344 70.414062 "/>
<path style=" stroke:none;fill-rule:nonzero;fill:rgb(100%,100%,100%);fill-opacity:1;" d="M 65.789062 70.167969 L 67.136719 70.167969 L 67.136719 70.84375 "/>
<path style=" stroke:none;fill-rule:nonzero;fill:rgb(100%,100%,100%);fill-opacity:1;" d="M 67.863281 71.679688 L 67.449219 70.394531 L 66.804688 70.601562 "/>
<path style=" stroke:none;fill-rule:nonzero;fill:rgb(100%,100%,100%);fill-opacity:1;" d="M 67.863281 71.679688 L 66.773438 70.882812 L 67.167969 70.339844 "/>
<path style=" stroke:none;fill-rule:nonzero;fill:rgb(100%,100%,100%);fill-opacity:1;" d="M 66.277344 71.679688 L 67.371094 70.882812 L 66.972656 70.339844 "/>
<path style=" stroke:none;fill-rule:nonzero;fill:rgb(100%,100%,100%);fill-opacity:1;" d="M 66.277344 71.679688 L 66.695312 70.394531 L 67.335938 70.601562 "/>
<path style=" stroke:none;fill-rule:nonzero;fill:rgb(100%,100%,100%);fill-opacity:1;" d="M 63.214844 72.289062 L 62.867188 73.359375 L 63.402344 73.53125 "/>
<path style=" stroke:none;fill-rule:nonzero;fill:rgb(100%,100%,100%);fill-opacity:1;" d="M 63.214844 72.289062 L 63.5625 73.359375 L 63.027344 73.53125 "/>
<path style=" stroke:none;fill-rule:nonzero;fill:rgb(100%,100%,100%);fill-opacity:1;" d="M 64.285156 73.066406 L 63.160156 73.066406 L 63.160156 73.628906 "/>
<path style=" stroke:none;fill-rule:nonzero;fill:rgb(100%,100%,100%);fill-opacity:1;" d="M 64.285156 73.066406 L 63.375 73.726562 L 63.042969 73.273438 "/>
<path style=" stroke:none;fill-rule:nonzero;fill:rgb(100%,100%,100%);fill-opacity:1;" d="M 62.144531 73.066406 L 63.054688 73.726562 L 63.386719 73.273438 "/>
<path style=" stroke:none;fill-rule:nonzero;fill:rgb(100%,100%,100%);fill-opacity:1;" d="M 62.144531 73.066406 L 63.269531 73.066406 L 63.269531 73.628906 "/>
<path style=" stroke:none;fill-rule:nonzero;fill:rgb(100%,100%,100%);fill-opacity:1;" d="M 63.875 74.324219 L 63.527344 73.253906 L 62.992188 73.429688 "/>
<path style=" stroke:none;fill-rule:nonzero;fill:rgb(100%,100%,100%);fill-opacity:1;" d="M 63.875 74.324219 L 62.964844 73.664062 L 63.296875 73.207031 "/>
<path style=" stroke:none;fill-rule:nonzero;fill:rgb(100%,100%,100%);fill-opacity:1;" d="M 62.554688 74.324219 L 63.464844 73.664062 L 63.132812 73.207031 "/>
<path style=" stroke:none;fill-rule:nonzero;fill:rgb(100%,100%,100%);fill-opacity:1;" d="M 62.554688 74.324219 L 62.902344 73.253906 L 63.4375 73.429688 "/>
<path style=" stroke:none;fill-rule:nonzero;fill:rgb(100%,100%,100%);fill-opacity:1;" d="M 70.15625 68.015625 L 69.957031 68.625 L 70.265625 68.726562 "/>
<path style=" stroke:none;fill-rule:nonzero;fill:rgb(100%,100%,100%);fill-opacity:1;" d="M 70.15625 68.015625 L 70.355469 68.625 L 70.050781 68.726562 "/>
<path style=" stroke:none;fill-rule:nonzero;fill:rgb(100%,100%,100%);fill-opacity:1;" d="M 70.769531 68.457031 L 70.125 68.457031 L 70.125 68.78125 "/>
<path style=" stroke:none;fill-rule:nonzero;fill:rgb(100%,100%,100%);fill-opacity:1;" d="M 70.769531 68.457031 L 70.25 68.835938 L 70.058594 68.578125 "/>
<path style=" stroke:none;fill-rule:nonzero;fill:rgb(100%,100%,100%);fill-opacity:1;" d="M 69.546875 68.457031 L 70.066406 68.835938 L 70.253906 68.578125 "/>
<path style=" stroke:none;fill-rule:nonzero;fill:rgb(100%,100%,100%);fill-opacity:1;" d="M 69.546875 68.457031 L 70.1875 68.457031 L 70.1875 68.78125 "/>
<path style=" stroke:none;fill-rule:nonzero;fill:rgb(100%,100%,100%);fill-opacity:1;" d="M 70.535156 69.175781 L 70.335938 68.566406 L 70.03125 68.664062 "/>
<path style=" stroke:none;fill-rule:nonzero;fill:rgb(100%,100%,100%);fill-opacity:1;" d="M 70.535156 69.175781 L 70.015625 68.800781 L 70.203125 68.539062 "/>
<path style=" stroke:none;fill-rule:nonzero;fill:rgb(100%,100%,100%);fill-opacity:1;" d="M 69.777344 69.175781 L 70.300781 68.800781 L 70.109375 68.539062 "/>
<path style=" stroke:none;fill-rule:nonzero;fill:rgb(100%,100%,100%);fill-opacity:1;" d="M 69.777344 69.175781 L 69.976562 68.566406 L 70.285156 68.664062 "/>
<path style=" stroke:none;fill-rule:nonzero;fill:rgb(100%,100%,100%);fill-opacity:1;" d="M 73.628906 72.589844 L 73.28125 73.660156 L 73.816406 73.832031 "/>
<path style=" stroke:none;fill-rule:nonzero;fill:rgb(100%,100%,100%);fill-opacity:1;" d="M 73.628906 72.589844 L 73.976562 73.660156 L 73.441406 73.832031 "/>
<path style=" stroke:none;fill-rule:nonzero;fill:rgb(100%,100%,100%);fill-opacity:1;" d="M 74.699219 73.367188 L 73.574219 73.367188 L 73.574219 73.929688 "/>
<path style=" stroke:none;fill-rule:nonzero;fill:rgb(100%,100%,100%);fill-opacity:1;" d="M 74.699219 73.367188 L 73.789062 74.027344 L 73.457031 73.574219 "/>
<path style=" stroke:none;fill-rule:nonzero;fill:rgb(100%,100%,100%);fill-opacity:1;" d="M 72.558594 73.367188 L 73.46875 74.027344 L 73.800781 73.574219 "/>
<path style=" stroke:none;fill-rule:nonzero;fill:rgb(100%,100%,100%);fill-opacity:1;" d="M 72.558594 73.367188 L 73.683594 73.367188 L 73.683594 73.929688 "/>
<path style=" stroke:none;fill-rule:nonzero;fill:rgb(100%,100%,100%);fill-opacity:1;" d="M 74.289062 74.625 L 73.941406 73.554688 L 73.40625 73.726562 "/>
<path style=" stroke:none;fill-rule:nonzero;fill:rgb(100%,100%,100%);fill-opacity:1;" d="M 74.289062 74.625 L 73.378906 73.964844 L 73.710938 73.507812 "/>
<path style=" stroke:none;fill-rule:nonzero;fill:rgb(100%,100%,100%);fill-opacity:1;" d="M 72.96875 74.625 L 73.878906 73.964844 L 73.546875 73.507812 "/>
<path style=" stroke:none;fill-rule:nonzero;fill:rgb(100%,100%,100%);fill-opacity:1;" d="M 72.96875 74.625 L 73.316406 73.554688 L 73.851562 73.726562 "/>
<path style=" stroke:none;fill-rule:nonzero;fill:rgb(100%,100%,100%);fill-opacity:1;" d="M 72.6875 75.941406 L 72.40625 76.796875 L 72.835938 76.9375 "/>
<path style=" stroke:none;fill-rule:nonzero;fill:rgb(100%,100%,100%);fill-opacity:1;" d="M 72.6875 75.941406 L 72.964844 76.796875 L 72.535156 76.9375 "/>
<path style=" stroke:none;fill-rule:nonzero;fill:rgb(100%,100%,100%);fill-opacity:1;" d="M 73.542969 76.566406 L 72.640625 76.566406 L 72.640625 77.015625 "/>
<path style=" stroke:none;fill-rule:nonzero;fill:rgb(100%,100%,100%);fill-opacity:1;" d="M 73.542969 76.566406 L 72.8125 77.09375 L 72.550781 76.730469 "/>
<path style=" stroke:none;fill-rule:nonzero;fill:rgb(100%,100%,100%);fill-opacity:1;" d="M 71.828125 76.566406 L 72.558594 77.09375 L 72.824219 76.730469 "/>
<path style=" stroke:none;fill-rule:nonzero;fill:rgb(100%,100%,100%);fill-opacity:1;" d="M 71.828125 76.566406 L 72.730469 76.566406 L 72.730469 77.015625 "/>
<path style=" stroke:none;fill-rule:nonzero;fill:rgb(100%,100%,100%);fill-opacity:1;" d="M 73.214844 77.570312 L 72.9375 76.714844 L 72.507812 76.855469 "/>
<path style=" stroke:none;fill-rule:nonzero;fill:rgb(100%,100%,100%);fill-opacity:1;" d="M 73.214844 77.570312 L 72.488281 77.042969 L 72.75 76.679688 "/>
<path style=" stroke:none;fill-rule:nonzero;fill:rgb(100%,100%,100%);fill-opacity:1;" d="M 72.15625 77.570312 L 72.886719 77.042969 L 72.621094 76.679688 "/>
<path style=" stroke:none;fill-rule:nonzero;fill:rgb(100%,100%,100%);fill-opacity:1;" d="M 72.15625 77.570312 L 72.433594 76.714844 L 72.863281 76.855469 "/>
<path style=" stroke:none;fill-rule:nonzero;fill:rgb(100%,100%,100%);fill-opacity:1;" d="M 99.769531 51.878906 L 99.355469 53.164062 L 99.996094 53.371094 "/>
<path style=" stroke:none;fill-rule:nonzero;fill:rgb(100%,100%,100%);fill-opacity:1;" d="M 99.769531 51.878906 L 100.1875 53.164062 L 99.546875 53.371094 "/>
<path style=" stroke:none;fill-rule:nonzero;fill:rgb(100%,100%,100%);fill-opacity:1;" d="M 101.054688 52.8125 L 99.707031 52.8125 L 99.707031 53.488281 "/>
<path style=" stroke:none;fill-rule:nonzero;fill:rgb(100%,100%,100%);fill-opacity:1;" d="M 101.054688 52.8125 L 99.964844 53.605469 L 99.566406 53.058594 "/>
<path style=" stroke:none;fill-rule:nonzero;fill:rgb(100%,100%,100%);fill-opacity:1;" d="M 98.488281 52.8125 L 99.578125 53.605469 L 99.976562 53.058594 "/>
<path style=" stroke:none;fill-rule:nonzero;fill:rgb(100%,100%,100%);fill-opacity:1;" d="M 98.488281 52.8125 L 99.835938 52.8125 L 99.835938 53.488281 "/>
<path style=" stroke:none;fill-rule:nonzero;fill:rgb(100%,100%,100%);fill-opacity:1;" d="M 100.566406 54.320312 L 100.148438 53.035156 L 99.503906 53.246094 "/>
<path style=" stroke:none;fill-rule:nonzero;fill:rgb(100%,100%,100%);fill-opacity:1;" d="M 100.566406 54.320312 L 99.472656 53.527344 L 99.871094 52.980469 "/>
<path style=" stroke:none;fill-rule:nonzero;fill:rgb(100%,100%,100%);fill-opacity:1;" d="M 98.976562 54.320312 L 100.070312 53.527344 L 99.671875 52.980469 "/>
<path style=" stroke:none;fill-rule:nonzero;fill:rgb(100%,100%,100%);fill-opacity:1;" d="M 98.976562 54.320312 L 99.394531 53.035156 L 100.035156 53.246094 "/>
<path style=" stroke:none;fill-rule:nonzero;fill:rgb(100%,100%,100%);fill-opacity:1;" d="M 112.070312 72.707031 L 111.652344 73.992188 L 112.296875 74.199219 "/>
<path style=" stroke:none;fill-rule:nonzero;fill:rgb(100%,100%,100%);fill-opacity:1;" d="M 112.070312 72.707031 L 112.488281 73.992188 L 111.847656 74.199219 "/>
<path style=" stroke:none;fill-rule:nonzero;fill:rgb(100%,100%,100%);fill-opacity:1;" d="M 113.355469 73.640625 L 112.003906 73.640625 L 112.003906 74.316406 "/>
<path style=" stroke:none;fill-rule:nonzero;fill:rgb(100%,100%,100%);fill-opacity:1;" d="M 113.355469 73.640625 L 112.261719 74.433594 L 111.867188 73.886719 "/>
<path style=" stroke:none;fill-rule:nonzero;fill:rgb(100%,100%,100%);fill-opacity:1;" d="M 110.789062 73.640625 L 111.878906 74.433594 L 112.277344 73.886719 "/>
<path style=" stroke:none;fill-rule:nonzero;fill:rgb(100%,100%,100%);fill-opacity:1;" d="M 110.789062 73.640625 L 112.136719 73.640625 L 112.136719 74.316406 "/>
<path style=" stroke:none;fill-rule:nonzero;fill:rgb(100%,100%,100%);fill-opacity:1;" d="M 112.863281 75.148438 L 112.449219 73.867188 L 111.804688 74.074219 "/>
<path style=" stroke:none;fill-rule:nonzero;fill:rgb(100%,100%,100%);fill-opacity:1;" d="M 112.863281 75.148438 L 111.773438 74.355469 L 112.167969 73.808594 "/>
<path style=" stroke:none;fill-rule:nonzero;fill:rgb(100%,100%,100%);fill-opacity:1;" d="M 111.277344 75.148438 L 112.371094 74.355469 L 111.972656 73.808594 "/>
<path style=" stroke:none;fill-rule:nonzero;fill:rgb(100%,100%,100%);fill-opacity:1;" d="M 111.277344 75.148438 L 111.695312 73.867188 L 112.335938 74.074219 "/>
<path style=" stroke:none;fill-rule:nonzero;fill:rgb(100%,100%,100%);fill-opacity:1;" d="M 116.441406 73.457031 L 116.164062 74.3125 L 116.59375 74.453125 "/>
<path style=" stroke:none;fill-rule:nonzero;fill:rgb(100%,100%,100%);fill-opacity:1;" d="M 116.441406 73.457031 L 116.722656 74.3125 L 116.292969 74.453125 "/>
<path style=" stroke:none;fill-rule:nonzero;fill:rgb(100%,100%,100%);fill-opacity:1;" d="M 117.296875 74.078125 L 116.398438 74.078125 L 116.398438 74.527344 "/>
<path style=" stroke:none;fill-rule:nonzero;fill:rgb(100%,100%,100%);fill-opacity:1;" d="M 117.296875 74.078125 L 116.570312 74.609375 L 116.304688 74.242188 "/>
<path style=" stroke:none;fill-rule:nonzero;fill:rgb(100%,100%,100%);fill-opacity:1;" d="M 115.585938 74.078125 L 116.316406 74.609375 L 116.578125 74.242188 "/>
<path style=" stroke:none;fill-rule:nonzero;fill:rgb(100%,100%,100%);fill-opacity:1;" d="M 115.585938 74.078125 L 116.488281 74.078125 L 116.488281 74.527344 "/>
<path style=" stroke:none;fill-rule:nonzero;fill:rgb(100%,100%,100%);fill-opacity:1;" d="M 116.972656 75.085938 L 116.695312 74.230469 L 116.265625 74.367188 "/>
<path style=" stroke:none;fill-rule:nonzero;fill:rgb(100%,100%,100%);fill-opacity:1;" d="M 116.972656 75.085938 L 116.242188 74.554688 L 116.507812 74.191406 "/>
<path style=" stroke:none;fill-rule:nonzero;fill:rgb(100%,100%,100%);fill-opacity:1;" d="M 115.914062 75.085938 L 116.640625 74.554688 L 116.378906 74.191406 "/>
<path style=" stroke:none;fill-rule:nonzero;fill:rgb(100%,100%,100%);fill-opacity:1;" d="M 115.914062 75.085938 L 116.191406 74.230469 L 116.621094 74.367188 "/>
<path style=" stroke:none;fill-rule:nonzero;fill:rgb(100%,100%,100%);fill-opacity:1;" d="M 113.355469 75.71875 L 113.007812 76.789062 L 113.542969 76.960938 "/>
<path style=" stroke:none;fill-rule:nonzero;fill:rgb(100%,100%,100%);fill-opacity:1;" d="M 113.355469 75.71875 L 113.703125 76.789062 L 113.167969 76.960938 "/>
<path style=" stroke:none;fill-rule:nonzero;fill:rgb(100%,100%,100%);fill-opacity:1;" d="M 114.425781 76.496094 L 113.300781 76.496094 L 113.300781 77.058594 "/>
<path style=" stroke:none;fill-rule:nonzero;fill:rgb(100%,100%,100%);fill-opacity:1;" d="M 114.425781 76.496094 L 113.515625 77.15625 L 113.1875 76.703125 "/>
<path style=" stroke:none;fill-rule:nonzero;fill:rgb(100%,100%,100%);fill-opacity:1;" d="M 112.289062 76.496094 L 113.199219 77.15625 L 113.527344 76.703125 "/>
<path style=" stroke:none;fill-rule:nonzero;fill:rgb(100%,100%,100%);fill-opacity:1;" d="M 112.289062 76.496094 L 113.414062 76.496094 L 113.414062 77.058594 "/>
<path style=" stroke:none;fill-rule:nonzero;fill:rgb(100%,100%,100%);fill-opacity:1;" d="M 114.019531 77.753906 L 113.671875 76.683594 L 113.136719 76.855469 "/>
<path style=" stroke:none;fill-rule:nonzero;fill:rgb(100%,100%,100%);fill-opacity:1;" d="M 114.019531 77.753906 L 113.109375 77.089844 L 113.4375 76.636719 "/>
<path style=" stroke:none;fill-rule:nonzero;fill:rgb(100%,100%,100%);fill-opacity:1;" d="M 112.695312 77.753906 L 113.605469 77.089844 L 113.277344 76.636719 "/>
<path style=" stroke:none;fill-rule:nonzero;fill:rgb(100%,100%,100%);fill-opacity:1;" d="M 112.695312 77.753906 L 113.042969 76.683594 L 113.578125 76.855469 "/>
<path style=" stroke:none;fill-rule:nonzero;fill:rgb(100%,100%,100%);fill-opacity:1;" d="M 105.769531 82.316406 L 105.421875 83.386719 L 105.957031 83.5625 "/>
<path style=" stroke:none;fill-rule:nonzero;fill:rgb(100%,100%,100%);fill-opacity:1;" d="M 105.769531 82.316406 L 106.117188 83.386719 L 105.585938 83.5625 "/>
<path style=" stroke:none;fill-rule:nonzero;fill:rgb(100%,100%,100%);fill-opacity:1;" d="M 106.839844 83.09375 L 105.714844 83.09375 L 105.714844 83.65625 "/>
<path style=" stroke:none;fill-rule:nonzero;fill:rgb(100%,100%,100%);fill-opacity:1;" d="M 106.839844 83.09375 L 105.929688 83.757812 L 105.601562 83.300781 "/>
<path style=" stroke:none;fill-rule:nonzero;fill:rgb(100%,100%,100%);fill-opacity:1;" d="M 104.703125 83.09375 L 105.613281 83.757812 L 105.941406 83.300781 "/>
<path style=" stroke:none;fill-rule:nonzero;fill:rgb(100%,100%,100%);fill-opacity:1;" d="M 104.703125 83.09375 L 105.828125 83.09375 L 105.828125 83.65625 "/>
<path style=" stroke:none;fill-rule:nonzero;fill:rgb(100%,100%,100%);fill-opacity:1;" d="M 106.433594 84.351562 L 106.085938 83.28125 L 105.550781 83.457031 "/>
<path style=" stroke:none;fill-rule:nonzero;fill:rgb(100%,100%,100%);fill-opacity:1;" d="M 106.433594 84.351562 L 105.523438 83.691406 L 105.851562 83.238281 "/>
<path style=" stroke:none;fill-rule:nonzero;fill:rgb(100%,100%,100%);fill-opacity:1;" d="M 105.109375 84.351562 L 106.019531 83.691406 L 105.691406 83.238281 "/>
<path style=" stroke:none;fill-rule:nonzero;fill:rgb(100%,100%,100%);fill-opacity:1;" d="M 105.109375 84.351562 L 105.457031 83.28125 L 105.992188 83.457031 "/>
<path style=" stroke:none;fill-rule:nonzero;fill:rgb(100%,100%,100%);fill-opacity:1;" d="M 105.730469 85.714844 L 105.449219 86.570312 L 105.878906 86.710938 "/>
<path style=" stroke:none;fill-rule:nonzero;fill:rgb(100%,100%,100%);fill-opacity:1;" d="M 105.730469 85.714844 L 106.007812 86.570312 L 105.578125 86.710938 "/>
<path style=" stroke:none;fill-rule:nonzero;fill:rgb(100%,100%,100%);fill-opacity:1;" d="M 106.585938 86.335938 L 105.683594 86.335938 L 105.683594 86.785156 "/>
<path style=" stroke:none;fill-rule:nonzero;fill:rgb(100%,100%,100%);fill-opacity:1;" d="M 106.585938 86.335938 L 105.855469 86.863281 L 105.59375 86.5 "/>
<path style=" stroke:none;fill-rule:nonzero;fill:rgb(100%,100%,100%);fill-opacity:1;" d="M 104.871094 86.335938 L 105.601562 86.863281 L 105.867188 86.5 "/>
<path style=" stroke:none;fill-rule:nonzero;fill:rgb(100%,100%,100%);fill-opacity:1;" d="M 104.871094 86.335938 L 105.773438 86.335938 L 105.773438 86.785156 "/>
<path style=" stroke:none;fill-rule:nonzero;fill:rgb(100%,100%,100%);fill-opacity:1;" d="M 106.257812 87.34375 L 105.980469 86.488281 L 105.550781 86.625 "/>
<path style=" stroke:none;fill-rule:nonzero;fill:rgb(100%,100%,100%);fill-opacity:1;" d="M 106.257812 87.34375 L 105.53125 86.8125 L 105.792969 86.449219 "/>
<path style=" stroke:none;fill-rule:nonzero;fill:rgb(100%,100%,100%);fill-opacity:1;" d="M 105.199219 87.34375 L 105.925781 86.8125 L 105.664062 86.449219 "/>
<path style=" stroke:none;fill-rule:nonzero;fill:rgb(100%,100%,100%);fill-opacity:1;" d="M 105.199219 87.34375 L 105.476562 86.488281 L 105.90625 86.625 "/>
<path style=" stroke:none;fill-rule:nonzero;fill:rgb(100%,100%,100%);fill-opacity:1;" d="M 108.898438 80.058594 L 108.621094 80.914062 L 109.050781 81.050781 "/>
<path style=" stroke:none;fill-rule:nonzero;fill:rgb(100%,100%,100%);fill-opacity:1;" d="M 108.898438 80.058594 L 109.179688 80.914062 L 108.75 81.050781 "/>
<path style=" stroke:none;fill-rule:nonzero;fill:rgb(100%,100%,100%);fill-opacity:1;" d="M 109.757812 80.679688 L 108.855469 80.679688 L 108.855469 81.128906 "/>
<path style=" stroke:none;fill-rule:nonzero;fill:rgb(100%,100%,100%);fill-opacity:1;" d="M 109.757812 80.679688 L 109.027344 81.207031 L 108.761719 80.84375 "/>
<path style=" stroke:none;fill-rule:nonzero;fill:rgb(100%,100%,100%);fill-opacity:1;" d="M 108.042969 80.679688 L 108.773438 81.207031 L 109.035156 80.84375 "/>
<path style=" stroke:none;fill-rule:nonzero;fill:rgb(100%,100%,100%);fill-opacity:1;" d="M 108.042969 80.679688 L 108.945312 80.679688 L 108.945312 81.128906 "/>
<path style=" stroke:none;fill-rule:nonzero;fill:rgb(100%,100%,100%);fill-opacity:1;" d="M 109.429688 81.683594 L 109.152344 80.828125 L 108.722656 80.96875 "/>
<path style=" stroke:none;fill-rule:nonzero;fill:rgb(100%,100%,100%);fill-opacity:1;" d="M 109.429688 81.683594 L 108.699219 81.15625 L 108.964844 80.792969 "/>
<path style=" stroke:none;fill-rule:nonzero;fill:rgb(100%,100%,100%);fill-opacity:1;" d="M 108.371094 81.683594 L 109.097656 81.15625 L 108.835938 80.792969 "/>
<path style=" stroke:none;fill-rule:nonzero;fill:rgb(100%,100%,100%);fill-opacity:1;" d="M 108.371094 81.683594 L 108.648438 80.828125 L 109.078125 80.96875 "/>
<path style=" stroke:none;fill-rule:nonzero;fill:rgb(100%,100%,100%);fill-opacity:1;" d="M 111.429688 78.246094 L 111.082031 79.316406 L 111.617188 79.488281 "/>
<path style=" stroke:none;fill-rule:nonzero;fill:rgb(100%,100%,100%);fill-opacity:1;" d="M 111.429688 78.246094 L 111.777344 79.316406 L 111.242188 79.488281 "/>
<path style=" stroke:none;fill-rule:nonzero;fill:rgb(100%,100%,100%);fill-opacity:1;" d="M 112.5 79.023438 L 111.375 79.023438 L 111.375 79.585938 "/>
<path style=" stroke:none;fill-rule:nonzero;fill:rgb(100%,100%,100%);fill-opacity:1;" d="M 112.5 79.023438 L 111.589844 79.683594 L 111.257812 79.230469 "/>
<path style=" stroke:none;fill-rule:nonzero;fill:rgb(100%,100%,100%);fill-opacity:1;" d="M 110.359375 79.023438 L 111.269531 79.683594 L 111.597656 79.230469 "/>
<path style=" stroke:none;fill-rule:nonzero;fill:rgb(100%,100%,100%);fill-opacity:1;" d="M 110.359375 79.023438 L 111.484375 79.023438 L 111.484375 79.585938 "/>
<path style=" stroke:none;fill-rule:nonzero;fill:rgb(100%,100%,100%);fill-opacity:1;" d="M 112.089844 80.28125 L 111.742188 79.210938 L 111.207031 79.386719 "/>
<path style=" stroke:none;fill-rule:nonzero;fill:rgb(100%,100%,100%);fill-opacity:1;" d="M 112.089844 80.28125 L 111.179688 79.621094 L 111.511719 79.164062 "/>
<path style=" stroke:none;fill-rule:nonzero;fill:rgb(100%,100%,100%);fill-opacity:1;" d="M 110.765625 80.28125 L 111.675781 79.621094 L 111.347656 79.164062 "/>
<path style=" stroke:none;fill-rule:nonzero;fill:rgb(100%,100%,100%);fill-opacity:1;" d="M 110.765625 80.28125 L 111.113281 79.210938 L 111.648438 79.386719 "/>
<path style=" stroke:none;fill-rule:nonzero;fill:rgb(100%,100%,100%);fill-opacity:1;" d="M 105.644531 79.457031 L 105.363281 80.3125 L 105.792969 80.453125 "/>
<path style=" stroke:none;fill-rule:nonzero;fill:rgb(100%,100%,100%);fill-opacity:1;" d="M 105.644531 79.457031 L 105.921875 80.3125 L 105.492188 80.453125 "/>
<path style=" stroke:none;fill-rule:nonzero;fill:rgb(100%,100%,100%);fill-opacity:1;" d="M 106.5 80.078125 L 105.597656 80.078125 L 105.597656 80.527344 "/>
<path style=" stroke:none;fill-rule:nonzero;fill:rgb(100%,100%,100%);fill-opacity:1;" d="M 106.5 80.078125 L 105.769531 80.609375 L 105.507812 80.242188 "/>
<path style=" stroke:none;fill-rule:nonzero;fill:rgb(100%,100%,100%);fill-opacity:1;" d="M 104.785156 80.078125 L 105.515625 80.609375 L 105.78125 80.242188 "/>
<path style=" stroke:none;fill-rule:nonzero;fill:rgb(100%,100%,100%);fill-opacity:1;" d="M 104.785156 80.078125 L 105.6875 80.078125 L 105.6875 80.527344 "/>
<path style=" stroke:none;fill-rule:nonzero;fill:rgb(100%,100%,100%);fill-opacity:1;" d="M 106.171875 81.085938 L 105.894531 80.230469 L 105.464844 80.367188 "/>
<path style=" stroke:none;fill-rule:nonzero;fill:rgb(100%,100%,100%);fill-opacity:1;" d="M 106.171875 81.085938 L 105.445312 80.554688 L 105.707031 80.191406 "/>
<path style=" stroke:none;fill-rule:nonzero;fill:rgb(100%,100%,100%);fill-opacity:1;" d="M 105.113281 81.085938 L 105.84375 80.554688 L 105.578125 80.191406 "/>
<path style=" stroke:none;fill-rule:nonzero;fill:rgb(100%,100%,100%);fill-opacity:1;" d="M 105.113281 81.085938 L 105.390625 80.230469 L 105.820312 80.367188 "/>
<path style=" stroke:none;fill-rule:nonzero;fill:rgb(100%,100%,100%);fill-opacity:1;" d="M 78 63.160156 L 77.652344 64.230469 L 78.1875 64.40625 "/>
<path style=" stroke:none;fill-rule:nonzero;fill:rgb(100%,100%,100%);fill-opacity:1;" d="M 78 63.160156 L 78.347656 64.230469 L 77.8125 64.40625 "/>
<path style=" stroke:none;fill-rule:nonzero;fill:rgb(100%,100%,100%);fill-opacity:1;" d="M 79.070312 63.9375 L 77.945312 63.9375 L 77.945312 64.5 "/>
<path style=" stroke:none;fill-rule:nonzero;fill:rgb(100%,100%,100%);fill-opacity:1;" d="M 79.070312 63.9375 L 78.160156 64.597656 L 77.828125 64.144531 "/>
<path style=" stroke:none;fill-rule:nonzero;fill:rgb(100%,100%,100%);fill-opacity:1;" d="M 76.929688 63.9375 L 77.839844 64.597656 L 78.171875 64.144531 "/>
<path style=" stroke:none;fill-rule:nonzero;fill:rgb(100%,100%,100%);fill-opacity:1;" d="M 76.929688 63.9375 L 78.054688 63.9375 L 78.054688 64.5 "/>
<path style=" stroke:none;fill-rule:nonzero;fill:rgb(100%,100%,100%);fill-opacity:1;" d="M 78.660156 65.195312 L 78.3125 64.125 L 77.777344 64.300781 "/>
<path style=" stroke:none;fill-rule:nonzero;fill:rgb(100%,100%,100%);fill-opacity:1;" d="M 78.660156 65.195312 L 77.75 64.535156 L 78.082031 64.078125 "/>
<path style=" stroke:none;fill-rule:nonzero;fill:rgb(100%,100%,100%);fill-opacity:1;" d="M 77.339844 65.195312 L 78.25 64.535156 L 77.917969 64.078125 "/>
<path style=" stroke:none;fill-rule:nonzero;fill:rgb(100%,100%,100%);fill-opacity:1;" d="M 77.339844 65.195312 L 77.6875 64.125 L 78.222656 64.300781 "/>
<path style=" stroke:none;fill-rule:nonzero;fill:rgb(100%,100%,100%);fill-opacity:1;" d="M 98.570312 60.515625 L 98.292969 61.371094 L 98.722656 61.507812 "/>
<path style=" stroke:none;fill-rule:nonzero;fill:rgb(100%,100%,100%);fill-opacity:1;" d="M 98.570312 60.515625 L 98.847656 61.371094 L 98.421875 61.507812 "/>
<path style=" stroke:none;fill-rule:nonzero;fill:rgb(100%,100%,100%);fill-opacity:1;" d="M 99.425781 61.136719 L 98.527344 61.136719 L 98.527344 61.585938 "/>
<path style=" stroke:none;fill-rule:nonzero;fill:rgb(100%,100%,100%);fill-opacity:1;" d="M 99.425781 61.136719 L 98.699219 61.664062 L 98.433594 61.300781 "/>
<path style=" stroke:none;fill-rule:nonzero;fill:rgb(100%,100%,100%);fill-opacity:1;" d="M 97.714844 61.136719 L 98.445312 61.664062 L 98.707031 61.300781 "/>
<path style=" stroke:none;fill-rule:nonzero;fill:rgb(100%,100%,100%);fill-opacity:1;" d="M 97.714844 61.136719 L 98.617188 61.136719 L 98.617188 61.585938 "/>
<path style=" stroke:none;fill-rule:nonzero;fill:rgb(100%,100%,100%);fill-opacity:1;" d="M 99.101562 62.140625 L 98.824219 61.285156 L 98.394531 61.425781 "/>
<path style=" stroke:none;fill-rule:nonzero;fill:rgb(100%,100%,100%);fill-opacity:1;" d="M 99.101562 62.140625 L 98.371094 61.613281 L 98.636719 61.25 "/>
<path style=" stroke:none;fill-rule:nonzero;fill:rgb(100%,100%,100%);fill-opacity:1;" d="M 98.042969 62.140625 L 98.769531 61.613281 L 98.507812 61.25 "/>
<path style=" stroke:none;fill-rule:nonzero;fill:rgb(100%,100%,100%);fill-opacity:1;" d="M 98.042969 62.140625 L 98.320312 61.285156 L 98.75 61.425781 "/>
<path style=" stroke:none;fill-rule:nonzero;fill:rgb(100%,100%,100%);fill-opacity:1;" d="M 90 75.792969 L 89.582031 77.078125 L 90.226562 77.285156 "/>
<path style=" stroke:none;fill-rule:nonzero;fill:rgb(100%,100%,100%);fill-opacity:1;" d="M 90 75.792969 L 90.417969 77.078125 L 89.773438 77.285156 "/>
<path style=" stroke:none;fill-rule:nonzero;fill:rgb(100%,100%,100%);fill-opacity:1;" d="M 91.285156 76.726562 L 89.933594 76.726562 L 89.933594 77.402344 "/>
<path style=" stroke:none;fill-rule:nonzero;fill:rgb(100%,100%,100%);fill-opacity:1;" d="M 91.285156 76.726562 L 90.191406 77.519531 L 89.796875 76.972656 "/>
<path style=" stroke:none;fill-rule:nonzero;fill:rgb(100%,100%,100%);fill-opacity:1;" d="M 88.714844 76.726562 L 89.808594 77.519531 L 90.203125 76.972656 "/>
<path style=" stroke:none;fill-rule:nonzero;fill:rgb(100%,100%,100%);fill-opacity:1;" d="M 88.714844 76.726562 L 90.066406 76.726562 L 90.066406 77.402344 "/>
<path style=" stroke:none;fill-rule:nonzero;fill:rgb(100%,100%,100%);fill-opacity:1;" d="M 90.792969 78.234375 L 90.375 76.949219 L 89.734375 77.160156 "/>
<path style=" stroke:none;fill-rule:nonzero;fill:rgb(100%,100%,100%);fill-opacity:1;" d="M 90.792969 78.234375 L 89.703125 77.441406 L 90.097656 76.894531 "/>
<path style=" stroke:none;fill-rule:nonzero;fill:rgb(100%,100%,100%);fill-opacity:1;" d="M 89.207031 78.234375 L 90.296875 77.441406 L 89.902344 76.894531 "/>
<path style=" stroke:none;fill-rule:nonzero;fill:rgb(100%,100%,100%);fill-opacity:1;" d="M 89.207031 78.234375 L 89.625 76.949219 L 90.265625 77.160156 "/>
<path style=" stroke:none;fill-rule:nonzero;fill:rgb(100%,100%,100%);fill-opacity:1;" d="M 93.644531 69.761719 L 93.296875 70.832031 L 93.832031 71.003906 "/>
<path style=" stroke:none;fill-rule:nonzero;fill:rgb(100%,100%,100%);fill-opacity:1;" d="M 93.644531 69.761719 L 93.992188 70.832031 L 93.457031 71.003906 "/>
<path style=" stroke:none;fill-rule:nonzero;fill:rgb(100%,100%,100%);fill-opacity:1;" d="M 94.710938 70.539062 L 93.585938 70.539062 L 93.585938 71.101562 "/>
<path style=" stroke:none;fill-rule:nonzero;fill:rgb(100%,100%,100%);fill-opacity:1;" d="M 94.710938 70.539062 L 93.800781 71.199219 L 93.472656 70.746094 "/>
<path style=" stroke:none;fill-rule:nonzero;fill:rgb(100%,100%,100%);fill-opacity:1;" d="M 92.574219 70.539062 L 93.484375 71.199219 L 93.8125 70.746094 "/>
<path style=" stroke:none;fill-rule:nonzero;fill:rgb(100%,100%,100%);fill-opacity:1;" d="M 92.574219 70.539062 L 93.699219 70.539062 L 93.699219 71.101562 "/>
<path style=" stroke:none;fill-rule:nonzero;fill:rgb(100%,100%,100%);fill-opacity:1;" d="M 94.304688 71.796875 L 93.957031 70.726562 L 93.421875 70.898438 "/>
<path style=" stroke:none;fill-rule:nonzero;fill:rgb(100%,100%,100%);fill-opacity:1;" d="M 94.304688 71.796875 L 93.394531 71.132812 L 93.722656 70.679688 "/>
<path style=" stroke:none;fill-rule:nonzero;fill:rgb(100%,100%,100%);fill-opacity:1;" d="M 92.980469 71.796875 L 93.890625 71.132812 L 93.5625 70.679688 "/>
<path style=" stroke:none;fill-rule:nonzero;fill:rgb(100%,100%,100%);fill-opacity:1;" d="M 92.980469 71.796875 L 93.328125 70.726562 L 93.863281 70.898438 "/>
<path style=" stroke:none;fill-rule:nonzero;fill:rgb(100%,100%,100%);fill-opacity:1;" d="M 90 66.933594 L 89.652344 68.003906 L 90.1875 68.175781 "/>
<path style=" stroke:none;fill-rule:nonzero;fill:rgb(100%,100%,100%);fill-opacity:1;" d="M 90 66.933594 L 90.347656 68.003906 L 89.8125 68.175781 "/>
<path style=" stroke:none;fill-rule:nonzero;fill:rgb(100%,100%,100%);fill-opacity:1;" d="M 91.070312 67.710938 L 89.945312 67.710938 L 89.945312 68.273438 "/>
<path style=" stroke:none;fill-rule:nonzero;fill:rgb(100%,100%,100%);fill-opacity:1;" d="M 91.070312 67.710938 L 90.160156 68.371094 L 89.828125 67.914062 "/>
<path style=" stroke:none;fill-rule:nonzero;fill:rgb(100%,100%,100%);fill-opacity:1;" d="M 88.929688 67.710938 L 89.839844 68.371094 L 90.171875 67.914062 "/>
<path style=" stroke:none;fill-rule:nonzero;fill:rgb(100%,100%,100%);fill-opacity:1;" d="M 88.929688 67.710938 L 90.054688 67.710938 L 90.054688 68.273438 "/>
<path style=" stroke:none;fill-rule:nonzero;fill:rgb(100%,100%,100%);fill-opacity:1;" d="M 90.660156 68.96875 L 90.3125 67.898438 L 89.777344 68.070312 "/>
<path style=" stroke:none;fill-rule:nonzero;fill:rgb(100%,100%,100%);fill-opacity:1;" d="M 90.660156 68.96875 L 89.75 68.304688 L 90.082031 67.851562 "/>
<path style=" stroke:none;fill-rule:nonzero;fill:rgb(100%,100%,100%);fill-opacity:1;" d="M 89.339844 68.96875 L 90.25 68.304688 L 89.917969 67.851562 "/>
<path style=" stroke:none;fill-rule:nonzero;fill:rgb(100%,100%,100%);fill-opacity:1;" d="M 89.339844 68.96875 L 89.6875 67.898438 L 90.222656 68.070312 "/>
<path style=" stroke:none;fill-rule:nonzero;fill:rgb(100%,100%,100%);fill-opacity:1;" d="M 86.828125 69.984375 L 86.550781 70.839844 L 86.976562 70.980469 "/>
<path style=" stroke:none;fill-rule:nonzero;fill:rgb(100%,100%,100%);fill-opacity:1;" d="M 86.828125 69.984375 L 87.105469 70.839844 L 86.679688 70.980469 "/>
<path style=" stroke:none;fill-rule:nonzero;fill:rgb(100%,100%,100%);fill-opacity:1;" d="M 87.683594 70.609375 L 86.785156 70.609375 L 86.785156 71.058594 "/>
<path style=" stroke:none;fill-rule:nonzero;fill:rgb(100%,100%,100%);fill-opacity:1;" d="M 87.683594 70.609375 L 86.957031 71.136719 L 86.691406 70.773438 "/>
<path style=" stroke:none;fill-rule:nonzero;fill:rgb(100%,100%,100%);fill-opacity:1;" d="M 85.972656 70.609375 L 86.699219 71.136719 L 86.964844 70.773438 "/>
<path style=" stroke:none;fill-rule:nonzero;fill:rgb(100%,100%,100%);fill-opacity:1;" d="M 85.972656 70.609375 L 86.871094 70.609375 L 86.871094 71.058594 "/>
<path style=" stroke:none;fill-rule:nonzero;fill:rgb(100%,100%,100%);fill-opacity:1;" d="M 87.359375 71.613281 L 87.078125 70.757812 L 86.652344 70.898438 "/>
<path style=" stroke:none;fill-rule:nonzero;fill:rgb(100%,100%,100%);fill-opacity:1;" d="M 87.359375 71.613281 L 86.628906 71.085938 L 86.894531 70.722656 "/>
<path style=" stroke:none;fill-rule:nonzero;fill:rgb(100%,100%,100%);fill-opacity:1;" d="M 86.300781 71.613281 L 87.027344 71.085938 L 86.761719 70.722656 "/>
<path style=" stroke:none;fill-rule:nonzero;fill:rgb(100%,100%,100%);fill-opacity:1;" d="M 86.300781 71.613281 L 86.578125 70.757812 L 87.003906 70.898438 "/>
<path style=" stroke:none;fill-rule:nonzero;fill:rgb(100%,100%,100%);fill-opacity:1;" d="M 88.414062 72.429688 L 88.214844 73.039062 L 88.519531 73.140625 "/>
<path style=" stroke:none;fill-rule:nonzero;fill:rgb(100%,100%,100%);fill-opacity:1;" d="M 88.414062 72.429688 L 88.613281 73.039062 L 88.308594 73.140625 "/>
<path style=" stroke:none;fill-rule:nonzero;fill:rgb(100%,100%,100%);fill-opacity:1;" d="M 89.027344 72.871094 L 88.382812 72.871094 L 88.382812 73.195312 "/>
<path style=" stroke:none;fill-rule:nonzero;fill:rgb(100%,100%,100%);fill-opacity:1;" d="M 89.027344 72.871094 L 88.503906 73.25 L 88.316406 72.992188 "/>
<path style=" stroke:none;fill-rule:nonzero;fill:rgb(100%,100%,100%);fill-opacity:1;" d="M 87.804688 72.871094 L 88.324219 73.25 L 88.511719 72.992188 "/>
<path style=" stroke:none;fill-rule:nonzero;fill:rgb(100%,100%,100%);fill-opacity:1;" d="M 87.804688 72.871094 L 88.445312 72.871094 L 88.445312 73.195312 "/>
<path style=" stroke:none;fill-rule:nonzero;fill:rgb(100%,100%,100%);fill-opacity:1;" d="M 88.792969 73.589844 L 88.59375 72.980469 L 88.289062 73.078125 "/>
<path style=" stroke:none;fill-rule:nonzero;fill:rgb(100%,100%,100%);fill-opacity:1;" d="M 88.792969 73.589844 L 88.273438 73.214844 L 88.460938 72.953125 "/>
<path style=" stroke:none;fill-rule:nonzero;fill:rgb(100%,100%,100%);fill-opacity:1;" d="M 88.035156 73.589844 L 88.554688 73.214844 L 88.367188 72.953125 "/>
<path style=" stroke:none;fill-rule:nonzero;fill:rgb(100%,100%,100%);fill-opacity:1;" d="M 88.035156 73.589844 L 88.234375 72.980469 L 88.539062 73.078125 "/>
<path style=" stroke:none;fill-rule:nonzero;fill:rgb(100%,100%,100%);fill-opacity:1;" d="M 99.429688 83.089844 L 99.082031 84.160156 L 99.617188 84.332031 "/>
<path style=" stroke:none;fill-rule:nonzero;fill:rgb(100%,100%,100%);fill-opacity:1;" d="M 99.429688 83.089844 L 99.777344 84.160156 L 99.242188 84.332031 "/>
<path style=" stroke:none;fill-rule:nonzero;fill:rgb(100%,100%,100%);fill-opacity:1;" d="M 100.5 83.867188 L 99.375 83.867188 L 99.375 84.429688 "/>
<path style=" stroke:none;fill-rule:nonzero;fill:rgb(100%,100%,100%);fill-opacity:1;" d="M 100.5 83.867188 L 99.589844 84.527344 L 99.257812 84.074219 "/>
<path style=" stroke:none;fill-rule:nonzero;fill:rgb(100%,100%,100%);fill-opacity:1;" d="M 98.359375 83.867188 L 99.269531 84.527344 L 99.597656 84.074219 "/>
<path style=" stroke:none;fill-rule:nonzero;fill:rgb(100%,100%,100%);fill-opacity:1;" d="M 98.359375 83.867188 L 99.484375 83.867188 L 99.484375 84.429688 "/>
<path style=" stroke:none;fill-rule:nonzero;fill:rgb(100%,100%,100%);fill-opacity:1;" d="M 100.089844 85.125 L 99.742188 84.054688 L 99.207031 84.226562 "/>
<path style=" stroke:none;fill-rule:nonzero;fill:rgb(100%,100%,100%);fill-opacity:1;" d="M 100.089844 85.125 L 99.179688 84.464844 L 99.511719 84.007812 "/>
<path style=" stroke:none;fill-rule:nonzero;fill:rgb(100%,100%,100%);fill-opacity:1;" d="M 98.765625 85.125 L 99.675781 84.464844 L 99.347656 84.007812 "/>
<path style=" stroke:none;fill-rule:nonzero;fill:rgb(100%,100%,100%);fill-opacity:1;" d="M 98.765625 85.125 L 99.113281 84.054688 L 99.648438 84.226562 "/>
<path style=" stroke:none;fill-rule:nonzero;fill:rgb(100%,100%,100%);fill-opacity:1;" d="M 102.128906 80.527344 L 101.851562 81.382812 L 102.277344 81.523438 "/>
<path style=" stroke:none;fill-rule:nonzero;fill:rgb(100%,100%,100%);fill-opacity:1;" d="M 102.128906 80.527344 L 102.40625 81.382812 L 101.980469 81.523438 "/>
<path style=" stroke:none;fill-rule:nonzero;fill:rgb(100%,100%,100%);fill-opacity:1;" d="M 102.984375 81.152344 L 102.085938 81.152344 L 102.085938 81.601562 "/>
<path style=" stroke:none;fill-rule:nonzero;fill:rgb(100%,100%,100%);fill-opacity:1;" d="M 102.984375 81.152344 L 102.257812 81.679688 L 101.992188 81.316406 "/>
<path style=" stroke:none;fill-rule:nonzero;fill:rgb(100%,100%,100%);fill-opacity:1;" d="M 101.273438 81.152344 L 102 81.679688 L 102.265625 81.316406 "/>
<path style=" stroke:none;fill-rule:nonzero;fill:rgb(100%,100%,100%);fill-opacity:1;" d="M 101.273438 81.152344 L 102.171875 81.152344 L 102.171875 81.601562 "/>
<path style=" stroke:none;fill-rule:nonzero;fill:rgb(100%,100%,100%);fill-opacity:1;" d="M 102.65625 82.15625 L 102.378906 81.300781 L 101.953125 81.441406 "/>
<path style=" stroke:none;fill-rule:nonzero;fill:rgb(100%,100%,100%);fill-opacity:1;" d="M 102.65625 82.15625 L 101.929688 81.628906 L 102.195312 81.261719 "/>
<path style=" stroke:none;fill-rule:nonzero;fill:rgb(100%,100%,100%);fill-opacity:1;" d="M 101.597656 82.15625 L 102.328125 81.628906 L 102.0625 81.261719 "/>
<path style=" stroke:none;fill-rule:nonzero;fill:rgb(100%,100%,100%);fill-opacity:1;" d="M 101.597656 82.15625 L 101.878906 81.300781 L 102.304688 81.441406 "/>
<path style=" stroke:none;fill-rule:nonzero;fill:rgb(100%,100%,100%);fill-opacity:1;" d="M 96.941406 79.757812 L 96.664062 80.613281 L 97.09375 80.753906 "/>
<path style=" stroke:none;fill-rule:nonzero;fill:rgb(100%,100%,100%);fill-opacity:1;" d="M 96.941406 79.757812 L 97.222656 80.613281 L 96.792969 80.753906 "/>
<path style=" stroke:none;fill-rule:nonzero;fill:rgb(100%,100%,100%);fill-opacity:1;" d="M 97.796875 80.378906 L 96.898438 80.378906 L 96.898438 80.828125 "/>
<path style=" stroke:none;fill-rule:nonzero;fill:rgb(100%,100%,100%);fill-opacity:1;" d="M 97.796875 80.378906 L 97.070312 80.90625 L 96.804688 80.542969 "/>
<path style=" stroke:none;fill-rule:nonzero;fill:rgb(100%,100%,100%);fill-opacity:1;" d="M 96.085938 80.378906 L 96.816406 80.90625 L 97.078125 80.542969 "/>
<path style=" stroke:none;fill-rule:nonzero;fill:rgb(100%,100%,100%);fill-opacity:1;" d="M 96.085938 80.378906 L 96.988281 80.378906 L 96.988281 80.828125 "/>
<path style=" stroke:none;fill-rule:nonzero;fill:rgb(100%,100%,100%);fill-opacity:1;" d="M 97.472656 81.386719 L 97.195312 80.53125 L 96.765625 80.667969 "/>
<path style=" stroke:none;fill-rule:nonzero;fill:rgb(100%,100%,100%);fill-opacity:1;" d="M 97.472656 81.386719 L 96.742188 80.855469 L 97.007812 80.492188 "/>
<path style=" stroke:none;fill-rule:nonzero;fill:rgb(100%,100%,100%);fill-opacity:1;" d="M 96.414062 81.386719 L 97.140625 80.855469 L 96.878906 80.492188 "/>
<path style=" stroke:none;fill-rule:nonzero;fill:rgb(100%,100%,100%);fill-opacity:1;" d="M 96.414062 81.386719 L 96.691406 80.53125 L 97.121094 80.667969 "/>
<path style=" stroke:none;fill-rule:nonzero;fill:rgb(100%,100%,100%);fill-opacity:1;" d="M 77.355469 78.363281 L 76.941406 79.648438 L 77.582031 79.855469 "/>
<path style=" stroke:none;fill-rule:nonzero;fill:rgb(100%,100%,100%);fill-opacity:1;" d="M 77.355469 78.363281 L 77.773438 79.648438 L 77.132812 79.855469 "/>
<path style=" stroke:none;fill-rule:nonzero;fill:rgb(100%,100%,100%);fill-opacity:1;" d="M 78.640625 79.296875 L 77.292969 79.296875 L 77.292969 79.972656 "/>
<path style=" stroke:none;fill-rule:nonzero;fill:rgb(100%,100%,100%);fill-opacity:1;" d="M 78.640625 79.296875 L 77.550781 80.089844 L 77.152344 79.542969 "/>
<path style=" stroke:none;fill-rule:nonzero;fill:rgb(100%,100%,100%);fill-opacity:1;" d="M 76.074219 79.296875 L 77.164062 80.089844 L 77.5625 79.542969 "/>
<path style=" stroke:none;fill-rule:nonzero;fill:rgb(100%,100%,100%);fill-opacity:1;" d="M 76.074219 79.296875 L 77.421875 79.296875 L 77.421875 79.972656 "/>
<path style=" stroke:none;fill-rule:nonzero;fill:rgb(100%,100%,100%);fill-opacity:1;" d="M 78.152344 80.804688 L 77.734375 79.523438 L 77.089844 79.730469 "/>
<path style=" stroke:none;fill-rule:nonzero;fill:rgb(100%,100%,100%);fill-opacity:1;" d="M 78.152344 80.804688 L 77.058594 80.011719 L 77.457031 79.46875 "/>
<path style=" stroke:none;fill-rule:nonzero;fill:rgb(100%,100%,100%);fill-opacity:1;" d="M 76.5625 80.804688 L 77.65625 80.011719 L 77.257812 79.46875 "/>
<path style=" stroke:none;fill-rule:nonzero;fill:rgb(100%,100%,100%);fill-opacity:1;" d="M 76.5625 80.804688 L 76.980469 79.523438 L 77.621094 79.730469 "/>
<path style=" stroke:none;fill-rule:nonzero;fill:rgb(100%,100%,100%);fill-opacity:1;" d="M 90 87.191406 L 89.859375 87.621094 L 90.074219 87.691406 "/>
<path style=" stroke:none;fill-rule:nonzero;fill:rgb(100%,100%,100%);fill-opacity:1;" d="M 90 87.191406 L 90.140625 87.621094 L 89.925781 87.691406 "/>
<path style=" stroke:none;fill-rule:nonzero;fill:rgb(100%,100%,100%);fill-opacity:1;" d="M 90.429688 87.503906 L 89.976562 87.503906 L 89.976562 87.730469 "/>
<path style=" stroke:none;fill-rule:nonzero;fill:rgb(100%,100%,100%);fill-opacity:1;" d="M 90.429688 87.503906 L 90.0625 87.769531 L 89.933594 87.585938 "/>
<path style=" stroke:none;fill-rule:nonzero;fill:rgb(100%,100%,100%);fill-opacity:1;" d="M 89.570312 87.503906 L 89.9375 87.769531 L 90.066406 87.585938 "/>
<path style=" stroke:none;fill-rule:nonzero;fill:rgb(100%,100%,100%);fill-opacity:1;" d="M 89.570312 87.503906 L 90.023438 87.503906 L 90.023438 87.730469 "/>
<path style=" stroke:none;fill-rule:nonzero;fill:rgb(100%,100%,100%);fill-opacity:1;" d="M 90.265625 88.007812 L 90.125 87.578125 L 89.910156 87.648438 "/>
<path style=" stroke:none;fill-rule:nonzero;fill:rgb(100%,100%,100%);fill-opacity:1;" d="M 90.265625 88.007812 L 89.902344 87.742188 L 90.03125 87.558594 "/>
<path style=" stroke:none;fill-rule:nonzero;fill:rgb(100%,100%,100%);fill-opacity:1;" d="M 89.734375 88.007812 L 90.097656 87.742188 L 89.96875 87.558594 "/>
<path style=" stroke:none;fill-rule:nonzero;fill:rgb(100%,100%,100%);fill-opacity:1;" d="M 89.734375 88.007812 L 89.875 87.578125 L 90.089844 87.648438 "/>
</g>
</svg>
