<?xml version="1.0" encoding="UTF-8"?>
<svg xmlns="http://www.w3.org/2000/svg" xmlns:xlink="http://www.w3.org/1999/xlink" width="450pt" height="225pt" viewBox="0 0 450 225" version="1.1">
<g id="surface1">
<rect x="0" y="0" width="450" height="225" style="fill:rgb(78.431373%,19.215686%,24.313725%);fill-opacity:1;stroke:none;"/>
<path style=" stroke:none;fill-rule:nonzero;fill:rgb(29.019608%,65.098039%,34.117647%);fill-opacity:1;" d="M 0 150 L 450 150 L 450 225 L 0 225 Z M 0 150 "/>
<path style=" stroke:none;fill-rule:nonzero;fill:rgb(100%,100%,100%);fill-opacity:1;" d="M 0 0 L 50 0 L 50 225 L 0 225 Z M 0 0 "/>
<path style=" stroke:none;fill-rule:evenodd;fill:rgb(78.431373%,19.215686%,24.313725%);fill-opacity:1;" d="M 8.695312 0 L 15.21875 0 L 15.21875 3.6875 L 17.390625 3.6875 L 17.390625 7.378906 L 19.566406 7.378906 L 19.566406 11.066406 L 21.738281 11.066406 L 21.738281 14.753906 L 23.914062 14.753906 L 23.914062 18.441406 L 21.738281 18.441406 L 21.738281 22.132812 L 19.566406 22.132812 L 19.566406 25.820312 L 17.390625 25.820312 L 17.390625 29.507812 L 15.21875 29.507812 L 15.21875 33.195312 L 13.042969 33.195312 L 13.042969 36.886719 L 10.871094 36.886719 L 10.871094 33.195312 L 8.695312 33.195312 L 8.695312 29.507812 L 6.523438 29.507812 L 6.523438 25.820312 L 4.347656 25.820312 L 4.347656 22.132812 L 2.175781 22.132812 L 2.175781 18.441406 L 0 18.441406 L 0 14.753906 L 2.175781 14.753906 L 2.175781 11.066406 L 4.347656 11.066406 L 4.347656 7.378906 L 6.523438 7.378906 L 6.523438 3.6875 L 8.695312 3.6875 Z M 10.871094 7.378906 L 13.042969 7.378906 L 13.042969 11.066406 L 15.21875 11.066406 L 15.21875 14.753906 L 17.390625 14.753906 L 17.390625 18.441406 L 15.21875 18.441406 L 15.21875 22.132812 L 13.042969 22.132812 L 13.042969 25.820312 L 10.871094 25.820312 L 10.871094 22.132812 L 8.695312 22.132812 L 8.695312 18.441406 L 6.523438 18.441406 L 6.523438 14.753906 L 8.695312 14.753906 L 8.695312 11.066406 L 10.871094 11.066406 Z M 10.871094 14.753906 L 13.042969 14.753906 L 13.042969 18.441406 L 10.871094 18.441406 Z M 0 3.6875 L 2.175781 3.6875 L 2.175781 7.378906 L 0 7.378906 Z M 0 25.820312 L 2.175781 25.820312 L 2.175781 29.507812 L 0 29.507812 Z M 23.914062 0 L 25.21875 0 L 25.21875 7.378906 L 23.914062 7.378906 Z M 23.914062 25.820312 L 25.21875 25.820312 L 25.21875 33.195312 L 23.914062 33.195312 Z M 4.347656 33.195312 L 6.523438 33.195312 L 6.523438 36.886719 L 8.695312 36.886719 L 8.695312 40.574219 L 10.871094 40.574219 L 10.871094 44.261719 L 8.695312 44.261719 L 8.695312 47.949219 L 6.523438 47.949219 L 6.523438 51.640625 L 4.347656 51.640625 L 4.347656 47.949219 L 2.175781 47.949219 L 2.175781 44.261719 L 0 44.261719 L 0 40.574219 L 2.175781 40.574219 L 2.175781 36.886719 L 4.347656 36.886719 Z M 4.347656 40.574219 L 6.523438 40.574219 L 6.523438 44.261719 L 4.347656 44.261719 Z M 17.390625 33.195312 L 19.566406 33.195312 L 19.566406 36.886719 L 21.738281 36.886719 L 21.738281 40.574219 L 23.914062 40.574219 L 23.914062 44.261719 L 21.738281 44.261719 L 21.738281 47.949219 L 19.566406 47.949219 L 19.566406 51.640625 L 17.390625 51.640625 L 17.390625 47.949219 L 15.21875 47.949219 L 15.21875 44.261719 L 13.042969 44.261719 L 13.042969 40.574219 L 15.21875 40.574219 L 15.21875 36.886719 L 17.390625 36.886719 Z M 17.390625 40.574219 L 19.566406 40.574219 L 19.566406 44.261719 L 17.390625 44.261719 Z M 0 55.328125 L 2.175781 55.328125 L 2.175781 59.015625 L 0 59.015625 Z M 23.914062 51.640625 L 25.21875 51.640625 L 25.21875 59.015625 L 23.914062 59.015625 Z M 23.914062 51.640625 "/>
<path style=" stroke:none;fill-rule:evenodd;fill:rgb(78.431373%,19.215686%,24.313725%);fill-opacity:1;" d="M 0 66.394531 L 2.175781 66.394531 L 2.175781 62.703125 L 4.347656 62.703125 L 4.347656 59.015625 L 6.523438 59.015625 L 6.523438 55.328125 L 8.695312 55.328125 L 8.695312 51.640625 L 10.871094 51.640625 L 10.871094 47.949219 L 13.042969 47.949219 L 13.042969 51.640625 L 15.21875 51.640625 L 15.21875 55.328125 L 17.390625 55.328125 L 17.390625 59.015625 L 19.566406 59.015625 L 19.566406 62.703125 L 21.738281 62.703125 L 21.738281 66.394531 L 23.914062 66.394531 L 23.914062 70.082031 L 25.21875 70.082031 L 25.21875 84.835938 L 23.914062 84.835938 L 23.914062 88.523438 L 21.738281 88.523438 L 21.738281 92.214844 L 19.566406 92.214844 L 19.566406 95.902344 L 17.390625 95.902344 L 17.390625 99.589844 L 15.21875 99.589844 L 15.21875 103.277344 L 13.042969 103.277344 L 13.042969 112.867188 L 8.695312 112.867188 L 8.695312 110.65625 L 6.523438 110.65625 L 6.523438 106.96875 L 4.347656 106.96875 L 4.347656 103.277344 L 2.175781 103.277344 L 2.175781 99.589844 L 0 99.589844 L 0 88.523438 L 2.175781 88.523438 L 2.175781 92.214844 L 4.347656 92.214844 L 4.347656 95.902344 L 6.523438 95.902344 L 6.523438 99.589844 L 8.695312 99.589844 L 8.695312 95.902344 L 10.871094 95.902344 L 10.871094 92.214844 L 13.042969 92.214844 L 13.042969 88.523438 L 15.21875 88.523438 L 15.21875 84.835938 L 17.390625 84.835938 L 17.390625 81.148438 L 19.566406 81.148438 L 19.566406 77.460938 L 17.390625 77.460938 L 17.390625 73.769531 L 15.21875 73.769531 L 15.21875 70.082031 L 8.695312 70.082031 L 8.695312 73.769531 L 13.042969 73.769531 L 13.042969 77.460938 L 10.871094 77.460938 L 10.871094 81.148438 L 8.695312 81.148438 L 8.695312 84.835938 L 6.523438 84.835938 L 6.523438 81.148438 L 4.347656 81.148438 L 4.347656 77.460938 L 2.175781 77.460938 L 2.175781 73.769531 L 0 73.769531 Z M 0 81.148438 L 2.175781 81.148438 L 2.175781 84.835938 L 0 84.835938 Z M 23.914062 92.214844 L 25.21875 92.214844 L 25.21875 95.902344 L 23.914062 95.902344 Z M 19.566406 99.589844 L 21.738281 99.589844 L 21.738281 103.277344 L 23.914062 103.277344 L 23.914062 106.96875 L 25.21875 106.96875 L 25.21875 112.867188 L 23.914062 112.867188 L 23.914062 110.65625 L 21.738281 110.65625 L 21.738281 106.96875 L 19.566406 106.96875 Z M 15.21875 110.65625 L 17.390625 110.65625 L 17.390625 112.867188 L 15.21875 112.867188 Z M 15.21875 110.65625 "/>
<path style=" stroke:none;fill-rule:evenodd;fill:rgb(78.431373%,19.215686%,24.313725%);fill-opacity:1;" d="M 41.304688 0 L 34.78125 0 L 34.78125 3.6875 L 32.609375 3.6875 L 32.609375 7.378906 L 30.433594 7.378906 L 30.433594 11.066406 L 28.261719 11.066406 L 28.261719 14.753906 L 26.085938 14.753906 L 26.085938 18.441406 L 28.261719 18.441406 L 28.261719 22.132812 L 30.433594 22.132812 L 30.433594 25.820312 L 32.609375 25.820312 L 32.609375 29.507812 L 34.78125 29.507812 L 34.78125 33.195312 L 36.957031 33.195312 L 36.957031 36.886719 L 39.128906 36.886719 L 39.128906 33.195312 L 41.304688 33.195312 L 41.304688 29.507812 L 43.476562 29.507812 L 43.476562 25.820312 L 45.652344 25.820312 L 45.652344 22.132812 L 47.824219 22.132812 L 47.824219 18.441406 L 50 18.441406 L 50 14.753906 L 47.824219 14.753906 L 47.824219 11.066406 L 45.652344 11.066406 L 45.652344 7.378906 L 43.476562 7.378906 L 43.476562 3.6875 L 41.304688 3.6875 Z M 39.128906 7.378906 L 36.957031 7.378906 L 36.957031 11.066406 L 34.78125 11.066406 L 34.78125 14.753906 L 32.609375 14.753906 L 32.609375 18.441406 L 34.78125 18.441406 L 34.78125 22.132812 L 36.957031 22.132812 L 36.957031 25.820312 L 39.128906 25.820312 L 39.128906 22.132812 L 41.304688 22.132812 L 41.304688 18.441406 L 43.476562 18.441406 L 43.476562 14.753906 L 41.304688 14.753906 L 41.304688 11.066406 L 39.128906 11.066406 Z M 39.128906 14.753906 L 36.957031 14.753906 L 36.957031 18.441406 L 39.128906 18.441406 Z M 50 3.6875 L 47.824219 3.6875 L 47.824219 7.378906 L 50 7.378906 Z M 50 25.820312 L 47.824219 25.820312 L 47.824219 29.507812 L 50 29.507812 Z M 26.085938 0 L 24.78125 0 L 24.78125 7.378906 L 26.085938 7.378906 Z M 26.085938 25.820312 L 24.78125 25.820312 L 24.78125 33.195312 L 26.085938 33.195312 Z M 45.652344 33.195312 L 43.476562 33.195312 L 43.476562 36.886719 L 41.304688 36.886719 L 41.304688 40.574219 L 39.128906 40.574219 L 39.128906 44.261719 L 41.304688 44.261719 L 41.304688 47.949219 L 43.476562 47.949219 L 43.476562 51.640625 L 45.652344 51.640625 L 45.652344 47.949219 L 47.824219 47.949219 L 47.824219 44.261719 L 50 44.261719 L 50 40.574219 L 47.824219 40.574219 L 47.824219 36.886719 L 45.652344 36.886719 Z M 45.652344 40.574219 L 43.476562 40.574219 L 43.476562 44.261719 L 45.652344 44.261719 Z M 32.609375 33.195312 L 30.433594 33.195312 L 30.433594 36.886719 L 28.261719 36.886719 L 28.261719 40.574219 L 26.085938 40.574219 L 26.085938 44.261719 L 28.261719 44.261719 L 28.261719 47.949219 L 30.433594 47.949219 L 30.433594 51.640625 L 32.609375 51.640625 L 32.609375 47.949219 L 34.78125 47.949219 L 34.78125 44.261719 L 36.957031 44.261719 L 36.957031 40.574219 L 34.78125 40.574219 L 34.78125 36.886719 L 32.609375 36.886719 Z M 32.609375 40.574219 L 30.433594 40.574219 L 30.433594 44.261719 L 32.609375 44.261719 Z M 50 55.328125 L 47.824219 55.328125 L 47.824219 59.015625 L 50 59.015625 Z M 26.085938 51.640625 L 24.78125 51.640625 L 24.78125 59.015625 L 26.085938 59.015625 Z M 26.085938 51.640625 "/>
<path style=" stroke:none;fill-rule:evenodd;fill:rgb(78.431373%,19.215686%,24.313725%);fill-opacity:1;" d="M 50 66.394531 L 47.824219 66.394531 L 47.824219 62.703125 L 45.652344 62.703125 L 45.652344 59.015625 L 43.476562 59.015625 L 43.476562 55.328125 L 41.304688 55.328125 L 41.304688 51.640625 L 39.128906 51.640625 L 39.128906 47.949219 L 36.957031 47.949219 L 36.957031 51.640625 L 34.78125 51.640625 L 34.78125 55.328125 L 32.609375 55.328125 L 32.609375 59.015625 L 30.433594 59.015625 L 30.433594 62.703125 L 28.261719 62.703125 L 28.261719 66.394531 L 26.085938 66.394531 L 26.085938 70.082031 L 24.78125 70.082031 L 24.78125 84.835938 L 26.085938 84.835938 L 26.085938 88.523438 L 28.261719 88.523438 L 28.261719 92.214844 L 30.433594 92.214844 L 30.433594 95.902344 L 32.609375 95.902344 L 32.609375 99.589844 L 34.78125 99.589844 L 34.78125 103.277344 L 36.957031 103.277344 L 36.957031 112.867188 L 41.304688 112.867188 L 41.304688 110.65625 L 43.476562 110.65625 L 43.476562 106.96875 L 45.652344 106.96875 L 45.652344 103.277344 L 47.824219 103.277344 L 47.824219 99.589844 L 50 99.589844 L 50 88.523438 L 47.824219 88.523438 L 47.824219 92.214844 L 45.652344 92.214844 L 45.652344 95.902344 L 43.476562 95.902344 L 43.476562 99.589844 L 41.304688 99.589844 L 41.304688 95.902344 L 39.128906 95.902344 L 39.128906 92.214844 L 36.957031 92.214844 L 36.957031 88.523438 L 34.78125 88.523438 L 34.78125 84.835938 L 32.609375 84.835938 L 32.609375 81.148438 L 30.433594 81.148438 L 30.433594 77.460938 L 32.609375 77.460938 L 32.609375 73.769531 L 34.78125 73.769531 L 34.78125 70.082031 L 41.304688 70.082031 L 41.304688 73.769531 L 36.957031 73.769531 L 36.957031 77.460938 L 39.128906 77.460938 L 39.128906 81.148438 L 41.304688 81.148438 L 41.304688 84.835938 L 43.476562 84.835938 L 43.476562 81.148438 L 45.652344 81.148438 L 45.652344 77.460938 L 47.824219 77.460938 L 47.824219 73.769531 L 50 73.769531 Z M 50 81.148438 L 47.824219 81.148438 L 47.824219 84.835938 L 50 84.835938 Z M 26.085938 92.214844 L 24.78125 92.214844 L 24.78125 95.902344 L 26.085938 95.902344 Z M 30.433594 99.589844 L 28.261719 99.589844 L 28.261719 103.277344 L 26.085938 103.277344 L 26.085938 106.96875 L 24.78125 106.96875 L 24.78125 112.867188 L 26.085938 112.867188 L 26.085938 110.65625 L 28.261719 110.65625 L 28.261719 106.96875 L 30.433594 106.96875 Z M 34.78125 110.65625 L 32.609375 110.65625 L 32.609375 112.867188 L 34.78125 112.867188 Z M 34.78125 110.65625 "/>
<path style=" stroke:none;fill-rule:evenodd;fill:rgb(78.431373%,19.215686%,24.313725%);fill-opacity:1;" d="M 8.695312 225 L 15.21875 225 L 15.21875 221.3125 L 17.390625 221.3125 L 17.390625 217.621094 L 19.566406 217.621094 L 19.566406 213.933594 L 21.738281 213.933594 L 21.738281 210.246094 L 23.914062 210.246094 L 23.914062 206.558594 L 21.738281 206.558594 L 21.738281 202.867188 L 19.566406 202.867188 L 19.566406 199.179688 L 17.390625 199.179688 L 17.390625 195.492188 L 15.21875 195.492188 L 15.21875 191.804688 L 13.042969 191.804688 L 13.042969 188.113281 L 10.871094 188.113281 L 10.871094 191.804688 L 8.695312 191.804688 L 8.695312 195.492188 L 6.523438 195.492188 L 6.523438 199.179688 L 4.347656 199.179688 L 4.347656 202.867188 L 2.175781 202.867188 L 2.175781 206.558594 L 0 206.558594 L 0 210.246094 L 2.175781 210.246094 L 2.175781 213.933594 L 4.347656 213.933594 L 4.347656 217.621094 L 6.523438 217.621094 L 6.523438 221.3125 L 8.695312 221.3125 Z M 10.871094 217.621094 L 13.042969 217.621094 L 13.042969 213.933594 L 15.21875 213.933594 L 15.21875 210.246094 L 17.390625 210.246094 L 17.390625 206.558594 L 15.21875 206.558594 L 15.21875 202.867188 L 13.042969 202.867188 L 13.042969 199.179688 L 10.871094 199.179688 L 10.871094 202.867188 L 8.695312 202.867188 L 8.695312 206.558594 L 6.523438 206.558594 L 6.523438 210.246094 L 8.695312 210.246094 L 8.695312 213.933594 L 10.871094 213.933594 Z M 10.871094 210.246094 L 13.042969 210.246094 L 13.042969 206.558594 L 10.871094 206.558594 Z M 0 221.3125 L 2.175781 221.3125 L 2.175781 217.621094 L 0 217.621094 Z M 0 199.179688 L 2.175781 199.179688 L 2.175781 195.492188 L 0 195.492188 Z M 23.914062 225 L 25.21875 225 L 25.21875 217.621094 L 23.914062 217.621094 Z M 23.914062 199.179688 L 25.21875 199.179688 L 25.21875 191.804688 L 23.914062 191.804688 Z M 4.347656 191.804688 L 6.523438 191.804688 L 6.523438 188.113281 L 8.695312 188.113281 L 8.695312 184.425781 L 10.871094 184.425781 L 10.871094 180.738281 L 8.695312 180.738281 L 8.695312 177.050781 L 6.523438 177.050781 L 6.523438 173.359375 L 4.347656 173.359375 L 4.347656 177.050781 L 2.175781 177.050781 L 2.175781 180.738281 L 0 180.738281 L 0 184.425781 L 2.175781 184.425781 L 2.175781 188.113281 L 4.347656 188.113281 Z M 4.347656 184.425781 L 6.523438 184.425781 L 6.523438 180.738281 L 4.347656 180.738281 Z M 17.390625 191.804688 L 19.566406 191.804688 L 19.566406 188.113281 L 21.738281 188.113281 L 21.738281 184.425781 L 23.914062 184.425781 L 23.914062 180.738281 L 21.738281 180.738281 L 21.738281 177.050781 L 19.566406 177.050781 L 19.566406 173.359375 L 17.390625 173.359375 L 17.390625 177.050781 L 15.21875 177.050781 L 15.21875 180.738281 L 13.042969 180.738281 L 13.042969 184.425781 L 15.21875 184.425781 L 15.21875 188.113281 L 17.390625 188.113281 Z M 17.390625 184.425781 L 19.566406 184.425781 L 19.566406 180.738281 L 17.390625 180.738281 Z M 0 169.671875 L 2.175781 169.671875 L 2.175781 165.984375 L 0 165.984375 Z M 23.914062 173.359375 L 25.21875 173.359375 L 25.21875 165.984375 L 23.914062 165.984375 Z M 23.914062 173.359375 "/>
<path style=" stroke:none;fill-rule:evenodd;fill:rgb(78.431373%,19.215686%,24.313725%);fill-opacity:1;" d="M 0 158.605469 L 2.175781 158.605469 L 2.175781 162.296875 L 4.347656 162.296875 L 4.347656 165.984375 L 6.523438 165.984375 L 6.523438 169.671875 L 8.695312 169.671875 L 8.695312 173.359375 L 10.871094 173.359375 L 10.871094 177.050781 L 13.042969 177.050781 L 13.042969 173.359375 L 15.21875 173.359375 L 15.21875 169.671875 L 17.390625 169.671875 L 17.390625 165.984375 L 19.566406 165.984375 L 19.566406 162.296875 L 21.738281 162.296875 L 21.738281 158.605469 L 23.914062 158.605469 L 23.914062 154.917969 L 25.21875 154.917969 L 25.21875 140.164062 L 23.914062 140.164062 L 23.914062 136.476562 L 21.738281 136.476562 L 21.738281 132.785156 L 19.566406 132.785156 L 19.566406 129.097656 L 17.390625 129.097656 L 17.390625 125.410156 L 15.21875 125.410156 L 15.21875 121.722656 L 13.042969 121.722656 L 13.042969 112.132812 L 8.695312 112.132812 L 8.695312 114.34375 L 6.523438 114.34375 L 6.523438 118.03125 L 4.347656 118.03125 L 4.347656 121.722656 L 2.175781 121.722656 L 2.175781 125.410156 L 0 125.410156 L 0 136.476562 L 2.175781 136.476562 L 2.175781 132.785156 L 4.347656 132.785156 L 4.347656 129.097656 L 6.523438 129.097656 L 6.523438 125.410156 L 8.695312 125.410156 L 8.695312 129.097656 L 10.871094 129.097656 L 10.871094 132.785156 L 13.042969 132.785156 L 13.042969 136.476562 L 15.21875 136.476562 L 15.21875 140.164062 L 17.390625 140.164062 L 17.390625 143.851562 L 19.566406 143.851562 L 19.566406 147.539062 L 17.390625 147.539062 L 17.390625 151.230469 L 15.21875 151.230469 L 15.21875 154.917969 L 8.695312 154.917969 L 8.695312 151.230469 L 13.042969 151.230469 L 13.042969 147.539062 L 10.871094 147.539062 L 10.871094 143.851562 L 8.695312 143.851562 L 8.695312 140.164062 L 6.523438 140.164062 L 6.523438 143.851562 L 4.347656 143.851562 L 4.347656 147.539062 L 2.175781 147.539062 L 2.175781 151.230469 L 0 151.230469 Z M 0 143.851562 L 2.175781 143.851562 L 2.175781 140.164062 L 0 140.164062 Z M 23.914062 132.785156 L 25.21875 132.785156 L 25.21875 129.097656 L 23.914062 129.097656 Z M 19.566406 125.410156 L 21.738281 125.410156 L 21.738281 121.722656 L 23.914062 121.722656 L 23.914062 118.03125 L 25.21875 118.03125 L 25.21875 112.132812 L 23.914062 112.132812 L 23.914062 114.34375 L 21.738281 114.34375 L 21.738281 118.03125 L 19.566406 118.03125 Z M 15.21875 114.34375 L 17.390625 114.34375 L 17.390625 112.132812 L 15.21875 112.132812 Z M 15.21875 114.34375 "/>
<path style=" stroke:none;fill-rule:evenodd;fill:rgb(78.431373%,19.215686%,24.313725%);fill-opacity:1;" d="M 41.304688 225 L 34.78125 225 L 34.78125 221.3125 L 32.609375 221.3125 L 32.609375 217.621094 L 30.433594 217.621094 L 30.433594 213.933594 L 28.261719 213.933594 L 28.261719 210.246094 L 26.085938 210.246094 L 26.085938 206.558594 L 28.261719 206.558594 L 28.261719 202.867188 L 30.433594 202.867188 L 30.433594 199.179688 L 32.609375 199.179688 L 32.609375 195.492188 L 34.78125 195.492188 L 34.78125 191.804688 L 36.957031 191.804688 L 36.957031 188.113281 L 39.128906 188.113281 L 39.128906 191.804688 L 41.304688 191.804688 L 41.304688 195.492188 L 43.476562 195.492188 L 43.476562 199.179688 L 45.652344 199.179688 L 45.652344 202.867188 L 47.824219 202.867188 L 47.824219 206.558594 L 50 206.558594 L 50 210.246094 L 47.824219 210.246094 L 47.824219 213.933594 L 45.652344 213.933594 L 45.652344 217.621094 L 43.476562 217.621094 L 43.476562 221.3125 L 41.304688 221.3125 Z M 39.128906 217.621094 L 36.957031 217.621094 L 36.957031 213.933594 L 34.78125 213.933594 L 34.78125 210.246094 L 32.609375 210.246094 L 32.609375 206.558594 L 34.78125 206.558594 L 34.78125 202.867188 L 36.957031 202.867188 L 36.957031 199.179688 L 39.128906 199.179688 L 39.128906 202.867188 L 41.304688 202.867188 L 41.304688 206.558594 L 43.476562 206.558594 L 43.476562 210.246094 L 41.304688 210.246094 L 41.304688 213.933594 L 39.128906 213.933594 Z M 39.128906 210.246094 L 36.957031 210.246094 L 36.957031 206.558594 L 39.128906 206.558594 Z M 50 221.3125 L 47.824219 221.3125 L 47.824219 217.621094 L 50 217.621094 Z M 50 199.179688 L 47.824219 199.179688 L 47.824219 195.492188 L 50 195.492188 Z M 26.085938 225 L 24.78125 225 L 24.78125 217.621094 L 26.085938 217.621094 Z M 26.085938 199.179688 L 24.78125 199.179688 L 24.78125 191.804688 L 26.085938 191.804688 Z M 45.652344 191.804688 L 43.476562 191.804688 L 43.476562 188.113281 L 41.304688 188.113281 L 41.304688 184.425781 L 39.128906 184.425781 L 39.128906 180.738281 L 41.304688 180.738281 L 41.304688 177.050781 L 43.476562 177.050781 L 43.476562 173.359375 L 45.652344 173.359375 L 45.652344 177.050781 L 47.824219 177.050781 L 47.824219 180.738281 L 50 180.738281 L 50 184.425781 L 47.824219 184.425781 L 47.824219 188.113281 L 45.652344 188.113281 Z M 45.652344 184.425781 L 43.476562 184.425781 L 43.476562 180.738281 L 45.652344 180.738281 Z M 32.609375 191.804688 L 30.433594 191.804688 L 30.433594 188.113281 L 28.261719 188.113281 L 28.261719 184.425781 L 26.085938 184.425781 L 26.085938 180.738281 L 28.261719 180.738281 L 28.261719 177.050781 L 30.433594 177.050781 L 30.433594 173.359375 L 32.609375 173.359375 L 32.609375 177.050781 L 34.78125 177.050781 L 34.78125 180.738281 L 36.957031 180.738281 L 36.957031 184.425781 L 34.78125 184.425781 L 34.78125 188.113281 L 32.609375 188.113281 Z M 32.609375 184.425781 L 30.433594 184.425781 L 30.433594 180.738281 L 32.609375 180.738281 Z M 50 169.671875 L 47.824219 169.671875 L 47.824219 165.984375 L 50 165.984375 Z M 26.085938 173.359375 L 24.78125 173.359375 L 24.78125 165.984375 L 26.085938 165.984375 Z M 26.085938 173.359375 "/>
<path style=" stroke:none;fill-rule:evenodd;fill:rgb(78.431373%,19.215686%,24.313725%);fill-opacity:1;" d="M 50 158.605469 L 47.824219 158.605469 L 47.824219 162.296875 L 45.652344 162.296875 L 45.652344 165.984375 L 43.476562 165.984375 L 43.476562 169.671875 L 41.304688 169.671875 L 41.304688 173.359375 L 39.128906 173.359375 L 39.128906 177.050781 L 36.957031 177.050781 L 36.957031 173.359375 L 34.78125 173.359375 L 34.78125 169.671875 L 32.609375 169.671875 L 32.609375 165.984375 L 30.433594 165.984375 L 30.433594 162.296875 L 28.261719 162.296875 L 28.261719 158.605469 L 26.085938 158.605469 L 26.085938 154.917969 L 24.78125 154.917969 L 24.78125 140.164062 L 26.085938 140.164062 L 26.085938 136.476562 L 28.261719 136.476562 L 28.261719 132.785156 L 30.433594 132.785156 L 30.433594 129.097656 L 32.609375 129.097656 L 32.609375 125.410156 L 34.78125 125.410156 L 34.78125 121.722656 L 36.957031 121.722656 L 36.957031 112.132812 L 41.304688 112.132812 L 41.304688 114.34375 L 43.476562 114.34375 L 43.476562 118.03125 L 45.652344 118.03125 L 45.652344 121.722656 L 47.824219 121.722656 L 47.824219 125.410156 L 50 125.410156 L 50 136.476562 L 47.824219 136.476562 L 47.824219 132.785156 L 45.652344 132.785156 L 45.652344 129.097656 L 43.476562 129.097656 L 43.476562 125.410156 L 41.304688 125.410156 L 41.304688 129.097656 L 39.128906 129.097656 L 39.128906 132.785156 L 36.957031 132.785156 L 36.957031 136.476562 L 34.78125 136.476562 L 34.78125 140.164062 L 32.609375 140.164062 L 32.609375 143.851562 L 30.433594 143.851562 L 30.433594 147.539062 L 32.609375 147.539062 L 32.609375 151.230469 L 34.78125 151.230469 L 34.78125 154.917969 L 41.304688 154.917969 L 41.304688 151.230469 L 36.957031 151.230469 L 36.957031 147.539062 L 39.128906 147.539062 L 39.128906 143.851562 L 41.304688 143.851562 L 41.304688 140.164062 L 43.476562 140.164062 L 43.476562 143.851562 L 45.652344 143.851562 L 45.652344 147.539062 L 47.824219 147.539062 L 47.824219 151.230469 L 50 151.230469 Z M 50 143.851562 L 47.824219 143.851562 L 47.824219 140.164062 L 50 140.164062 Z M 26.085938 132.785156 L 24.78125 132.785156 L 24.78125 129.097656 L 26.085938 129.097656 Z M 30.433594 125.410156 L 28.261719 125.410156 L 28.261719 121.722656 L 26.085938 121.722656 L 26.085938 118.03125 L 24.78125 118.03125 L 24.78125 112.132812 L 26.085938 112.132812 L 26.085938 114.34375 L 28.261719 114.34375 L 28.261719 118.03125 L 30.433594 118.03125 Z M 34.78125 114.34375 L 32.609375 114.34375 L 32.609375 112.132812 L 34.78125 112.132812 Z M 34.78125 114.34375 "/>
</g>
</svg>
