<?xml version="1.0" encoding="UTF-8"?>
<svg xmlns="http://www.w3.org/2000/svg" xmlns:xlink="http://www.w3.org/1999/xlink" width="225pt" height="150pt" viewBox="0 0 225 150" version="1.1">
<g id="surface1">
<rect x="0" y="0" width="225" height="150" style="fill:rgb(87.058824%,16.078431%,6.27451%);fill-opacity:1;stroke:none;"/>
<path style=" stroke:none;fill-rule:nonzero;fill:rgb(100%,87.058824%,0%);fill-opacity:1;" d="M 37.5 15 L 50.726562 55.703125 L 16.101562 30.546875 L 58.898438 30.546875 L 24.273438 55.703125 Z M 37.5 15 "/>
<path style=" stroke:none;fill-rule:nonzero;fill:rgb(100%,87.058824%,0%);fill-opacity:1;" d="M 77.933594 8.097656 L 76.683594 22.308594 L 69.34375 10.074219 L 82.472656 15.660156 L 68.570312 18.859375 Z M 77.933594 8.097656 "/>
<path style=" stroke:none;fill-rule:nonzero;fill:rgb(100%,87.058824%,0%);fill-opacity:1;" d="M 95.382812 24.777344 L 88.714844 37.390625 L 86.695312 23.265625 L 96.628906 33.507812 L 82.574219 31.0625 Z M 95.382812 24.777344 "/>
<path style=" stroke:none;fill-rule:nonzero;fill:rgb(100%,87.058824%,0%);fill-opacity:1;" d="M 97.046875 49.929688 L 85.8125 58.722656 L 89.730469 45.003906 L 94.625 58.40625 L 82.789062 50.441406 Z M 97.046875 49.929688 "/>
<path style=" stroke:none;fill-rule:nonzero;fill:rgb(100%,87.058824%,0%);fill-opacity:1;" d="M 77.644531 60.480469 L 76.984375 74.734375 L 69.144531 62.816406 L 82.492188 67.847656 L 68.734375 71.621094 Z M 77.644531 60.480469 "/>
</g>
</svg>
