<?xml version="1.0" encoding="UTF-8"?>
<svg xmlns="http://www.w3.org/2000/svg" xmlns:xlink="http://www.w3.org/1999/xlink" width="450pt" height="300pt" viewBox="0 0 450 300" version="1.1">
<defs>
<clipPath id="clip1">
  <path d="M 150 75 L 300 75 L 300 225 L 150 225 Z M 150 75 "/>
</clipPath>
<clipPath id="clip2">
  <path d="M 0 0 L 450 0 L 450 300 L 0 300 Z M 243.113281 210 C 276.25 210 303.113281 183.136719 303.113281 150 C 303.113281 116.863281 276.25 90 243.113281 90 C 209.976562 90 183.113281 116.863281 183.113281 150 C 183.113281 183.136719 209.976562 210 243.113281 210 "/>
</clipPath>
</defs>
<g id="surface1">
<rect x="0" y="0" width="450" height="300" style="fill:rgb(100%,100%,100%);fill-opacity:1;stroke:none;"/>
<path style=" stroke:none;fill-rule:nonzero;fill:rgb(0%,38.431373%,20%);fill-opacity:1;" d="M 0 0 L 225 0 L 225 300 L 0 300 Z M 0 0 "/>
<g clip-path="url(#clip1)" clip-rule="nonzero">
<g clip-path="url(#clip2)" clip-rule="nonzero">
<path style=" stroke:none;fill-rule:nonzero;fill:rgb(82.352941%,6.27451%,20.392157%);fill-opacity:1;" d="M 300 150 C 300 191.421875 266.421875 225 225 225 C 183.578125 225 150 191.421875 150 150 C 150 108.578125 183.578125 75 225 75 C 266.421875 75 300 108.578125 300 150 Z M 300 150 "/>
</g>
</g>
<path style=" stroke:none;fill-rule:nonzero;fill:rgb(82.352941%,6.27451%,20.392157%);fill-opacity:1;" d="M 292.839844 150 L 257.171875 138.410156 L 250.21875 159.8125 Z M 292.839844 150 "/>
<path style=" stroke:none;fill-rule:nonzero;fill:rgb(82.352941%,6.27451%,20.392157%);fill-opacity:1;" d="M 292.839844 150 L 257.171875 161.589844 L 250.21875 140.1875 Z M 292.839844 150 "/>
<path style=" stroke:none;fill-rule:nonzero;fill:rgb(82.352941%,6.27451%,20.392157%);fill-opacity:1;" d="M 266.925781 185.664062 L 266.925781 148.164062 L 244.425781 148.164062 Z M 266.925781 185.664062 "/>
<path style=" stroke:none;fill-rule:nonzero;fill:rgb(82.352941%,6.27451%,20.392157%);fill-opacity:1;" d="M 266.925781 185.664062 L 244.882812 155.328125 L 263.085938 142.101562 Z M 266.925781 185.664062 "/>
<path style=" stroke:none;fill-rule:nonzero;fill:rgb(82.352941%,6.27451%,20.392157%);fill-opacity:1;" d="M 266.925781 114.335938 L 244.882812 144.671875 L 263.085938 157.898438 Z M 266.925781 114.335938 "/>
<path style=" stroke:none;fill-rule:nonzero;fill:rgb(82.352941%,6.27451%,20.392157%);fill-opacity:1;" d="M 266.925781 114.335938 L 266.925781 151.835938 L 244.425781 151.835938 Z M 266.925781 114.335938 "/>
<path style=" stroke:none;fill-rule:nonzero;fill:rgb(82.352941%,6.27451%,20.392157%);fill-opacity:1;" d="M 225 172.042969 L 260.664062 160.453125 L 253.710938 139.054688 Z M 225 172.042969 "/>
<path style=" stroke:none;fill-rule:nonzero;fill:rgb(82.352941%,6.27451%,20.392157%);fill-opacity:1;" d="M 225 172.042969 L 247.042969 141.703125 L 265.246094 154.929688 Z M 225 172.042969 "/>
<path style=" stroke:none;fill-rule:nonzero;fill:rgb(82.352941%,6.27451%,20.392157%);fill-opacity:1;" d="M 225 127.957031 L 247.042969 158.296875 L 265.246094 145.070312 Z M 225 127.957031 "/>
<path style=" stroke:none;fill-rule:nonzero;fill:rgb(82.352941%,6.27451%,20.392157%);fill-opacity:1;" d="M 225 127.957031 L 260.664062 139.546875 L 253.710938 160.945312 Z M 225 127.957031 "/>
</g>
</svg>
