<?xml version="1.0" encoding="UTF-8"?>
<svg xmlns="http://www.w3.org/2000/svg" xmlns:xlink="http://www.w3.org/1999/xlink" width="202pt" height="135pt" viewBox="0 0 202 135" version="1.1">
<g id="surface1">
<rect x="0" y="0" width="202" height="135" style="fill:rgb(0%,20%,60%);fill-opacity:1;stroke:none;"/>
<path style=" stroke:none;fill-rule:nonzero;fill:rgb(100%,80%,0%);fill-opacity:1;" d="M 101 15 L 98.6875 22.132812 L 102.246094 23.292969 Z M 101 15 "/>
<path style=" stroke:none;fill-rule:nonzero;fill:rgb(100%,80%,0%);fill-opacity:1;" d="M 101 15 L 103.3125 22.132812 L 99.753906 23.292969 Z M 101 15 "/>
<path style=" stroke:none;fill-rule:nonzero;fill:rgb(100%,80%,0%);fill-opacity:1;" d="M 108.117188 20.183594 L 100.632812 20.183594 L 100.632812 23.933594 Z M 108.117188 20.183594 "/>
<path style=" stroke:none;fill-rule:nonzero;fill:rgb(100%,80%,0%);fill-opacity:1;" d="M 108.117188 20.183594 L 102.0625 24.589844 L 99.863281 21.558594 Z M 108.117188 20.183594 "/>
<path style=" stroke:none;fill-rule:nonzero;fill:rgb(100%,80%,0%);fill-opacity:1;" d="M 105.398438 28.566406 L 103.085938 21.433594 L 99.527344 22.59375 Z M 105.398438 28.566406 "/>
<path style=" stroke:none;fill-rule:nonzero;fill:rgb(100%,80%,0%);fill-opacity:1;" d="M 105.398438 28.566406 L 99.34375 24.160156 L 101.542969 21.125 Z M 105.398438 28.566406 "/>
<path style=" stroke:none;fill-rule:nonzero;fill:rgb(100%,80%,0%);fill-opacity:1;" d="M 93.882812 20.183594 L 101.367188 20.183594 L 101.367188 23.933594 Z M 93.882812 20.183594 "/>
<path style=" stroke:none;fill-rule:nonzero;fill:rgb(100%,80%,0%);fill-opacity:1;" d="M 93.882812 20.183594 L 99.9375 24.589844 L 102.136719 21.558594 Z M 93.882812 20.183594 "/>
<path style=" stroke:none;fill-rule:nonzero;fill:rgb(100%,80%,0%);fill-opacity:1;" d="M 96.601562 28.566406 L 98.914062 21.433594 L 102.472656 22.59375 Z M 96.601562 28.566406 "/>
<path style=" stroke:none;fill-rule:nonzero;fill:rgb(100%,80%,0%);fill-opacity:1;" d="M 96.601562 28.566406 L 102.65625 24.160156 L 100.457031 21.125 Z M 96.601562 28.566406 "/>
<path style=" stroke:none;fill-rule:nonzero;fill:rgb(100%,80%,0%);fill-opacity:1;" d="M 101 105 L 98.6875 112.132812 L 102.246094 113.292969 Z M 101 105 "/>
<path style=" stroke:none;fill-rule:nonzero;fill:rgb(100%,80%,0%);fill-opacity:1;" d="M 101 105 L 103.3125 112.132812 L 99.753906 113.292969 Z M 101 105 "/>
<path style=" stroke:none;fill-rule:nonzero;fill:rgb(100%,80%,0%);fill-opacity:1;" d="M 108.117188 110.183594 L 100.632812 110.183594 L 100.632812 113.933594 Z M 108.117188 110.183594 "/>
<path style=" stroke:none;fill-rule:nonzero;fill:rgb(100%,80%,0%);fill-opacity:1;" d="M 108.117188 110.183594 L 102.0625 114.589844 L 99.863281 111.558594 Z M 108.117188 110.183594 "/>
<path style=" stroke:none;fill-rule:nonzero;fill:rgb(100%,80%,0%);fill-opacity:1;" d="M 105.398438 118.566406 L 103.085938 111.433594 L 99.527344 112.59375 Z M 105.398438 118.566406 "/>
<path style=" stroke:none;fill-rule:nonzero;fill:rgb(100%,80%,0%);fill-opacity:1;" d="M 105.398438 118.566406 L 99.34375 114.160156 L 101.542969 111.125 Z M 105.398438 118.566406 "/>
<path style=" stroke:none;fill-rule:nonzero;fill:rgb(100%,80%,0%);fill-opacity:1;" d="M 93.882812 110.183594 L 101.367188 110.183594 L 101.367188 113.933594 Z M 93.882812 110.183594 "/>
<path style=" stroke:none;fill-rule:nonzero;fill:rgb(100%,80%,0%);fill-opacity:1;" d="M 93.882812 110.183594 L 99.9375 114.589844 L 102.136719 111.558594 Z M 93.882812 110.183594 "/>
<path style=" stroke:none;fill-rule:nonzero;fill:rgb(100%,80%,0%);fill-opacity:1;" d="M 96.601562 118.566406 L 98.914062 111.433594 L 102.472656 112.59375 Z M 96.601562 118.566406 "/>
<path style=" stroke:none;fill-rule:nonzero;fill:rgb(100%,80%,0%);fill-opacity:1;" d="M 96.601562 118.566406 L 102.65625 114.160156 L 100.457031 111.125 Z M 96.601562 118.566406 "/>
<path style=" stroke:none;fill-rule:nonzero;fill:rgb(100%,80%,0%);fill-opacity:1;" d="M 56.109375 60 L 53.800781 67.132812 L 57.355469 68.292969 Z M 56.109375 60 "/>
<path style=" stroke:none;fill-rule:nonzero;fill:rgb(100%,80%,0%);fill-opacity:1;" d="M 56.109375 60 L 58.421875 67.132812 L 54.867188 68.292969 Z M 56.109375 60 "/>
<path style=" stroke:none;fill-rule:nonzero;fill:rgb(100%,80%,0%);fill-opacity:1;" d="M 63.226562 65.183594 L 55.746094 65.183594 L 55.746094 68.933594 Z M 63.226562 65.183594 "/>
<path style=" stroke:none;fill-rule:nonzero;fill:rgb(100%,80%,0%);fill-opacity:1;" d="M 63.226562 65.183594 L 57.171875 69.589844 L 54.976562 66.558594 Z M 63.226562 65.183594 "/>
<path style=" stroke:none;fill-rule:nonzero;fill:rgb(100%,80%,0%);fill-opacity:1;" d="M 60.507812 73.566406 L 58.195312 66.433594 L 54.640625 67.59375 Z M 60.507812 73.566406 "/>
<path style=" stroke:none;fill-rule:nonzero;fill:rgb(100%,80%,0%);fill-opacity:1;" d="M 60.507812 73.566406 L 54.457031 69.160156 L 56.65625 66.125 Z M 60.507812 73.566406 "/>
<path style=" stroke:none;fill-rule:nonzero;fill:rgb(100%,80%,0%);fill-opacity:1;" d="M 48.996094 65.183594 L 56.476562 65.183594 L 56.476562 68.933594 Z M 48.996094 65.183594 "/>
<path style=" stroke:none;fill-rule:nonzero;fill:rgb(100%,80%,0%);fill-opacity:1;" d="M 48.996094 65.183594 L 55.046875 69.589844 L 57.246094 66.558594 Z M 48.996094 65.183594 "/>
<path style=" stroke:none;fill-rule:nonzero;fill:rgb(100%,80%,0%);fill-opacity:1;" d="M 51.714844 73.566406 L 54.027344 66.433594 L 57.582031 67.59375 Z M 51.714844 73.566406 "/>
<path style=" stroke:none;fill-rule:nonzero;fill:rgb(100%,80%,0%);fill-opacity:1;" d="M 51.714844 73.566406 L 57.765625 69.160156 L 55.566406 66.125 Z M 51.714844 73.566406 "/>
<path style=" stroke:none;fill-rule:nonzero;fill:rgb(100%,80%,0%);fill-opacity:1;" d="M 74.15625 34.597656 L 80.210938 30.1875 L 78.011719 27.152344 Z M 74.15625 34.597656 "/>
<path style=" stroke:none;fill-rule:nonzero;fill:rgb(100%,80%,0%);fill-opacity:1;" d="M 74.15625 34.597656 L 76.46875 27.464844 L 80.027344 28.621094 Z M 74.15625 34.597656 "/>
<path style=" stroke:none;fill-rule:nonzero;fill:rgb(100%,80%,0%);fill-opacity:1;" d="M 71.441406 26.210938 L 77.492188 30.621094 L 79.691406 27.585938 Z M 71.441406 26.210938 "/>
<path style=" stroke:none;fill-rule:nonzero;fill:rgb(100%,80%,0%);fill-opacity:1;" d="M 71.441406 26.210938 L 78.921875 26.210938 L 78.921875 29.960938 Z M 71.441406 26.210938 "/>
<path style=" stroke:none;fill-rule:nonzero;fill:rgb(100%,80%,0%);fill-opacity:1;" d="M 78.554688 21.027344 L 76.242188 28.160156 L 79.800781 29.320312 Z M 78.554688 21.027344 "/>
<path style=" stroke:none;fill-rule:nonzero;fill:rgb(100%,80%,0%);fill-opacity:1;" d="M 78.554688 21.027344 L 80.867188 28.160156 L 77.308594 29.320312 Z M 78.554688 21.027344 "/>
<path style=" stroke:none;fill-rule:nonzero;fill:rgb(100%,80%,0%);fill-opacity:1;" d="M 82.953125 34.597656 L 76.902344 30.1875 L 79.097656 27.152344 Z M 82.953125 34.597656 "/>
<path style=" stroke:none;fill-rule:nonzero;fill:rgb(100%,80%,0%);fill-opacity:1;" d="M 82.953125 34.597656 L 80.640625 27.464844 L 77.082031 28.621094 Z M 82.953125 34.597656 "/>
<path style=" stroke:none;fill-rule:nonzero;fill:rgb(100%,80%,0%);fill-opacity:1;" d="M 85.671875 26.210938 L 79.617188 30.621094 L 77.417969 27.585938 Z M 85.671875 26.210938 "/>
<path style=" stroke:none;fill-rule:nonzero;fill:rgb(100%,80%,0%);fill-opacity:1;" d="M 85.671875 26.210938 L 78.1875 26.210938 L 78.1875 29.960938 Z M 85.671875 26.210938 "/>
<path style=" stroke:none;fill-rule:nonzero;fill:rgb(100%,80%,0%);fill-opacity:1;" d="M 66.523438 51.066406 L 64.210938 43.933594 L 60.652344 45.09375 Z M 66.523438 51.066406 "/>
<path style=" stroke:none;fill-rule:nonzero;fill:rgb(100%,80%,0%);fill-opacity:1;" d="M 66.523438 51.066406 L 60.46875 46.660156 L 62.667969 43.625 Z M 66.523438 51.066406 "/>
<path style=" stroke:none;fill-rule:nonzero;fill:rgb(100%,80%,0%);fill-opacity:1;" d="M 57.726562 51.066406 L 63.78125 46.660156 L 61.582031 43.625 Z M 57.726562 51.066406 "/>
<path style=" stroke:none;fill-rule:nonzero;fill:rgb(100%,80%,0%);fill-opacity:1;" d="M 57.726562 51.066406 L 60.039062 43.933594 L 63.597656 45.09375 Z M 57.726562 51.066406 "/>
<path style=" stroke:none;fill-rule:nonzero;fill:rgb(100%,80%,0%);fill-opacity:1;" d="M 55.011719 42.683594 L 61.0625 47.089844 L 63.261719 44.058594 Z M 55.011719 42.683594 "/>
<path style=" stroke:none;fill-rule:nonzero;fill:rgb(100%,80%,0%);fill-opacity:1;" d="M 55.011719 42.683594 L 62.492188 42.683594 L 62.492188 46.433594 Z M 55.011719 42.683594 "/>
<path style=" stroke:none;fill-rule:nonzero;fill:rgb(100%,80%,0%);fill-opacity:1;" d="M 69.242188 42.683594 L 63.1875 47.089844 L 60.988281 44.058594 Z M 69.242188 42.683594 "/>
<path style=" stroke:none;fill-rule:nonzero;fill:rgb(100%,80%,0%);fill-opacity:1;" d="M 69.242188 42.683594 L 61.757812 42.683594 L 61.757812 46.433594 Z M 69.242188 42.683594 "/>
<path style=" stroke:none;fill-rule:nonzero;fill:rgb(100%,80%,0%);fill-opacity:1;" d="M 62.125 37.5 L 64.4375 44.632812 L 60.878906 45.792969 Z M 62.125 37.5 "/>
<path style=" stroke:none;fill-rule:nonzero;fill:rgb(100%,80%,0%);fill-opacity:1;" d="M 62.125 37.5 L 59.8125 44.632812 L 63.371094 45.792969 Z M 62.125 37.5 "/>
<path style=" stroke:none;fill-rule:nonzero;fill:rgb(100%,80%,0%);fill-opacity:1;" d="M 69.242188 87.683594 L 61.757812 87.683594 L 61.757812 91.433594 Z M 69.242188 87.683594 "/>
<path style=" stroke:none;fill-rule:nonzero;fill:rgb(100%,80%,0%);fill-opacity:1;" d="M 69.242188 87.683594 L 63.1875 92.089844 L 60.988281 89.058594 Z M 69.242188 87.683594 "/>
<path style=" stroke:none;fill-rule:nonzero;fill:rgb(100%,80%,0%);fill-opacity:1;" d="M 66.523438 96.066406 L 64.210938 88.933594 L 60.652344 90.09375 Z M 66.523438 96.066406 "/>
<path style=" stroke:none;fill-rule:nonzero;fill:rgb(100%,80%,0%);fill-opacity:1;" d="M 66.523438 96.066406 L 60.46875 91.660156 L 62.667969 88.625 Z M 66.523438 96.066406 "/>
<path style=" stroke:none;fill-rule:nonzero;fill:rgb(100%,80%,0%);fill-opacity:1;" d="M 57.726562 96.066406 L 63.78125 91.660156 L 61.582031 88.625 Z M 57.726562 96.066406 "/>
<path style=" stroke:none;fill-rule:nonzero;fill:rgb(100%,80%,0%);fill-opacity:1;" d="M 57.726562 96.066406 L 60.039062 88.933594 L 63.597656 90.09375 Z M 57.726562 96.066406 "/>
<path style=" stroke:none;fill-rule:nonzero;fill:rgb(100%,80%,0%);fill-opacity:1;" d="M 62.125 82.5 L 64.4375 89.632812 L 60.878906 90.792969 Z M 62.125 82.5 "/>
<path style=" stroke:none;fill-rule:nonzero;fill:rgb(100%,80%,0%);fill-opacity:1;" d="M 62.125 82.5 L 59.8125 89.632812 L 63.371094 90.792969 Z M 62.125 82.5 "/>
<path style=" stroke:none;fill-rule:nonzero;fill:rgb(100%,80%,0%);fill-opacity:1;" d="M 55.011719 87.683594 L 62.492188 87.683594 L 62.492188 91.433594 Z M 55.011719 87.683594 "/>
<path style=" stroke:none;fill-rule:nonzero;fill:rgb(100%,80%,0%);fill-opacity:1;" d="M 55.011719 87.683594 L 61.0625 92.089844 L 63.261719 89.058594 Z M 55.011719 87.683594 "/>
<path style=" stroke:none;fill-rule:nonzero;fill:rgb(100%,80%,0%);fill-opacity:1;" d="M 85.671875 104.152344 L 78.1875 104.152344 L 78.1875 107.902344 Z M 85.671875 104.152344 "/>
<path style=" stroke:none;fill-rule:nonzero;fill:rgb(100%,80%,0%);fill-opacity:1;" d="M 85.671875 104.152344 L 79.617188 108.5625 L 77.417969 105.527344 Z M 85.671875 104.152344 "/>
<path style=" stroke:none;fill-rule:nonzero;fill:rgb(100%,80%,0%);fill-opacity:1;" d="M 82.953125 112.539062 L 80.640625 105.40625 L 77.082031 106.566406 Z M 82.953125 112.539062 "/>
<path style=" stroke:none;fill-rule:nonzero;fill:rgb(100%,80%,0%);fill-opacity:1;" d="M 82.953125 112.539062 L 76.902344 108.128906 L 79.097656 105.097656 Z M 82.953125 112.539062 "/>
<path style=" stroke:none;fill-rule:nonzero;fill:rgb(100%,80%,0%);fill-opacity:1;" d="M 74.15625 112.539062 L 80.210938 108.128906 L 78.011719 105.097656 Z M 74.15625 112.539062 "/>
<path style=" stroke:none;fill-rule:nonzero;fill:rgb(100%,80%,0%);fill-opacity:1;" d="M 74.15625 112.539062 L 76.46875 105.40625 L 80.027344 106.566406 Z M 74.15625 112.539062 "/>
<path style=" stroke:none;fill-rule:nonzero;fill:rgb(100%,80%,0%);fill-opacity:1;" d="M 78.554688 98.972656 L 80.867188 106.105469 L 77.308594 107.261719 Z M 78.554688 98.972656 "/>
<path style=" stroke:none;fill-rule:nonzero;fill:rgb(100%,80%,0%);fill-opacity:1;" d="M 78.554688 98.972656 L 76.242188 106.105469 L 79.800781 107.261719 Z M 78.554688 98.972656 "/>
<path style=" stroke:none;fill-rule:nonzero;fill:rgb(100%,80%,0%);fill-opacity:1;" d="M 71.441406 104.152344 L 78.921875 104.152344 L 78.921875 107.902344 Z M 71.441406 104.152344 "/>
<path style=" stroke:none;fill-rule:nonzero;fill:rgb(100%,80%,0%);fill-opacity:1;" d="M 71.441406 104.152344 L 77.492188 108.5625 L 79.691406 105.527344 Z M 71.441406 104.152344 "/>
<path style=" stroke:none;fill-rule:nonzero;fill:rgb(100%,80%,0%);fill-opacity:1;" d="M 145.890625 60 L 148.199219 67.132812 L 144.644531 68.292969 Z M 145.890625 60 "/>
<path style=" stroke:none;fill-rule:nonzero;fill:rgb(100%,80%,0%);fill-opacity:1;" d="M 145.890625 60 L 143.578125 67.132812 L 147.132812 68.292969 Z M 145.890625 60 "/>
<path style=" stroke:none;fill-rule:nonzero;fill:rgb(100%,80%,0%);fill-opacity:1;" d="M 138.773438 65.183594 L 146.253906 65.183594 L 146.253906 68.933594 Z M 138.773438 65.183594 "/>
<path style=" stroke:none;fill-rule:nonzero;fill:rgb(100%,80%,0%);fill-opacity:1;" d="M 138.773438 65.183594 L 144.828125 69.589844 L 147.023438 66.558594 Z M 138.773438 65.183594 "/>
<path style=" stroke:none;fill-rule:nonzero;fill:rgb(100%,80%,0%);fill-opacity:1;" d="M 141.492188 73.566406 L 143.804688 66.433594 L 147.359375 67.59375 Z M 141.492188 73.566406 "/>
<path style=" stroke:none;fill-rule:nonzero;fill:rgb(100%,80%,0%);fill-opacity:1;" d="M 141.492188 73.566406 L 147.542969 69.160156 L 145.34375 66.125 Z M 141.492188 73.566406 "/>
<path style=" stroke:none;fill-rule:nonzero;fill:rgb(100%,80%,0%);fill-opacity:1;" d="M 153.003906 65.183594 L 145.523438 65.183594 L 145.523438 68.933594 Z M 153.003906 65.183594 "/>
<path style=" stroke:none;fill-rule:nonzero;fill:rgb(100%,80%,0%);fill-opacity:1;" d="M 153.003906 65.183594 L 146.953125 69.589844 L 144.753906 66.558594 Z M 153.003906 65.183594 "/>
<path style=" stroke:none;fill-rule:nonzero;fill:rgb(100%,80%,0%);fill-opacity:1;" d="M 150.285156 73.566406 L 147.972656 66.433594 L 144.417969 67.59375 Z M 150.285156 73.566406 "/>
<path style=" stroke:none;fill-rule:nonzero;fill:rgb(100%,80%,0%);fill-opacity:1;" d="M 150.285156 73.566406 L 144.234375 69.160156 L 146.433594 66.125 Z M 150.285156 73.566406 "/>
<path style=" stroke:none;fill-rule:nonzero;fill:rgb(100%,80%,0%);fill-opacity:1;" d="M 127.84375 34.597656 L 121.789062 30.1875 L 123.988281 27.152344 Z M 127.84375 34.597656 "/>
<path style=" stroke:none;fill-rule:nonzero;fill:rgb(100%,80%,0%);fill-opacity:1;" d="M 127.84375 34.597656 L 125.53125 27.464844 L 121.972656 28.621094 Z M 127.84375 34.597656 "/>
<path style=" stroke:none;fill-rule:nonzero;fill:rgb(100%,80%,0%);fill-opacity:1;" d="M 130.558594 26.210938 L 124.507812 30.621094 L 122.308594 27.585938 Z M 130.558594 26.210938 "/>
<path style=" stroke:none;fill-rule:nonzero;fill:rgb(100%,80%,0%);fill-opacity:1;" d="M 130.558594 26.210938 L 123.078125 26.210938 L 123.078125 29.960938 Z M 130.558594 26.210938 "/>
<path style=" stroke:none;fill-rule:nonzero;fill:rgb(100%,80%,0%);fill-opacity:1;" d="M 123.445312 21.027344 L 125.757812 28.160156 L 122.199219 29.320312 Z M 123.445312 21.027344 "/>
<path style=" stroke:none;fill-rule:nonzero;fill:rgb(100%,80%,0%);fill-opacity:1;" d="M 123.445312 21.027344 L 121.132812 28.160156 L 124.691406 29.320312 Z M 123.445312 21.027344 "/>
<path style=" stroke:none;fill-rule:nonzero;fill:rgb(100%,80%,0%);fill-opacity:1;" d="M 119.046875 34.597656 L 125.097656 30.1875 L 122.902344 27.152344 Z M 119.046875 34.597656 "/>
<path style=" stroke:none;fill-rule:nonzero;fill:rgb(100%,80%,0%);fill-opacity:1;" d="M 119.046875 34.597656 L 121.359375 27.464844 L 124.917969 28.621094 Z M 119.046875 34.597656 "/>
<path style=" stroke:none;fill-rule:nonzero;fill:rgb(100%,80%,0%);fill-opacity:1;" d="M 116.328125 26.210938 L 122.382812 30.621094 L 124.582031 27.585938 Z M 116.328125 26.210938 "/>
<path style=" stroke:none;fill-rule:nonzero;fill:rgb(100%,80%,0%);fill-opacity:1;" d="M 116.328125 26.210938 L 123.8125 26.210938 L 123.8125 29.960938 Z M 116.328125 26.210938 "/>
<path style=" stroke:none;fill-rule:nonzero;fill:rgb(100%,80%,0%);fill-opacity:1;" d="M 135.476562 51.066406 L 137.789062 43.933594 L 141.347656 45.09375 Z M 135.476562 51.066406 "/>
<path style=" stroke:none;fill-rule:nonzero;fill:rgb(100%,80%,0%);fill-opacity:1;" d="M 135.476562 51.066406 L 141.53125 46.660156 L 139.332031 43.625 Z M 135.476562 51.066406 "/>
<path style=" stroke:none;fill-rule:nonzero;fill:rgb(100%,80%,0%);fill-opacity:1;" d="M 144.273438 51.066406 L 138.21875 46.660156 L 140.417969 43.625 Z M 144.273438 51.066406 "/>
<path style=" stroke:none;fill-rule:nonzero;fill:rgb(100%,80%,0%);fill-opacity:1;" d="M 144.273438 51.066406 L 141.960938 43.933594 L 138.402344 45.09375 Z M 144.273438 51.066406 "/>
<path style=" stroke:none;fill-rule:nonzero;fill:rgb(100%,80%,0%);fill-opacity:1;" d="M 146.988281 42.683594 L 140.9375 47.089844 L 138.738281 44.058594 Z M 146.988281 42.683594 "/>
<path style=" stroke:none;fill-rule:nonzero;fill:rgb(100%,80%,0%);fill-opacity:1;" d="M 146.988281 42.683594 L 139.507812 42.683594 L 139.507812 46.433594 Z M 146.988281 42.683594 "/>
<path style=" stroke:none;fill-rule:nonzero;fill:rgb(100%,80%,0%);fill-opacity:1;" d="M 132.757812 42.683594 L 138.8125 47.089844 L 141.011719 44.058594 Z M 132.757812 42.683594 "/>
<path style=" stroke:none;fill-rule:nonzero;fill:rgb(100%,80%,0%);fill-opacity:1;" d="M 132.757812 42.683594 L 140.242188 42.683594 L 140.242188 46.433594 Z M 132.757812 42.683594 "/>
<path style=" stroke:none;fill-rule:nonzero;fill:rgb(100%,80%,0%);fill-opacity:1;" d="M 139.875 37.5 L 137.5625 44.632812 L 141.121094 45.792969 Z M 139.875 37.5 "/>
<path style=" stroke:none;fill-rule:nonzero;fill:rgb(100%,80%,0%);fill-opacity:1;" d="M 139.875 37.5 L 142.1875 44.632812 L 138.628906 45.792969 Z M 139.875 37.5 "/>
<path style=" stroke:none;fill-rule:nonzero;fill:rgb(100%,80%,0%);fill-opacity:1;" d="M 132.757812 87.683594 L 140.242188 87.683594 L 140.242188 91.433594 Z M 132.757812 87.683594 "/>
<path style=" stroke:none;fill-rule:nonzero;fill:rgb(100%,80%,0%);fill-opacity:1;" d="M 132.757812 87.683594 L 138.8125 92.089844 L 141.011719 89.058594 Z M 132.757812 87.683594 "/>
<path style=" stroke:none;fill-rule:nonzero;fill:rgb(100%,80%,0%);fill-opacity:1;" d="M 135.476562 96.066406 L 137.789062 88.933594 L 141.347656 90.09375 Z M 135.476562 96.066406 "/>
<path style=" stroke:none;fill-rule:nonzero;fill:rgb(100%,80%,0%);fill-opacity:1;" d="M 135.476562 96.066406 L 141.53125 91.660156 L 139.332031 88.625 Z M 135.476562 96.066406 "/>
<path style=" stroke:none;fill-rule:nonzero;fill:rgb(100%,80%,0%);fill-opacity:1;" d="M 144.273438 96.066406 L 138.21875 91.660156 L 140.417969 88.625 Z M 144.273438 96.066406 "/>
<path style=" stroke:none;fill-rule:nonzero;fill:rgb(100%,80%,0%);fill-opacity:1;" d="M 144.273438 96.066406 L 141.960938 88.933594 L 138.402344 90.09375 Z M 144.273438 96.066406 "/>
<path style=" stroke:none;fill-rule:nonzero;fill:rgb(100%,80%,0%);fill-opacity:1;" d="M 139.875 82.5 L 137.5625 89.632812 L 141.121094 90.792969 Z M 139.875 82.5 "/>
<path style=" stroke:none;fill-rule:nonzero;fill:rgb(100%,80%,0%);fill-opacity:1;" d="M 139.875 82.5 L 142.1875 89.632812 L 138.628906 90.792969 Z M 139.875 82.5 "/>
<path style=" stroke:none;fill-rule:nonzero;fill:rgb(100%,80%,0%);fill-opacity:1;" d="M 146.988281 87.683594 L 139.507812 87.683594 L 139.507812 91.433594 Z M 146.988281 87.683594 "/>
<path style=" stroke:none;fill-rule:nonzero;fill:rgb(100%,80%,0%);fill-opacity:1;" d="M 146.988281 87.683594 L 140.9375 92.089844 L 138.738281 89.058594 Z M 146.988281 87.683594 "/>
<path style=" stroke:none;fill-rule:nonzero;fill:rgb(100%,80%,0%);fill-opacity:1;" d="M 116.328125 104.152344 L 123.8125 104.152344 L 123.8125 107.902344 Z M 116.328125 104.152344 "/>
<path style=" stroke:none;fill-rule:nonzero;fill:rgb(100%,80%,0%);fill-opacity:1;" d="M 116.328125 104.152344 L 122.382812 108.5625 L 124.582031 105.527344 Z M 116.328125 104.152344 "/>
<path style=" stroke:none;fill-rule:nonzero;fill:rgb(100%,80%,0%);fill-opacity:1;" d="M 119.046875 112.539062 L 121.359375 105.40625 L 124.917969 106.566406 Z M 119.046875 112.539062 "/>
<path style=" stroke:none;fill-rule:nonzero;fill:rgb(100%,80%,0%);fill-opacity:1;" d="M 119.046875 112.539062 L 125.097656 108.128906 L 122.902344 105.097656 Z M 119.046875 112.539062 "/>
<path style=" stroke:none;fill-rule:nonzero;fill:rgb(100%,80%,0%);fill-opacity:1;" d="M 127.84375 112.539062 L 121.789062 108.128906 L 123.988281 105.097656 Z M 127.84375 112.539062 "/>
<path style=" stroke:none;fill-rule:nonzero;fill:rgb(100%,80%,0%);fill-opacity:1;" d="M 127.84375 112.539062 L 125.53125 105.40625 L 121.972656 106.566406 Z M 127.84375 112.539062 "/>
<path style=" stroke:none;fill-rule:nonzero;fill:rgb(100%,80%,0%);fill-opacity:1;" d="M 123.445312 98.972656 L 121.132812 106.105469 L 124.691406 107.261719 Z M 123.445312 98.972656 "/>
<path style=" stroke:none;fill-rule:nonzero;fill:rgb(100%,80%,0%);fill-opacity:1;" d="M 123.445312 98.972656 L 125.757812 106.105469 L 122.199219 107.261719 Z M 123.445312 98.972656 "/>
<path style=" stroke:none;fill-rule:nonzero;fill:rgb(100%,80%,0%);fill-opacity:1;" d="M 130.558594 104.152344 L 123.078125 104.152344 L 123.078125 107.902344 Z M 130.558594 104.152344 "/>
<path style=" stroke:none;fill-rule:nonzero;fill:rgb(100%,80%,0%);fill-opacity:1;" d="M 130.558594 104.152344 L 124.507812 108.5625 L 122.308594 105.527344 Z M 130.558594 104.152344 "/>
</g>
</svg>
