<?xml version="1.0" encoding="UTF-8"?>
<svg xmlns="http://www.w3.org/2000/svg" xmlns:xlink="http://www.w3.org/1999/xlink" width="506pt" height="338pt" viewBox="0 0 506 338" version="1.1">
<g id="surface1">
<path style=" stroke:none;fill-rule:nonzero;fill:rgb(87.058824%,16.078431%,6.27451%);fill-opacity:1;" d="M 0 0 L 505.851562 0 L 505.851562 337.699219 L 0 337.699219 Z M 0 0 "/>
<path style=" stroke:none;fill-rule:nonzero;fill:rgb(100%,100%,100%);fill-opacity:1;" d="M 252.90625 168.800781 C 193.742188 143.761719 219.96875 66.601562 276.550781 70.480469 C 265.101562 76.371094 263.441406 87.363281 269.984375 97.546875 C 277.300781 108.945312 269.304688 127.292969 259.414062 131.746094 C 243.148438 139.078125 239.890625 158.621094 252.90625 168.800781 Z M 252.90625 168.800781 "/>
<path style=" stroke:none;fill-rule:nonzero;fill:rgb(87.058824%,16.078431%,6.27451%);fill-opacity:1;" d="M 249.703125 113.085938 L 246.378906 118.316406 L 245.171875 112.230469 L 239.171875 110.675781 L 244.582031 107.640625 L 244.203125 101.449219 L 248.746094 105.667969 L 254.511719 103.390625 L 251.921875 109.027344 L 255.855469 113.8125 Z M 249.703125 113.085938 "/>
<path style=" stroke:none;fill-rule:nonzero;fill:rgb(87.058824%,16.078431%,6.27451%);fill-opacity:1;" d="M 253.242188 168.152344 C 246.082031 164.472656 240.3125 156.808594 237.800781 147.648438 C 234.925781 137.136719 236.578125 125.839844 242.34375 116.671875 L 241.105469 115.886719 C 235.125 125.410156 233.410156 137.128906 236.390625 148.035156 C 239.046875 157.726562 244.941406 165.539062 252.570312 169.457031 Z M 253.242188 168.152344 "/>
<path style=" stroke:none;fill-rule:nonzero;fill:rgb(100%,100%,100%);fill-opacity:1;" d="M 252.964844 168.816406 C 258.464844 104.734375 339.851562 105.867188 353.652344 160.953125 C 344.519531 151.871094 333.566406 153.6875 325.917969 163.058594 C 317.351562 173.554688 297.457031 171.609375 290.167969 163.5625 C 278.179688 150.339844 258.609375 153.277344 252.964844 168.816406 Z M 252.964844 168.816406 "/>
<path style=" stroke:none;fill-rule:nonzero;fill:rgb(87.058824%,16.078431%,6.27451%);fill-opacity:1;" d="M 304.890625 148.550781 L 298.898438 147 L 304.304688 143.972656 L 303.925781 137.773438 L 308.476562 141.988281 L 314.242188 139.71875 L 311.640625 145.347656 L 315.585938 150.132812 L 309.433594 149.40625 L 306.105469 154.632812 Z M 304.890625 148.550781 "/>
<path style=" stroke:none;fill-rule:nonzero;fill:rgb(87.058824%,16.078431%,6.27451%);fill-opacity:1;" d="M 253.6875 168.933594 C 254.96875 160.980469 260.464844 153.121094 268.390625 147.894531 C 277.480469 141.910156 288.722656 139.992188 299.210938 142.648438 L 299.574219 141.222656 C 288.675781 138.472656 277.019531 140.460938 267.585938 146.671875 C 259.203125 152.195312 253.605469 160.222656 252.238281 168.699219 Z M 253.6875 168.933594 "/>
<path style=" stroke:none;fill-rule:nonzero;fill:rgb(100%,100%,100%);fill-opacity:1;" d="M 252.96875 168.875 C 315.53125 154.308594 339.605469 232.171875 291.550781 262.339844 C 297.355469 250.835938 292.246094 240.964844 280.976562 236.574219 C 268.363281 231.660156 264.0625 212.113281 269.457031 202.683594 C 278.308594 187.179688 269.46875 169.453125 252.96875 168.875 Z M 252.96875 168.875 "/>
<path style=" stroke:none;fill-rule:nonzero;fill:rgb(87.058824%,16.078431%,6.27451%);fill-opacity:1;" d="M 288.261719 212.070312 L 287.882812 205.878906 L 292.433594 210.09375 L 298.199219 207.816406 L 295.601562 213.457031 L 299.542969 218.246094 L 293.390625 217.507812 L 290.066406 222.742188 L 288.851562 216.660156 L 282.859375 215.101562 Z M 288.261719 212.070312 "/>
<path style=" stroke:none;fill-rule:nonzero;fill:rgb(87.058824%,16.078431%,6.27451%);fill-opacity:1;" d="M 253.082031 169.601562 C 261.027344 168.363281 270.195312 171.167969 277.605469 177.101562 C 286.101562 183.910156 291.394531 194.023438 292.113281 204.835938 L 293.578125 204.742188 C 292.820312 193.511719 287.335938 183.027344 278.523438 175.957031 C 270.683594 169.679688 261.328125 166.832031 252.855469 168.148438 Z M 253.082031 169.601562 "/>
<path style=" stroke:none;fill-rule:nonzero;fill:rgb(100%,100%,100%);fill-opacity:1;" d="M 252.914062 168.902344 C 286.082031 223.980469 219.570312 270.96875 176.070312 234.527344 C 188.789062 236.5 196.585938 228.582031 197.273438 216.496094 C 198.042969 202.960938 215.277344 192.828125 225.898438 195.046875 C 243.359375 198.6875 257.464844 184.792969 252.914062 168.902344 Z M 252.914062 168.902344 "/>
<path style=" stroke:none;fill-rule:nonzero;fill:rgb(87.058824%,16.078431%,6.27451%);fill-opacity:1;" d="M 222.796875 215.859375 L 228.558594 213.585938 L 225.960938 219.21875 L 229.902344 224.011719 L 223.746094 223.28125 L 220.417969 228.511719 L 219.214844 222.425781 L 213.21875 220.875 L 218.621094 217.839844 L 218.246094 211.652344 Z M 222.796875 215.859375 "/>
<path style=" stroke:none;fill-rule:nonzero;fill:rgb(87.058824%,16.078431%,6.27451%);fill-opacity:1;" d="M 252.261719 169.230469 C 255.890625 176.414062 256.058594 186.011719 252.714844 194.90625 C 248.875 205.101562 240.902344 213.265625 230.855469 217.292969 L 231.398438 218.65625 C 241.832031 214.46875 250.09375 206.003906 254.085938 195.421875 C 257.625 186.015625 257.4375 176.230469 253.570312 168.570312 Z M 252.261719 169.230469 "/>
<path style=" stroke:none;fill-rule:nonzero;fill:rgb(100%,100%,100%);fill-opacity:1;" d="M 252.871094 168.851562 C 210.808594 217.460938 145.632812 168.640625 166.796875 115.953125 C 168.855469 128.675781 178.785156 133.648438 190.476562 130.570312 C 203.566406 127.125 218.515625 140.40625 219.695312 151.207031 C 221.628906 168.960938 239.183594 178.101562 252.871094 168.851562 Z M 252.871094 168.851562 "/>
<path style=" stroke:none;fill-rule:nonzero;fill:rgb(87.058824%,16.078431%,6.27451%);fill-opacity:1;" d="M 198.96875 154.683594 L 202.90625 159.46875 L 196.753906 158.738281 L 193.421875 163.972656 L 192.214844 157.882812 L 186.21875 156.328125 L 191.625 153.304688 L 191.246094 147.109375 L 195.796875 151.320312 L 201.558594 149.050781 Z M 198.96875 154.683594 "/>
<path style=" stroke:none;fill-rule:nonzero;fill:rgb(87.058824%,16.078431%,6.27451%);fill-opacity:1;" d="M 252.359375 168.332031 C 246.65625 174.011719 237.589844 177.136719 228.113281 176.699219 C 217.246094 176.191406 207.027344 171.125 200.097656 162.800781 L 198.96875 163.742188 C 206.167969 172.382812 216.765625 177.636719 228.046875 178.164062 C 238.070312 178.628906 247.308594 175.429688 253.394531 169.375 Z M 252.359375 168.332031 "/>
</g>
</svg>
