<?xml version="1.0" encoding="UTF-8"?>
<svg xmlns="http://www.w3.org/2000/svg" xmlns:xlink="http://www.w3.org/1999/xlink" width="188pt" height="113pt" viewBox="0 0 188 113" version="1.1">
<defs>
<clipPath id="clip1">
  <path d="M 76 41 L 113 41 L 113 71 L 76 71 Z M 76 41 "/>
</clipPath>
<clipPath id="clip2">
  <path d="M 112.800781 56.5 C 112.800781 66.902344 104.382812 75.332031 94 75.332031 C 83.617188 75.332031 75.199219 66.902344 75.199219 56.5 C 75.199219 46.097656 83.617188 37.667969 94 37.667969 C 104.382812 37.667969 112.800781 46.097656 112.800781 56.5 Z M 112.800781 56.5 "/>
</clipPath>
<clipPath id="clip3">
  <path d="M 80 43 L 113 43 L 113 71 L 80 71 Z M 80 43 "/>
</clipPath>
<clipPath id="clip4">
  <path d="M 112.800781 56.5 C 112.800781 66.902344 104.382812 75.332031 94 75.332031 C 83.617188 75.332031 75.199219 66.902344 75.199219 56.5 C 75.199219 46.097656 83.617188 37.667969 94 37.667969 C 104.382812 37.667969 112.800781 46.097656 112.800781 56.5 Z M 112.800781 56.5 "/>
</clipPath>
<clipPath id="clip5">
  <path d="M 84 45 L 111 45 L 111 76 L 84 76 Z M 84 45 "/>
</clipPath>
<clipPath id="clip6">
  <path d="M 112.800781 56.5 C 112.800781 66.902344 104.382812 75.332031 94 75.332031 C 83.617188 75.332031 75.199219 66.902344 75.199219 56.5 C 75.199219 46.097656 83.617188 37.667969 94 37.667969 C 104.382812 37.667969 112.800781 46.097656 112.800781 56.5 Z M 112.800781 56.5 "/>
</clipPath>
<clipPath id="clip7">
  <path d="M 75 41 L 112 41 L 112 71 L 75 71 Z M 75 41 "/>
</clipPath>
<clipPath id="clip8">
  <path d="M 75.199219 56.5 C 75.199219 66.902344 83.617188 75.332031 94 75.332031 C 104.382812 75.332031 112.800781 66.902344 112.800781 56.5 C 112.800781 46.097656 104.382812 37.667969 94 37.667969 C 83.617188 37.667969 75.199219 46.097656 75.199219 56.5 Z M 75.199219 56.5 "/>
</clipPath>
<clipPath id="clip9">
  <path d="M 75 43 L 108 43 L 108 71 L 75 71 Z M 75 43 "/>
</clipPath>
<clipPath id="clip10">
  <path d="M 75.199219 56.5 C 75.199219 66.902344 83.617188 75.332031 94 75.332031 C 104.382812 75.332031 112.800781 66.902344 112.800781 56.5 C 112.800781 46.097656 104.382812 37.667969 94 37.667969 C 83.617188 37.667969 75.199219 46.097656 75.199219 56.5 Z M 75.199219 56.5 "/>
</clipPath>
<clipPath id="clip11">
  <path d="M 77 45 L 104 45 L 104 76 L 77 76 Z M 77 45 "/>
</clipPath>
<clipPath id="clip12">
  <path d="M 75.199219 56.5 C 75.199219 66.902344 83.617188 75.332031 94 75.332031 C 104.382812 75.332031 112.800781 66.902344 112.800781 56.5 C 112.800781 46.097656 104.382812 37.667969 94 37.667969 C 83.617188 37.667969 75.199219 46.097656 75.199219 56.5 Z M 75.199219 56.5 "/>
</clipPath>
</defs>
<g id="surface1">
<rect x="0" y="0" width="188" height="113" style="fill:rgb(90.980392%,6.666667%,17.647059%);fill-opacity:1;stroke:none;"/>
<path style=" stroke:none;fill-rule:nonzero;fill:rgb(100%,93.72549%,0%);fill-opacity:1;" d="M 92.421875 76.839844 C 94 80.984375 90.617188 87.386719 94 90.398438 C 92.871094 85.878906 96.632812 80.984375 95.578125 76.839844 C 94.527344 72.695312 90.839844 72.695312 92.421875 76.839844 Z M 92.421875 76.839844 "/>
<path style=" stroke:none;fill-rule:nonzero;fill:rgb(100%,93.72549%,0%);fill-opacity:1;" d="M 73.695312 54.917969 C 69.558594 56.5 63.167969 53.109375 60.160156 56.5 C 64.671875 55.371094 69.558594 59.136719 73.695312 58.082031 C 77.832031 57.027344 77.832031 53.335938 73.695312 54.917969 Z M 73.695312 54.917969 "/>
<path style=" stroke:none;fill-rule:nonzero;fill:rgb(100%,93.72549%,0%);fill-opacity:1;" d="M 95.578125 36.160156 C 94 32.015625 97.382812 25.613281 94 22.601562 C 95.128906 27.121094 91.367188 32.015625 92.421875 36.160156 C 93.472656 40.304688 97.160156 40.304688 95.578125 36.160156 Z M 95.578125 36.160156 "/>
<path style=" stroke:none;fill-rule:nonzero;fill:rgb(100%,93.72549%,0%);fill-opacity:1;" d="M 114.304688 58.082031 C 118.441406 56.5 124.832031 59.890625 127.839844 56.5 C 123.328125 57.628906 118.441406 53.863281 114.304688 54.917969 C 110.167969 55.972656 110.167969 59.664062 114.304688 58.082031 Z M 114.304688 58.082031 "/>
<path style=" stroke:none;fill-rule:nonzero;fill:rgb(100%,93.72549%,0%);fill-opacity:1;" d="M 86.222656 75.355469 C 86.449219 79.785156 81.253906 84.828125 83.542969 88.742188 C 83.863281 84.09375 88.949219 80.601562 89.226562 76.332031 C 89.503906 72.066406 86 70.925781 86.222656 75.355469 Z M 86.222656 75.355469 "/>
<path style=" stroke:none;fill-rule:nonzero;fill:rgb(100%,93.72549%,0%);fill-opacity:1;" d="M 75.179688 48.710938 C 70.757812 48.933594 65.722656 43.730469 61.816406 46.023438 C 66.457031 46.347656 69.941406 51.441406 74.203125 51.71875 C 78.460938 51.996094 79.597656 48.484375 75.179688 48.710938 Z M 75.179688 48.710938 "/>
<path style=" stroke:none;fill-rule:nonzero;fill:rgb(100%,93.72549%,0%);fill-opacity:1;" d="M 101.777344 37.644531 C 101.550781 33.214844 106.746094 28.171875 104.457031 24.257812 C 104.136719 28.90625 99.050781 32.398438 98.773438 36.667969 C 98.496094 40.933594 102 42.074219 101.777344 37.644531 Z M 101.777344 37.644531 "/>
<path style=" stroke:none;fill-rule:nonzero;fill:rgb(100%,93.72549%,0%);fill-opacity:1;" d="M 112.820312 64.289062 C 117.242188 64.066406 122.277344 69.269531 126.183594 66.976562 C 121.542969 66.652344 118.058594 61.558594 113.796875 61.28125 C 109.539062 61.003906 108.402344 64.515625 112.820312 64.289062 Z M 112.820312 64.289062 "/>
<path style=" stroke:none;fill-rule:nonzero;fill:rgb(100%,93.72549%,0%);fill-opacity:1;" d="M 80.789062 72.027344 C 79.632812 76.308594 73.140625 79.496094 74.109375 83.925781 C 75.847656 79.605469 81.765625 77.855469 83.34375 73.886719 C 84.921875 69.914062 81.941406 67.742188 80.789062 72.027344 Z M 80.789062 72.027344 "/>
<path style=" stroke:none;fill-rule:nonzero;fill:rgb(100%,93.72549%,0%);fill-opacity:1;" d="M 78.5 43.265625 C 74.226562 42.109375 71.046875 35.601562 66.621094 36.574219 C 70.9375 38.316406 72.679688 44.242188 76.644531 45.824219 C 80.609375 47.40625 82.777344 44.421875 78.5 43.265625 Z M 78.5 43.265625 "/>
<path style=" stroke:none;fill-rule:nonzero;fill:rgb(100%,93.72549%,0%);fill-opacity:1;" d="M 107.210938 40.972656 C 108.367188 36.691406 114.859375 33.503906 113.890625 29.074219 C 112.152344 33.394531 106.234375 35.144531 104.65625 39.113281 C 103.078125 43.085938 106.058594 45.257812 107.210938 40.972656 Z M 107.210938 40.972656 "/>
<path style=" stroke:none;fill-rule:nonzero;fill:rgb(100%,93.72549%,0%);fill-opacity:1;" d="M 109.5 69.734375 C 113.773438 70.890625 116.953125 77.398438 121.378906 76.425781 C 117.0625 74.683594 115.320312 68.757812 111.355469 67.175781 C 107.390625 65.59375 105.222656 68.578125 109.5 69.734375 Z M 109.5 69.734375 "/>
<path style=" stroke:none;fill-rule:nonzero;fill:rgb(100%,93.72549%,0%);fill-opacity:1;" d="M 76.644531 67.175781 C 74.226562 70.890625 67.066406 71.914062 66.621094 76.425781 C 69.609375 72.855469 75.773438 73.023438 78.5 69.734375 C 81.230469 66.445312 79.0625 63.460938 76.644531 67.175781 Z M 76.644531 67.175781 "/>
<path style=" stroke:none;fill-rule:nonzero;fill:rgb(100%,93.72549%,0%);fill-opacity:1;" d="M 83.34375 39.113281 C 79.632812 36.691406 78.613281 29.519531 74.109375 29.074219 C 77.675781 32.066406 77.503906 38.242188 80.789062 40.972656 C 84.070312 43.707031 87.050781 41.535156 83.34375 39.113281 Z M 83.34375 39.113281 "/>
<path style=" stroke:none;fill-rule:nonzero;fill:rgb(100%,93.72549%,0%);fill-opacity:1;" d="M 111.355469 45.824219 C 113.773438 42.109375 120.933594 41.085938 121.378906 36.574219 C 118.390625 40.144531 112.226562 39.976562 109.5 43.265625 C 106.769531 46.554688 108.9375 49.539062 111.355469 45.824219 Z M 111.355469 45.824219 "/>
<path style=" stroke:none;fill-rule:nonzero;fill:rgb(100%,93.72549%,0%);fill-opacity:1;" d="M 104.65625 73.886719 C 108.367188 76.308594 109.386719 83.480469 113.890625 83.925781 C 110.324219 80.933594 110.496094 74.757812 107.210938 72.027344 C 103.929688 69.292969 100.949219 71.464844 104.65625 73.886719 Z M 104.65625 73.886719 "/>
<path style=" stroke:none;fill-rule:nonzero;fill:rgb(100%,93.72549%,0%);fill-opacity:1;" d="M 74.203125 61.28125 C 70.757812 64.066406 63.632812 62.820312 61.816406 66.976562 C 65.757812 64.503906 71.570312 66.574219 75.179688 64.289062 C 78.785156 62.007812 77.648438 58.496094 74.203125 61.28125 Z M 74.203125 61.28125 "/>
<path style=" stroke:none;fill-rule:nonzero;fill:rgb(100%,93.72549%,0%);fill-opacity:1;" d="M 89.226562 36.667969 C 86.449219 33.214844 87.691406 26.078125 83.542969 24.257812 C 86.011719 28.207031 83.945312 34.03125 86.222656 37.644531 C 88.503906 41.257812 92.007812 40.117188 89.226562 36.667969 Z M 89.226562 36.667969 "/>
<path style=" stroke:none;fill-rule:nonzero;fill:rgb(100%,93.72549%,0%);fill-opacity:1;" d="M 113.796875 51.71875 C 117.242188 48.933594 124.367188 50.179688 126.183594 46.023438 C 122.242188 48.496094 116.429688 46.425781 112.820312 48.710938 C 109.214844 50.992188 110.351562 54.503906 113.796875 51.71875 Z M 113.796875 51.71875 "/>
<path style=" stroke:none;fill-rule:nonzero;fill:rgb(100%,93.72549%,0%);fill-opacity:1;" d="M 98.773438 76.332031 C 101.550781 79.785156 100.308594 86.921875 104.457031 88.742188 C 101.988281 84.792969 104.054688 78.96875 101.777344 75.355469 C 99.496094 71.742188 95.992188 72.882812 98.773438 76.332031 Z M 98.773438 76.332031 "/>
<path style=" stroke:none;fill-rule:nonzero;fill:rgb(100%,93.72549%,0%);fill-opacity:1;" d="M 89.265625 76.34375 C 90.175781 80.683594 85.835938 86.476562 88.707031 89.984375 C 88.296875 85.339844 92.777344 81.09375 92.382812 76.835938 C 91.992188 72.578125 88.351562 72.003906 89.265625 76.34375 Z M 89.265625 76.34375 "/>
<path style=" stroke:none;fill-rule:nonzero;fill:rgb(100%,93.72549%,0%);fill-opacity:1;" d="M 74.191406 51.753906 C 69.859375 52.671875 64.078125 48.320312 60.578125 51.195312 C 65.210938 50.789062 69.449219 55.273438 73.699219 54.878906 C 77.949219 54.488281 78.523438 50.839844 74.191406 51.753906 Z M 74.191406 51.753906 "/>
<path style=" stroke:none;fill-rule:nonzero;fill:rgb(100%,93.72549%,0%);fill-opacity:1;" d="M 98.734375 36.65625 C 97.824219 32.316406 102.164062 26.523438 99.292969 23.015625 C 99.703125 27.660156 95.222656 31.90625 95.617188 36.164062 C 96.007812 40.421875 99.648438 40.996094 98.734375 36.65625 Z M 98.734375 36.65625 "/>
<path style=" stroke:none;fill-rule:nonzero;fill:rgb(100%,93.72549%,0%);fill-opacity:1;" d="M 113.808594 61.246094 C 118.140625 60.328125 123.921875 64.679688 127.421875 61.804688 C 122.789062 62.210938 118.550781 57.726562 114.300781 58.121094 C 110.050781 58.511719 109.476562 62.160156 113.808594 61.246094 Z M 113.808594 61.246094 "/>
<path style=" stroke:none;fill-rule:nonzero;fill:rgb(100%,93.72549%,0%);fill-opacity:1;" d="M 83.375 73.90625 C 82.90625 78.316406 76.988281 82.480469 78.636719 86.707031 C 79.679688 82.164062 85.25 79.511719 86.1875 75.339844 C 87.128906 71.171875 83.847656 69.496094 83.375 73.90625 Z M 83.375 73.90625 "/>
<path style=" stroke:none;fill-rule:nonzero;fill:rgb(100%,93.72549%,0%);fill-opacity:1;" d="M 76.625 45.855469 C 72.222656 45.386719 68.066406 39.457031 63.847656 41.109375 C 68.378906 42.15625 71.027344 47.734375 75.191406 48.675781 C 79.355469 49.617188 81.027344 46.328125 76.625 45.855469 Z M 76.625 45.855469 "/>
<path style=" stroke:none;fill-rule:nonzero;fill:rgb(100%,93.72549%,0%);fill-opacity:1;" d="M 104.625 39.09375 C 105.09375 34.683594 111.011719 30.519531 109.363281 26.292969 C 108.320312 30.835938 102.75 33.488281 101.8125 37.660156 C 100.871094 41.828125 104.152344 43.503906 104.625 39.09375 Z M 104.625 39.09375 "/>
<path style=" stroke:none;fill-rule:nonzero;fill:rgb(100%,93.72549%,0%);fill-opacity:1;" d="M 111.375 67.144531 C 115.777344 67.613281 119.933594 73.542969 124.152344 71.890625 C 119.621094 70.84375 116.972656 65.265625 112.808594 64.324219 C 108.644531 63.382812 106.972656 66.671875 111.375 67.144531 Z M 111.375 67.144531 "/>
<path style=" stroke:none;fill-rule:nonzero;fill:rgb(100%,93.72549%,0%);fill-opacity:1;" d="M 78.527344 69.765625 C 76.71875 73.8125 69.804688 75.941406 70.070312 80.472656 C 72.464844 76.476562 78.578125 75.675781 80.757812 72 C 82.941406 68.324219 80.335938 65.714844 78.527344 69.765625 Z M 78.527344 69.765625 "/>
<path style=" stroke:none;fill-rule:nonzero;fill:rgb(100%,93.72549%,0%);fill-opacity:1;" d="M 80.757812 41 C 76.71875 39.1875 74.589844 32.261719 70.070312 32.527344 C 74.058594 34.925781 74.855469 41.050781 78.527344 43.234375 C 82.195312 45.421875 84.800781 42.808594 80.757812 41 Z M 80.757812 41 "/>
<path style=" stroke:none;fill-rule:nonzero;fill:rgb(100%,93.72549%,0%);fill-opacity:1;" d="M 109.472656 43.234375 C 111.28125 39.1875 118.195312 37.058594 117.929688 32.527344 C 115.535156 36.523438 109.421875 37.324219 107.242188 41 C 105.058594 44.675781 107.664062 47.285156 109.472656 43.234375 Z M 109.472656 43.234375 "/>
<path style=" stroke:none;fill-rule:nonzero;fill:rgb(100%,93.72549%,0%);fill-opacity:1;" d="M 107.242188 72 C 111.28125 73.8125 113.410156 80.738281 117.929688 80.472656 C 113.941406 78.074219 113.144531 71.949219 109.472656 69.765625 C 105.804688 67.578125 103.199219 70.191406 107.242188 72 Z M 107.242188 72 "/>
<path style=" stroke:none;fill-rule:nonzero;fill:rgb(100%,93.72549%,0%);fill-opacity:1;" d="M 75.191406 64.324219 C 72.222656 67.613281 64.992188 67.5 63.847656 71.890625 C 67.355469 68.832031 73.417969 69.964844 76.625 67.144531 C 79.832031 64.324219 78.160156 61.035156 75.191406 64.324219 Z M 75.191406 64.324219 "/>
<path style=" stroke:none;fill-rule:nonzero;fill:rgb(100%,93.72549%,0%);fill-opacity:1;" d="M 86.1875 37.660156 C 82.90625 34.683594 83.019531 27.441406 78.636719 26.292969 C 81.691406 29.808594 80.558594 35.882812 83.375 39.09375 C 86.191406 42.308594 89.472656 40.632812 86.1875 37.660156 Z M 86.1875 37.660156 "/>
<path style=" stroke:none;fill-rule:nonzero;fill:rgb(100%,93.72549%,0%);fill-opacity:1;" d="M 112.808594 48.675781 C 115.777344 45.386719 123.007812 45.5 124.152344 41.109375 C 120.644531 44.167969 114.582031 43.035156 111.375 45.855469 C 108.167969 48.675781 109.839844 51.964844 112.808594 48.675781 Z M 112.808594 48.675781 "/>
<path style=" stroke:none;fill-rule:nonzero;fill:rgb(100%,93.72549%,0%);fill-opacity:1;" d="M 101.8125 75.339844 C 105.09375 78.316406 104.980469 85.558594 109.363281 86.707031 C 106.308594 83.191406 107.441406 77.117188 104.625 73.90625 C 101.808594 70.691406 98.527344 72.367188 101.8125 75.339844 Z M 101.8125 75.339844 "/>
<path style=" stroke:none;fill-rule:nonzero;fill:rgb(100%,93.72549%,0%);fill-opacity:1;" d="M 73.699219 58.121094 C 69.859375 60.328125 63.019531 57.984375 60.578125 61.804688 C 64.855469 59.980469 70.273438 62.933594 74.191406 61.246094 C 78.113281 59.554688 77.535156 55.910156 73.699219 58.121094 Z M 73.699219 58.121094 "/>
<path style=" stroke:none;fill-rule:nonzero;fill:rgb(100%,93.72549%,0%);fill-opacity:1;" d="M 92.382812 36.164062 C 90.175781 32.316406 92.519531 25.464844 88.707031 23.015625 C 90.527344 27.304688 87.578125 32.730469 89.265625 36.65625 C 90.949219 40.585938 94.589844 40.007812 92.382812 36.164062 Z M 92.382812 36.164062 "/>
<path style=" stroke:none;fill-rule:nonzero;fill:rgb(100%,93.72549%,0%);fill-opacity:1;" d="M 114.300781 54.878906 C 118.140625 52.671875 124.980469 55.015625 127.421875 51.195312 C 123.144531 53.019531 117.726562 50.066406 113.808594 51.753906 C 109.886719 53.445312 110.464844 57.089844 114.300781 54.878906 Z M 114.300781 54.878906 "/>
<path style=" stroke:none;fill-rule:nonzero;fill:rgb(100%,93.72549%,0%);fill-opacity:1;" d="M 95.617188 76.835938 C 97.824219 80.683594 95.480469 87.535156 99.292969 89.984375 C 97.472656 85.695312 100.421875 80.269531 98.734375 76.34375 C 97.050781 72.414062 93.410156 72.992188 95.617188 76.835938 Z M 95.617188 76.835938 "/>
<path style=" stroke:none;fill-rule:nonzero;fill:rgb(90.980392%,6.666667%,17.647059%);fill-opacity:1;" d="M 114.304688 56.5 C 114.304688 67.734375 105.214844 76.839844 94 76.839844 C 82.785156 76.839844 73.695312 67.734375 73.695312 56.5 C 73.695312 45.265625 82.785156 36.160156 94 36.160156 C 105.214844 36.160156 114.304688 45.265625 114.304688 56.5 Z M 114.304688 56.5 "/>
<path style=" stroke:none;fill-rule:nonzero;fill:rgb(100%,93.72549%,0%);fill-opacity:1;" d="M 110.921875 55.371094 C 110.921875 64.730469 103.34375 72.320312 94 72.320312 C 84.65625 72.320312 77.078125 64.730469 77.078125 55.371094 C 77.078125 46.007812 84.65625 38.421875 94 38.421875 C 103.34375 38.421875 110.921875 46.007812 110.921875 55.371094 Z M 110.921875 55.371094 "/>
<g clip-path="url(#clip1)" clip-rule="nonzero">
<g clip-path="url(#clip2)" clip-rule="nonzero">
<path style=" stroke:none;fill-rule:nonzero;fill:rgb(90.980392%,6.666667%,17.647059%);fill-opacity:1;" d="M 76.664062 70.058594 C 76.664062 54.351562 89.375 41.617188 105.054688 41.617188 C 120.734375 41.617188 133.445312 54.351562 133.445312 70.058594 L 133.675781 70.058594 C 133.675781 54.972656 121.46875 42.742188 106.40625 42.742188 C 91.347656 42.742188 79.140625 54.972656 79.140625 70.058594 Z M 76.664062 70.058594 "/>
</g>
</g>
<g clip-path="url(#clip3)" clip-rule="nonzero">
<g clip-path="url(#clip4)" clip-rule="nonzero">
<path style=" stroke:none;fill-rule:nonzero;fill:rgb(90.980392%,6.666667%,17.647059%);fill-opacity:1;" d="M 80.765625 70.058594 C 80.765625 55.371094 92.648438 43.464844 107.308594 43.464844 C 121.972656 43.464844 133.855469 55.371094 133.855469 70.058594 L 134.175781 70.058594 C 134.175781 55.945312 122.753906 44.503906 108.664062 44.503906 C 94.574219 44.503906 83.152344 55.945312 83.152344 70.058594 Z M 80.765625 70.058594 "/>
</g>
</g>
<g clip-path="url(#clip5)" clip-rule="nonzero">
<g clip-path="url(#clip6)" clip-rule="nonzero">
<path style=" stroke:none;fill-rule:nonzero;fill:rgb(90.980392%,6.666667%,17.647059%);fill-opacity:1;" d="M 109.566406 45.160156 C 95.839844 45.160156 84.710938 56.308594 84.710938 70.058594 C 84.710938 83.8125 95.839844 94.960938 109.566406 94.960938 L 110.921875 94.03125 C 97.703125 94.03125 86.992188 83.296875 86.992188 70.058594 C 86.992188 56.820312 97.703125 46.089844 110.921875 46.089844 Z M 109.566406 45.160156 "/>
</g>
</g>
<g clip-path="url(#clip7)" clip-rule="nonzero">
<g clip-path="url(#clip8)" clip-rule="nonzero">
<path style=" stroke:none;fill-rule:nonzero;fill:rgb(90.980392%,6.666667%,17.647059%);fill-opacity:1;" d="M 111.335938 70.058594 C 111.335938 54.351562 98.625 41.617188 82.945312 41.617188 C 67.265625 41.617188 54.554688 54.351562 54.554688 70.058594 L 54.324219 70.058594 C 54.324219 54.972656 66.53125 42.742188 81.59375 42.742188 C 96.652344 42.742188 108.859375 54.972656 108.859375 70.058594 Z M 111.335938 70.058594 "/>
</g>
</g>
<g clip-path="url(#clip9)" clip-rule="nonzero">
<g clip-path="url(#clip10)" clip-rule="nonzero">
<path style=" stroke:none;fill-rule:nonzero;fill:rgb(90.980392%,6.666667%,17.647059%);fill-opacity:1;" d="M 107.234375 70.058594 C 107.234375 55.371094 95.351562 43.464844 80.691406 43.464844 C 66.027344 43.464844 54.144531 55.371094 54.144531 70.058594 L 53.824219 70.058594 C 53.824219 55.945312 65.246094 44.503906 79.335938 44.503906 C 93.425781 44.503906 104.847656 55.945312 104.847656 70.058594 Z M 107.234375 70.058594 "/>
</g>
</g>
<g clip-path="url(#clip11)" clip-rule="nonzero">
<g clip-path="url(#clip12)" clip-rule="nonzero">
<path style=" stroke:none;fill-rule:nonzero;fill:rgb(90.980392%,6.666667%,17.647059%);fill-opacity:1;" d="M 78.433594 45.160156 C 92.160156 45.160156 103.289062 56.308594 103.289062 70.058594 C 103.289062 83.8125 92.160156 94.960938 78.433594 94.960938 L 77.078125 94.03125 C 90.296875 94.03125 101.007812 83.296875 101.007812 70.058594 C 101.007812 56.820312 90.296875 46.089844 77.078125 46.089844 Z M 78.433594 45.160156 "/>
</g>
</g>
</g>
</svg>
