<?xml version="1.0" encoding="UTF-8"?>
<svg xmlns="http://www.w3.org/2000/svg" xmlns:xlink="http://www.w3.org/1999/xlink" width="225pt" height="150pt" viewBox="0 0 225 150" version="1.1">
<g id="surface1">
<rect x="0" y="0" width="225" height="150" style="fill:rgb(100%,100%,100%);fill-opacity:1;stroke:none;"/>
<path style="fill-rule:nonzero;fill:rgb(0%,0%,0%);fill-opacity:1;stroke-width:2;stroke-linecap:butt;stroke-linejoin:miter;stroke:rgb(0%,0%,0%);stroke-opacity:1;stroke-miterlimit:4;" d="M -6.000469 -25.000338 L 6.000469 -24.999644 M -6.000123 -22.00045 L 6.000123 -22.000797 M -5.999776 -19.000562 L 5.999429 -19.000215 " transform="matrix(1.733438,-2.600157,2.600157,1.733438,112.5,75)"/>
<path style="fill-rule:nonzero;fill:rgb(0%,0%,0%);fill-opacity:1;stroke-width:2;stroke-linecap:butt;stroke-linejoin:miter;stroke:rgb(0%,0%,0%);stroke-opacity:1;stroke-miterlimit:4;" d="M -5.999429 -24.999785 L 5.999776 -24.999438 M -6.000123 -21.999203 L 6.000123 -21.99955 M -6.000469 -19.000356 L 6.000469 -18.999662 " transform="matrix(1.733438,-2.600157,2.600157,1.733438,226.906916,151.271277)"/>
<path style="fill-rule:nonzero;fill:rgb(0%,0%,0%);fill-opacity:1;stroke-width:1;stroke-linecap:butt;stroke-linejoin:miter;stroke:rgb(100%,100%,100%);stroke-opacity:1;stroke-miterlimit:4;" d="M -0.00000000770844 17.000174 L -0.000693387 27.000032 " transform="matrix(1.733438,-2.600157,2.600157,1.733438,112.5,75)"/>
<path style=" stroke:none;fill-rule:nonzero;fill:rgb(77.647059%,4.705882%,18.823529%);fill-opacity:1;" d="M 133.300781 43.796875 C 150.535156 55.285156 155.191406 78.570312 143.703125 95.800781 C 132.214844 113.035156 108.929688 117.691406 91.699219 106.203125 C 74.464844 94.714844 69.808594 71.429688 81.296875 54.199219 C 92.785156 36.964844 116.070312 32.308594 133.300781 43.796875 Z M 133.300781 43.796875 "/>
<path style=" stroke:none;fill-rule:nonzero;fill:rgb(0%,20.392157%,47.058824%);fill-opacity:1;" d="M 81.296875 54.199219 C 75.554688 62.816406 77.882812 74.457031 86.5 80.199219 C 95.113281 85.945312 106.757812 83.617188 112.5 75 C 118.242188 66.382812 129.886719 64.054688 138.5 69.800781 C 147.117188 75.542969 149.445312 87.183594 143.703125 95.800781 C 132.214844 113.035156 108.929688 117.691406 91.699219 106.203125 C 74.464844 94.714844 69.808594 71.429688 81.296875 54.199219 Z M 81.296875 54.199219 "/>
<path style="fill-rule:nonzero;fill:rgb(0%,0%,0%);fill-opacity:1;stroke-width:2;stroke-linecap:butt;stroke-linejoin:miter;stroke:rgb(0%,0%,0%);stroke-opacity:1;stroke-miterlimit:4;" d="M -6.000469 -24.999644 L 6.000469 -25.000338 M -6.000123 -22.000797 L 6.000123 -22.00045 M -5.999429 -19.000215 L 5.999776 -19.000562 " transform="matrix(-1.733438,-2.600157,2.600157,-1.733438,112.5,75)"/>
<path style="fill-rule:nonzero;fill:rgb(0%,0%,0%);fill-opacity:1;stroke-width:2;stroke-linecap:butt;stroke-linejoin:miter;stroke:rgb(0%,0%,0%);stroke-opacity:1;stroke-miterlimit:4;" d="M -5.999776 -24.999438 L 5.999429 -24.999785 M -6.000123 -21.99955 L 6.000123 -21.999203 M -6.000469 -18.999662 L 6.000469 -19.000356 " transform="matrix(-1.733438,-2.600157,2.600157,-1.733438,226.906916,-1.271277)"/>
<path style="fill-rule:nonzero;fill:rgb(0%,0%,0%);fill-opacity:1;stroke-width:1;stroke-linecap:butt;stroke-linejoin:miter;stroke:rgb(100%,100%,100%);stroke-opacity:1;stroke-miterlimit:4;" d="M 0.000693365 -23.500221 L 0.000346678 -20.500333 M 0.00000000770844 17.000174 L -0.000346678 20.500333 M -0.000693365 23.500221 L 0.000693387 26.499762 " transform="matrix(-1.733438,-2.600157,2.600157,-1.733438,112.5,75)"/>
</g>
</svg>
