<?xml version="1.0" encoding="UTF-8"?>
<svg xmlns="http://www.w3.org/2000/svg" xmlns:xlink="http://www.w3.org/1999/xlink" width="150pt" height="75pt" viewBox="0 0 150 75" version="1.1">
<g id="surface1">
<rect x="0" y="0" width="150" height="75" style="fill:rgb(0%,68.627451%,79.215686%);fill-opacity:1;stroke:none;"/>
<path style=" stroke:none;fill-rule:nonzero;fill:rgb(99.607843%,77.254902%,4.705882%);fill-opacity:1;" d="M 91.125 31.5 C 91.125 37.074219 86.609375 41.589844 81.035156 41.589844 C 75.460938 41.589844 70.945312 37.074219 70.945312 31.5 C 70.945312 25.925781 75.460938 21.410156 81.035156 21.410156 C 86.609375 21.410156 91.125 25.925781 91.125 31.5 Z M 91.125 31.5 "/>
<path style=" stroke:none;fill-rule:nonzero;fill:rgb(99.607843%,77.254902%,4.705882%);fill-opacity:1;" d="M 81.035156 20.03125 C 81.636719 20.023438 81.859375 19.648438 81.859375 19.199219 C 81.859375 18.601562 81.035156 15.742188 81.035156 15.742188 C 81.035156 15.742188 80.210938 18.601562 80.210938 19.199219 C 80.210938 19.648438 80.433594 20.03125 81.035156 20.03125 Z M 81.035156 20.03125 "/>
<path style=" stroke:none;fill-rule:nonzero;fill:rgb(99.607843%,77.254902%,4.705882%);fill-opacity:1;" d="M 92.503906 31.5 C 92.511719 32.101562 92.886719 32.324219 93.335938 32.324219 C 93.933594 32.324219 96.792969 31.5 96.792969 31.5 C 96.792969 31.5 93.933594 30.675781 93.335938 30.675781 C 92.886719 30.675781 92.503906 30.898438 92.503906 31.5 Z M 92.503906 31.5 "/>
<path style=" stroke:none;fill-rule:nonzero;fill:rgb(99.607843%,77.254902%,4.705882%);fill-opacity:1;" d="M 81.035156 42.96875 C 80.433594 42.976562 80.210938 43.351562 80.210938 43.800781 C 80.210938 44.398438 81.035156 47.257812 81.035156 47.257812 C 81.035156 47.257812 81.859375 44.398438 81.859375 43.800781 C 81.859375 43.351562 81.636719 42.96875 81.035156 42.96875 Z M 81.035156 42.96875 "/>
<path style=" stroke:none;fill-rule:nonzero;fill:rgb(99.607843%,77.254902%,4.705882%);fill-opacity:1;" d="M 69.566406 31.5 C 69.558594 30.898438 69.183594 30.675781 68.734375 30.675781 C 68.136719 30.675781 65.277344 31.5 65.277344 31.5 C 65.277344 31.5 68.136719 32.324219 68.734375 32.324219 C 69.183594 32.324219 69.566406 32.101562 69.566406 31.5 Z M 69.566406 31.5 "/>
<path style=" stroke:none;fill-rule:nonzero;fill:rgb(99.607843%,77.254902%,4.705882%);fill-opacity:1;" d="M 85.421875 20.90625 C 85.980469 21.128906 86.332031 20.867188 86.503906 20.453125 C 86.734375 19.898438 87.066406 16.941406 87.066406 16.941406 C 87.066406 16.941406 85.210938 19.265625 84.980469 19.820312 C 84.808594 20.234375 84.871094 20.675781 85.421875 20.90625 Z M 85.421875 20.90625 "/>
<path style=" stroke:none;fill-rule:nonzero;fill:rgb(99.607843%,77.254902%,4.705882%);fill-opacity:1;" d="M 91.628906 35.886719 C 91.40625 36.445312 91.667969 36.796875 92.082031 36.96875 C 92.636719 37.199219 95.59375 37.53125 95.59375 37.53125 C 95.59375 37.53125 93.269531 35.675781 92.714844 35.445312 C 92.300781 35.273438 91.859375 35.335938 91.628906 35.886719 Z M 91.628906 35.886719 "/>
<path style=" stroke:none;fill-rule:nonzero;fill:rgb(99.607843%,77.254902%,4.705882%);fill-opacity:1;" d="M 76.648438 42.09375 C 76.089844 41.871094 75.738281 42.132812 75.566406 42.546875 C 75.335938 43.101562 75.003906 46.058594 75.003906 46.058594 C 75.003906 46.058594 76.859375 43.734375 77.089844 43.179688 C 77.261719 42.765625 77.203125 42.324219 76.648438 42.09375 Z M 76.648438 42.09375 "/>
<path style=" stroke:none;fill-rule:nonzero;fill:rgb(99.607843%,77.254902%,4.705882%);fill-opacity:1;" d="M 70.441406 27.113281 C 70.664062 26.554688 70.402344 26.203125 69.988281 26.03125 C 69.433594 25.800781 66.476562 25.46875 66.476562 25.46875 C 66.476562 25.46875 68.800781 27.324219 69.355469 27.554688 C 69.773438 27.726562 70.210938 27.664062 70.441406 27.113281 Z M 70.441406 27.113281 "/>
<path style=" stroke:none;fill-rule:nonzero;fill:rgb(99.607843%,77.254902%,4.705882%);fill-opacity:1;" d="M 89.144531 23.390625 C 89.574219 23.808594 89.996094 23.703125 90.316406 23.386719 C 90.742188 22.960938 92.175781 20.359375 92.175781 20.359375 C 92.175781 20.359375 89.574219 21.796875 89.148438 22.21875 C 88.832031 22.539062 88.71875 22.96875 89.144531 23.390625 Z M 89.144531 23.390625 "/>
<path style=" stroke:none;fill-rule:nonzero;fill:rgb(99.607843%,77.254902%,4.705882%);fill-opacity:1;" d="M 89.144531 39.609375 C 88.726562 40.039062 88.832031 40.460938 89.148438 40.78125 C 89.574219 41.203125 92.175781 42.640625 92.175781 42.640625 C 92.175781 42.640625 90.742188 40.039062 90.316406 39.613281 C 89.996094 39.296875 89.570312 39.183594 89.144531 39.609375 Z M 89.144531 39.609375 "/>
<path style=" stroke:none;fill-rule:nonzero;fill:rgb(99.607843%,77.254902%,4.705882%);fill-opacity:1;" d="M 72.925781 39.609375 C 72.496094 39.191406 72.074219 39.296875 71.753906 39.613281 C 71.332031 40.039062 69.894531 42.640625 69.894531 42.640625 C 69.894531 42.640625 72.496094 41.203125 72.921875 40.78125 C 73.238281 40.460938 73.351562 40.03125 72.925781 39.609375 Z M 72.925781 39.609375 "/>
<path style=" stroke:none;fill-rule:nonzero;fill:rgb(99.607843%,77.254902%,4.705882%);fill-opacity:1;" d="M 72.925781 23.390625 C 73.34375 22.960938 73.238281 22.539062 72.921875 22.21875 C 72.496094 21.796875 69.894531 20.359375 69.894531 20.359375 C 69.894531 20.359375 71.332031 22.960938 71.753906 23.386719 C 72.074219 23.703125 72.503906 23.816406 72.925781 23.390625 Z M 72.925781 23.390625 "/>
<path style=" stroke:none;fill-rule:nonzero;fill:rgb(99.607843%,77.254902%,4.705882%);fill-opacity:1;" d="M 91.628906 27.113281 C 91.867188 27.664062 92.300781 27.726562 92.714844 27.554688 C 93.269531 27.324219 95.59375 25.46875 95.59375 25.46875 C 95.59375 25.46875 92.636719 25.800781 92.082031 26.03125 C 91.667969 26.203125 91.398438 26.558594 91.628906 27.113281 Z M 91.628906 27.113281 "/>
<path style=" stroke:none;fill-rule:nonzero;fill:rgb(99.607843%,77.254902%,4.705882%);fill-opacity:1;" d="M 85.421875 42.09375 C 84.871094 42.332031 84.808594 42.765625 84.980469 43.179688 C 85.210938 43.734375 87.066406 46.058594 87.066406 46.058594 C 87.066406 46.058594 86.734375 43.101562 86.503906 42.546875 C 86.332031 42.132812 85.976562 41.863281 85.421875 42.09375 Z M 85.421875 42.09375 "/>
<path style=" stroke:none;fill-rule:nonzero;fill:rgb(99.607843%,77.254902%,4.705882%);fill-opacity:1;" d="M 70.441406 35.886719 C 70.203125 35.335938 69.773438 35.273438 69.355469 35.445312 C 68.800781 35.675781 66.476562 37.53125 66.476562 37.53125 C 66.476562 37.53125 69.433594 37.199219 69.988281 36.96875 C 70.402344 36.796875 70.671875 36.441406 70.441406 35.886719 Z M 70.441406 35.886719 "/>
<path style=" stroke:none;fill-rule:nonzero;fill:rgb(99.607843%,77.254902%,4.705882%);fill-opacity:1;" d="M 76.648438 20.90625 C 77.199219 20.667969 77.261719 20.234375 77.089844 19.820312 C 76.859375 19.265625 75.003906 16.941406 75.003906 16.941406 C 75.003906 16.941406 75.335938 19.898438 75.566406 20.453125 C 75.738281 20.867188 76.09375 21.136719 76.648438 20.90625 Z M 76.648438 20.90625 "/>
<path style=" stroke:none;fill-rule:nonzero;fill:rgb(99.607843%,77.254902%,4.705882%);fill-opacity:1;" d="M 83.273438 20.253906 C 83.863281 20.363281 84.15625 20.039062 84.242188 19.597656 C 84.359375 19.007812 84.109375 16.046875 84.109375 16.046875 C 84.109375 16.046875 82.742188 18.6875 82.625 19.277344 C 82.539062 19.714844 82.683594 20.136719 83.273438 20.253906 Z M 83.273438 20.253906 "/>
<path style=" stroke:none;fill-rule:nonzero;fill:rgb(99.607843%,77.254902%,4.705882%);fill-opacity:1;" d="M 92.28125 33.738281 C 92.171875 34.328125 92.496094 34.621094 92.9375 34.707031 C 93.527344 34.824219 96.488281 34.574219 96.488281 34.574219 C 96.488281 34.574219 93.847656 33.207031 93.261719 33.089844 C 92.820312 33.003906 92.398438 33.148438 92.28125 33.738281 Z M 92.28125 33.738281 "/>
<path style=" stroke:none;fill-rule:nonzero;fill:rgb(99.607843%,77.254902%,4.705882%);fill-opacity:1;" d="M 78.796875 42.746094 C 78.207031 42.636719 77.914062 42.960938 77.828125 43.402344 C 77.710938 43.992188 77.960938 46.953125 77.960938 46.953125 C 77.960938 46.953125 79.328125 44.3125 79.445312 43.722656 C 79.53125 43.285156 79.386719 42.863281 78.796875 42.746094 Z M 78.796875 42.746094 "/>
<path style=" stroke:none;fill-rule:nonzero;fill:rgb(99.607843%,77.254902%,4.705882%);fill-opacity:1;" d="M 69.789062 29.261719 C 69.898438 28.671875 69.574219 28.378906 69.132812 28.292969 C 68.542969 28.175781 65.582031 28.425781 65.582031 28.425781 C 65.582031 28.425781 68.222656 29.792969 68.8125 29.910156 C 69.253906 29.996094 69.671875 29.851562 69.789062 29.261719 Z M 69.789062 29.261719 "/>
<path style=" stroke:none;fill-rule:nonzero;fill:rgb(99.607843%,77.254902%,4.705882%);fill-opacity:1;" d="M 87.40625 21.964844 C 87.910156 22.292969 88.304688 22.105469 88.554688 21.730469 C 88.886719 21.230469 89.789062 18.398438 89.789062 18.398438 C 89.789062 18.398438 87.515625 20.316406 87.183594 20.816406 C 86.933594 21.1875 86.90625 21.632812 87.40625 21.964844 Z M 87.40625 21.964844 "/>
<path style=" stroke:none;fill-rule:nonzero;fill:rgb(99.607843%,77.254902%,4.705882%);fill-opacity:1;" d="M 90.570312 37.871094 C 90.242188 38.375 90.429688 38.769531 90.804688 39.019531 C 91.304688 39.351562 94.136719 40.253906 94.136719 40.253906 C 94.136719 40.253906 92.21875 37.980469 91.722656 37.648438 C 91.347656 37.398438 90.902344 37.371094 90.570312 37.871094 Z M 90.570312 37.871094 "/>
<path style=" stroke:none;fill-rule:nonzero;fill:rgb(99.607843%,77.254902%,4.705882%);fill-opacity:1;" d="M 74.664062 41.035156 C 74.160156 40.707031 73.765625 40.894531 73.515625 41.269531 C 73.183594 41.769531 72.28125 44.601562 72.28125 44.601562 C 72.28125 44.601562 74.554688 42.683594 74.886719 42.183594 C 75.136719 41.8125 75.164062 41.367188 74.664062 41.035156 Z M 74.664062 41.035156 "/>
<path style=" stroke:none;fill-rule:nonzero;fill:rgb(99.607843%,77.254902%,4.705882%);fill-opacity:1;" d="M 71.5 25.128906 C 71.828125 24.625 71.640625 24.230469 71.265625 23.980469 C 70.769531 23.648438 67.933594 22.746094 67.933594 22.746094 C 67.933594 22.746094 69.851562 25.019531 70.351562 25.351562 C 70.722656 25.601562 71.167969 25.628906 71.5 25.128906 Z M 71.5 25.128906 "/>
<path style=" stroke:none;fill-rule:nonzero;fill:rgb(99.607843%,77.254902%,4.705882%);fill-opacity:1;" d="M 90.570312 25.128906 C 90.910156 25.625 91.347656 25.601562 91.722656 25.351562 C 92.21875 25.019531 94.136719 22.746094 94.136719 22.746094 C 94.136719 22.746094 91.304688 23.648438 90.804688 23.980469 C 90.429688 24.230469 90.238281 24.628906 90.570312 25.128906 Z M 90.570312 25.128906 "/>
<path style=" stroke:none;fill-rule:nonzero;fill:rgb(99.607843%,77.254902%,4.705882%);fill-opacity:1;" d="M 87.40625 41.035156 C 86.910156 41.375 86.933594 41.8125 87.183594 42.183594 C 87.515625 42.683594 89.789062 44.601562 89.789062 44.601562 C 89.789062 44.601562 88.886719 41.769531 88.554688 41.269531 C 88.304688 40.894531 87.90625 40.703125 87.40625 41.035156 Z M 87.40625 41.035156 "/>
<path style=" stroke:none;fill-rule:nonzero;fill:rgb(99.607843%,77.254902%,4.705882%);fill-opacity:1;" d="M 71.5 37.871094 C 71.160156 37.375 70.722656 37.398438 70.351562 37.648438 C 69.851562 37.980469 67.933594 40.253906 67.933594 40.253906 C 67.933594 40.253906 70.769531 39.351562 71.265625 39.019531 C 71.640625 38.769531 71.832031 38.371094 71.5 37.871094 Z M 71.5 37.871094 "/>
<path style=" stroke:none;fill-rule:nonzero;fill:rgb(99.607843%,77.254902%,4.705882%);fill-opacity:1;" d="M 74.664062 21.964844 C 75.160156 21.625 75.136719 21.1875 74.886719 20.816406 C 74.554688 20.316406 72.28125 18.398438 72.28125 18.398438 C 72.28125 18.398438 73.183594 21.230469 73.515625 21.730469 C 73.765625 22.105469 74.164062 22.296875 74.664062 21.964844 Z M 74.664062 21.964844 "/>
<path style=" stroke:none;fill-rule:nonzero;fill:rgb(99.607843%,77.254902%,4.705882%);fill-opacity:1;" d="M 92.28125 29.261719 C 92.40625 29.851562 92.820312 29.996094 93.261719 29.910156 C 93.847656 29.792969 96.488281 28.425781 96.488281 28.425781 C 96.488281 28.425781 93.527344 28.175781 92.9375 28.292969 C 92.496094 28.378906 92.164062 28.675781 92.28125 29.261719 Z M 92.28125 29.261719 "/>
<path style=" stroke:none;fill-rule:nonzero;fill:rgb(99.607843%,77.254902%,4.705882%);fill-opacity:1;" d="M 83.273438 42.746094 C 82.6875 42.871094 82.539062 43.285156 82.625 43.722656 C 82.742188 44.3125 84.109375 46.953125 84.109375 46.953125 C 84.109375 46.953125 84.359375 43.992188 84.242188 43.402344 C 84.15625 42.960938 83.859375 42.628906 83.273438 42.746094 Z M 83.273438 42.746094 "/>
<path style=" stroke:none;fill-rule:nonzero;fill:rgb(99.607843%,77.254902%,4.705882%);fill-opacity:1;" d="M 69.789062 33.738281 C 69.664062 33.148438 69.253906 33.003906 68.8125 33.089844 C 68.222656 33.207031 65.582031 34.574219 65.582031 34.574219 C 65.582031 34.574219 68.542969 34.824219 69.132812 34.707031 C 69.574219 34.621094 69.90625 34.324219 69.789062 33.738281 Z M 69.789062 33.738281 "/>
<path style=" stroke:none;fill-rule:nonzero;fill:rgb(99.607843%,77.254902%,4.705882%);fill-opacity:1;" d="M 78.796875 20.253906 C 79.386719 20.128906 79.53125 19.714844 79.445312 19.277344 C 79.328125 18.6875 77.960938 16.046875 77.960938 16.046875 C 77.960938 16.046875 77.710938 19.007812 77.828125 19.597656 C 77.914062 20.039062 78.210938 20.371094 78.796875 20.253906 Z M 78.796875 20.253906 "/>
<path style=" stroke:none;fill-rule:nonzero;fill:rgb(99.607843%,77.254902%,4.705882%);fill-opacity:1;" d="M 79.234375 53.359375 C 78.964844 53.375 78.703125 53.410156 78.445312 53.492188 C 78.09375 53.539062 77.753906 53.664062 77.40625 53.71875 L 77.265625 53.742188 L 77.03125 53.765625 C 77.046875 53.828125 77.054688 53.894531 77.054688 53.960938 C 77.054688 54.027344 77.046875 54.09375 77.03125 54.148438 C 77.015625 54.199219 76.96875 54.265625 76.929688 54.304688 C 76.878906 54.359375 76.828125 54.40625 76.765625 54.4375 C 76.703125 54.46875 76.636719 54.480469 76.570312 54.484375 C 76.503906 54.488281 76.433594 54.484375 76.367188 54.460938 C 76.300781 54.4375 76.238281 54.394531 76.179688 54.34375 C 76.109375 54.363281 76.039062 54.375 75.96875 54.382812 C 75.898438 54.390625 75.835938 54.390625 75.773438 54.382812 C 75.703125 54.363281 75.628906 54.339844 75.5625 54.3125 C 75.496094 54.285156 75.429688 54.25 75.367188 54.210938 C 75.113281 54.359375 74.828125 54.503906 74.671875 54.765625 C 74.585938 54.886719 74.566406 55.023438 74.546875 55.164062 C 74.535156 55.339844 74.578125 55.523438 74.65625 55.6875 C 74.683594 55.734375 74.703125 55.515625 74.789062 55.484375 C 74.933594 55.367188 75.109375 55.28125 75.289062 55.234375 C 75.441406 55.15625 75.421875 55.238281 75.359375 55.359375 C 75.34375 55.421875 75.261719 55.660156 75.375 55.539062 C 75.882812 55.316406 76.445312 55.269531 76.992188 55.226562 C 77.789062 55.144531 78.585938 55.128906 79.382812 55.117188 C 80.132812 55.128906 80.882812 55.136719 81.632812 55.164062 C 81.988281 55.175781 82.351562 55.253906 82.703125 55.195312 C 82.789062 55.171875 82.921875 55.167969 82.96875 55.117188 C 82.808594 55.023438 82.621094 55.023438 82.445312 55 L 81.015625 55 C 80.617188 54.960938 80.203125 54.953125 79.828125 54.804688 C 79.726562 54.765625 79.636719 54.671875 79.539062 54.773438 C 79.398438 54.824219 79.246094 54.859375 79.09375 54.867188 C 78.832031 54.886719 78.570312 54.832031 78.328125 54.734375 C 78.503906 54.492188 78.710938 54.28125 78.90625 54.054688 C 78.75 54.03125 78.601562 53.996094 78.445312 53.960938 C 78.71875 53.773438 78.96875 53.558594 79.234375 53.359375 Z M 79.234375 53.359375 "/>
<path style=" stroke:none;fill-rule:nonzero;fill:rgb(99.607843%,77.254902%,4.705882%);fill-opacity:1;" d="M 90.914062 55.949219 C 90.371094 56.277344 89.957031 55.699219 89.503906 55.523438 C 89.179688 55.703125 89.148438 56.289062 88.84375 56.570312 C 88.480469 56.984375 88.039062 56.453125 88.070312 56.046875 C 87.636719 56.414062 87.417969 57.242188 86.714844 57.132812 C 86.382812 56.859375 86.136719 56.289062 85.882812 56.9375 C 85.675781 57.253906 85.125 57.707031 84.839844 57.226562 C 84.75 56.804688 84.539062 56.308594 84.308594 56.980469 C 84.152344 57.453125 83.648438 57.804688 83.15625 57.59375 C 82.890625 57.375 83.371094 56.566406 83.03125 56.625 C 82.519531 56.960938 82.222656 57.796875 81.511719 57.730469 C 81.234375 57.421875 81.679688 56.894531 81.378906 56.550781 C 81.019531 57.011719 80.621094 57.683594 80.003906 57.730469 C 79.703125 57.488281 80.015625 56.792969 79.824219 56.691406 C 79.1875 57.070312 78.519531 57.75 77.71875 57.539062 C 78.03125 56.347656 79.332031 55.929688 80.425781 55.835938 C 82.308594 55.605469 84.289062 56.03125 86.097656 55.351562 C 86.390625 55.171875 87.097656 54.921875 86.847656 54.507812 C 86.621094 54.183594 87.429688 54.308594 87.503906 53.929688 C 87.457031 53.445312 87.875 53.511719 88.28125 53.46875 C 90.109375 53.390625 91.917969 53.777344 93.738281 53.84375 C 93.878906 54.730469 92.890625 55.355469 92.097656 55.078125 C 91.71875 55.140625 91.152344 54.207031 91.261719 54.886719 C 91.1875 55.242188 91.242188 55.714844 90.914062 55.949219 M 75.359375 54.132812 C 75.785156 54.519531 76.078125 54.058594 76.476562 53.890625 C 77.800781 53.433594 78.960938 52.636719 80.101562 51.839844 C 80.792969 51.269531 81.394531 50.527344 82.320312 50.339844 C 84.132812 49.792969 86.058594 49.859375 87.878906 49.355469 C 89.261719 47.457031 91.613281 46.78125 93.585938 45.691406 C 94.027344 45.554688 94.199219 45.191406 94.339844 44.789062 C 95.089844 43.601562 96.117188 42.546875 97.328125 41.828125 C 97.902344 41.515625 98.585938 41.335938 99.234375 41.480469 C 99.1875 42.253906 98.742188 42.9375 98.207031 43.472656 C 98.648438 43.460938 99.023438 43.1875 99.464844 43.203125 C 99.617188 43.996094 98.761719 44.410156 98.304688 44.902344 C 98.558594 44.960938 99.53125 45.035156 99 45.289062 C 98.328125 45.757812 97.554688 46.082031 96.929688 46.625 C 97.507812 46.730469 97.574219 46.851562 96.988281 47.058594 C 96.671875 47.273438 96.0625 47.347656 96.003906 47.765625 C 96.4375 48.035156 95.804688 48.300781 95.558594 48.386719 C 95.089844 48.496094 94.597656 48.699219 95.21875 49.054688 C 94.984375 49.410156 94.480469 49.484375 94.066406 49.449219 C 94.191406 49.851562 94.375 50.304688 93.851562 50.480469 C 92.679688 51.367188 91.304688 52.011719 89.832031 52.160156 C 91.671875 52.300781 93.566406 51.957031 95.140625 50.957031 C 95.347656 50.710938 96.433594 50.449219 95.828125 50.242188 C 95.539062 50.125 94.925781 49.992188 94.882812 49.773438 C 95.734375 49.246094 96.808594 49.433594 97.726562 49.121094 C 97.75 48.824219 97.027344 48.90625 96.757812 48.839844 C 96.117188 48.789062 96.15625 48.625 96.773438 48.5625 C 97.554688 48.355469 98.441406 48.316406 99.097656 47.804688 C 98.5625 47.558594 97.890625 47.777344 97.320312 47.574219 C 98.285156 47.148438 99.429688 47.105469 100.296875 46.472656 C 100.695312 46.03125 99.789062 46.167969 99.527344 46.179688 C 98.992188 46.273438 98.742188 46.015625 99.351562 45.792969 C 100.394531 45.027344 101.710938 44.527344 102.441406 43.414062 C 102.613281 43.167969 102.847656 42.417969 102.296875 42.6875 C 101.570312 42.925781 100.933594 43.742188 100.105469 43.492188 C 101.734375 42.226562 103.285156 40.789062 104.398438 39.042969 C 104.457031 38.539062 103.664062 38.484375 103.460938 38.878906 C 102.414062 39.886719 101.464844 41.078125 100.125 41.710938 C 101.40625 40.472656 102.46875 39.003906 103.394531 37.484375 C 103.59375 37.03125 104.128906 36.488281 103.839844 35.984375 C 103.371094 35.597656 102.789062 35.953125 102.542969 36.414062 C 101.730469 37.476562 101.113281 38.71875 100.066406 39.582031 C 100.980469 37.835938 101.929688 35.972656 101.953125 33.953125 C 101.953125 33.539062 101.867188 32.929688 101.304688 33.003906 C 100.855469 33.085938 100.964844 33.753906 100.777344 34.09375 C 100.371094 35.472656 100.183594 36.964844 99.351562 38.171875 C 99.539062 37.050781 99.863281 35.882812 99.613281 34.753906 C 99.496094 34.246094 98.679688 34.464844 98.785156 34.964844 C 97.808594 39.902344 94.496094 44.222656 90.160156 46.722656 C 88.175781 47.847656 85.957031 48.570312 83.703125 48.898438 C 83.097656 49.03125 82.441406 48.953125 81.859375 49.160156 C 80.457031 50.238281 79.605469 52.039062 77.824219 52.605469 C 77.027344 53 75.988281 53.082031 75.417969 53.824219 C 75.367188 53.917969 75.359375 54.027344 75.359375 54.132812 "/>
<path style=" stroke:none;fill-rule:nonzero;fill:rgb(99.607843%,77.254902%,4.705882%);fill-opacity:1;" d="M 80.683594 49.121094 C 80.421875 49.597656 80.269531 50.144531 79.929688 50.574219 C 78.914062 49.648438 77.441406 49.679688 76.15625 49.617188 C 75.089844 49.558594 73.933594 49.460938 73.113281 48.703125 C 72.246094 47.996094 71.539062 47.074219 70.574219 46.5 C 69.691406 46.257812 68.800781 45.960938 68.089844 45.355469 C 66.574219 44.117188 65.707031 42.285156 64.222656 41.007812 C 63.941406 40.730469 63.609375 40.515625 63.292969 40.28125 C 62.992188 40.351562 63.128906 41.003906 62.757812 40.671875 C 62.558594 40.527344 62.058594 40.515625 62.011719 40.714844 C 62.464844 41.3125 62.917969 41.992188 62.984375 42.757812 C 62.671875 42.789062 62.125 42.691406 61.972656 42.804688 C 62.382812 43.421875 62.90625 43.964844 63.503906 44.402344 C 63.21875 44.445312 62.652344 44.421875 62.542969 44.539062 C 63.136719 45.019531 63.773438 45.515625 64.550781 45.640625 C 64.707031 45.847656 64.316406 46.253906 64.644531 46.433594 C 64.835938 46.511719 65.46875 46.640625 65.035156 46.859375 C 64.734375 47.058594 64.847656 47.527344 65.226562 47.515625 C 65.46875 47.636719 66.007812 47.667969 66.050781 47.882812 C 65.835938 48.097656 65.171875 48.355469 65.738281 48.558594 C 66.265625 48.851562 66.867188 49.042969 67.472656 49.0625 C 67.167969 49.316406 66.796875 49.460938 66.484375 49.703125 C 67.875 50.515625 69.417969 51.054688 70.941406 51.570312 C 71.546875 51.773438 72.164062 51.960938 72.792969 52.082031 C 70.964844 51.976562 69.199219 51.433594 67.53125 50.695312 C 66.671875 50.316406 65.800781 49.949219 64.917969 49.625 C 65.304688 49.421875 65.753906 49.375 66.15625 49.199219 C 65.320312 49.03125 64.410156 48.976562 63.675781 48.519531 C 63.789062 48.316406 64.214844 48.308594 64.449219 48.207031 C 64.894531 48.097656 65.167969 47.96875 64.542969 47.933594 C 63.914062 47.761719 63.191406 47.835938 62.632812 47.457031 C 62.671875 47.230469 63.25 47.308594 63.488281 47.210938 C 63.785156 47.160156 64.117188 47.117188 64.355469 46.914062 C 63.382812 46.511719 62.105469 46.796875 61.34375 45.9375 C 61.167969 45.609375 61.890625 45.875 62.097656 45.820312 C 62.617188 45.820312 63.179688 45.984375 63.679688 45.773438 C 62.257812 45.152344 60.738281 44.566406 59.65625 43.414062 C 59.535156 43.230469 59.175781 42.722656 59.464844 42.660156 C 60.308594 42.769531 60.917969 43.691406 61.820312 43.546875 C 61.941406 43.386719 61.296875 43.121094 61.136719 42.890625 C 59.820312 41.761719 58.542969 40.539062 57.625 39.0625 C 57.558594 38.566406 58.335938 38.492188 58.539062 38.875 C 59.546875 39.84375 60.453125 40.972656 61.707031 41.632812 C 62.148438 41.847656 61.449219 41.378906 61.359375 41.207031 C 60.199219 39.863281 59.097656 38.445312 58.289062 36.863281 C 58.144531 36.578125 57.90625 36.0625 58.339844 35.910156 C 58.773438 35.695312 59.203125 35.988281 59.421875 36.359375 C 60.273438 37.433594 60.898438 38.707031 61.957031 39.601562 C 61.054688 37.851562 60.089844 36.007812 60.066406 33.992188 C 60.089844 33.601562 60.113281 33.007812 60.644531 33.023438 C 61.089844 32.957031 61.019531 33.527344 61.164062 33.796875 C 61.601562 35.28125 61.792969 36.882812 62.671875 38.191406 C 62.480469 37.089844 62.191406 35.960938 62.382812 34.84375 C 62.425781 34.476562 62.839844 34.367188 63.109375 34.585938 C 63.328125 35.121094 63.371094 35.777344 63.570312 36.347656 C 64.699219 40.214844 67.238281 43.613281 70.542969 45.890625 C 73.261719 47.757812 76.492188 48.875 79.789062 49.066406 C 80.089844 49.09375 80.386719 49.101562 80.683594 49.121094 "/>
<path style=" stroke:none;fill-rule:nonzero;fill:rgb(99.607843%,77.254902%,4.705882%);fill-opacity:1;" d="M 76.675781 54.066406 C 76.675781 54.164062 76.597656 54.242188 76.5 54.242188 C 76.402344 54.242188 76.324219 54.164062 76.324219 54.066406 C 76.324219 53.96875 76.402344 53.890625 76.5 53.890625 C 76.597656 53.890625 76.675781 53.96875 76.675781 54.066406 Z M 76.675781 54.066406 "/>
<path style="fill-rule:nonzero;fill:rgb(99.607843%,77.254902%,4.705882%);fill-opacity:1;stroke-width:0.381274;stroke-linecap:butt;stroke-linejoin:miter;stroke:rgb(0%,68.627451%,79.215686%);stroke-opacity:1;stroke-miterlimit:4;" d="M 1020.78125 720.520833 C 1020.78125 721.041667 1020.3125 721.458333 1019.791667 721.458333 C 1019.270833 721.458333 1018.854167 721.041667 1018.854167 720.520833 C 1018.854167 720 1019.270833 719.53125 1019.791667 719.53125 C 1020.3125 719.53125 1020.78125 720 1020.78125 720.520833 Z M 1020.78125 720.520833 " transform="matrix(0.075,0,0,0.075,0,0)"/>
<path style=" stroke:none;fill-rule:nonzero;fill:rgb(99.607843%,77.254902%,4.705882%);fill-opacity:1;" d="M 9 5.46875 C 9 5.46875 8.277344 4.863281 8.035156 5.167969 C 7.640625 5.65625 9.246094 8.089844 9.246094 8.945312 C 9.246094 10.355469 8.304688 10.738281 7.148438 10.9375 C 6.371094 11.070312 5.101562 10.882812 5.101562 10.882812 C 5.339844 10.558594 5.496094 10.464844 5.898438 10.441406 C 5.449219 10.207031 4.996094 9.703125 4.996094 8.917969 C 4.996094 7.707031 5.492188 7.210938 5.492188 5.84375 C 5.492188 5.089844 4.871094 4.125 4.871094 4.125 C 5.96875 4.234375 6.511719 5.25 6.203125 6.0625 C 6.378906 6.085938 6.539062 6.046875 6.671875 5.917969 C 6.753906 6.144531 6.628906 6.40625 6.457031 6.628906 C 6.59375 6.703125 6.695312 6.660156 6.914062 6.613281 C 6.890625 6.847656 6.753906 7.09375 6.414062 7.324219 C 7.398438 7.070312 8.007812 7.757812 8.007812 8.476562 C 8.007812 9.019531 7.625 9.410156 7.253906 9.410156 C 7.132812 9.410156 6.957031 9.359375 6.855469 9.285156 C 6.785156 9.433594 6.820312 9.636719 6.894531 9.785156 C 6.621094 9.710938 6.449219 9.550781 6.570312 9.214844 C 6.363281 9.195312 6.195312 9.121094 6.082031 8.988281 C 6.195312 8.839844 6.371094 8.757812 6.570312 8.761719 C 6.417969 8.449219 6.589844 8.273438 6.835938 8.128906 C 6.835938 8.128906 6.679688 8.761719 7.082031 8.761719 C 7.261719 8.761719 7.425781 8.703125 7.425781 8.4375 C 7.425781 8.203125 7.222656 7.882812 6.753906 7.902344 C 6.285156 7.925781 5.90625 8.226562 5.90625 8.976562 C 5.90625 9.667969 6.460938 10.011719 7.199219 10.035156 C 7.859375 10.054688 8.359375 9.695312 8.359375 9.011719 C 8.359375 8.101562 7.046875 6.027344 7.046875 5.21875 C 7.046875 4.609375 7.59375 4.269531 8.128906 4.269531 C 8.824219 4.269531 9.40625 4.957031 9.40625 4.957031 Z M 9 5.46875 "/>
<path style=" stroke:none;fill-rule:nonzero;fill:rgb(99.607843%,77.254902%,4.705882%);fill-opacity:1;" d="M 9.152344 21.910156 C 9.152344 23.429688 7.785156 24.210938 6.714844 24.210938 C 5.269531 24.210938 4.5 23.347656 4.5 22.21875 C 4.5 21.578125 4.617188 21.175781 4.914062 20.558594 C 4.914062 20.558594 7.296875 15.605469 8.222656 13.6875 C 8.339844 13.445312 8.378906 13.175781 8.378906 12.777344 C 8.378906 12.160156 7.78125 11.65625 7.152344 11.640625 C 6.582031 11.625 5.960938 12.171875 5.960938 12.796875 C 5.960938 13.554688 6.351562 13.890625 6.753906 13.890625 C 7.25 13.890625 7.449219 13.6875 7.449219 13.339844 C 7.449219 13.097656 7.332031 12.992188 7.164062 12.992188 C 6.738281 12.992188 6.855469 13.5625 6.855469 13.5625 C 6.644531 13.515625 6.472656 13.300781 6.570312 13.03125 C 6.417969 12.996094 6.273438 12.917969 6.15625 12.785156 C 6.273438 12.675781 6.402344 12.589844 6.570312 12.5625 C 6.472656 12.230469 6.605469 12.070312 6.894531 12.003906 C 6.835938 12.128906 6.832031 12.246094 6.851562 12.355469 C 7.304688 12.226562 8 12.433594 8 13.214844 C 8 13.992188 7.460938 14.648438 6.449219 14.484375 C 6.6875 14.597656 6.8125 14.835938 6.835938 15.097656 C 6.652344 15.027344 6.449219 15.015625 6.449219 15.015625 C 6.566406 15.226562 6.730469 15.40625 6.722656 15.8125 C 6.535156 15.730469 6.363281 15.570312 6.121094 15.671875 C 6.5 16.414062 6.035156 17.433594 4.855469 17.675781 C 5.289062 17.167969 5.5 16.625 5.5 16.078125 C 5.5 14.316406 5.011719 14.023438 5.011719 12.796875 C 5.011719 12.285156 5.273438 11.730469 5.796875 11.355469 L 5.796875 11.375 C 5.449219 11.28125 5.230469 11.113281 5.101562 10.882812 C 5.890625 10.65625 7.039062 10.660156 7.652344 10.902344 C 8.359375 10.984375 8.855469 11.527344 9 11.804688 C 9.144531 12.078125 9.429688 13.074219 9 13.972656 C 8.53125 14.953125 6.320312 19.640625 5.632812 21.113281 C 5.484375 21.425781 5.398438 21.757812 5.398438 22.113281 C 5.398438 23.015625 6.222656 23.332031 6.695312 23.332031 C 7.253906 23.332031 7.828125 22.90625 7.828125 22.371094 C 7.828125 22.03125 7.644531 21.828125 7.378906 21.828125 C 6.742188 21.828125 6.78125 22.367188 6.90625 22.707031 C 6.511719 22.53125 6.285156 22.214844 6.347656 21.878906 C 6.125 21.847656 5.910156 21.742188 5.714844 21.523438 C 5.867188 21.328125 6.058594 21.179688 6.347656 21.175781 C 6.21875 20.65625 6.566406 20.4375 6.90625 20.316406 C 6.800781 20.695312 6.730469 21.132812 7.378906 21.132812 C 7.851562 21.132812 8.222656 21.214844 8.4375 21.523438 C 8.453125 21.113281 8.488281 19.496094 8.488281 19.496094 C 8.515625 18.890625 7.675781 18.90625 7.144531 19.085938 C 7.34375 18.386719 7.757812 18.007812 8.714844 18.105469 C 8.480469 18.007812 8.234375 17.789062 8.234375 17.367188 C 8.234375 16.800781 8.695312 16.167969 9 15.980469 Z M 9.152344 21.910156 "/>
<path style=" stroke:none;fill-rule:nonzero;fill:rgb(99.607843%,77.254902%,4.705882%);fill-opacity:1;" d="M 9.152344 26.46875 C 9.152344 24.949219 7.785156 24.167969 6.714844 24.167969 C 5.269531 24.167969 4.5 25.03125 4.5 26.164062 C 4.5 26.804688 4.617188 27.207031 4.914062 27.820312 C 4.914062 27.820312 7.296875 32.777344 8.222656 34.695312 C 8.339844 34.933594 8.378906 35.207031 8.378906 35.605469 C 8.378906 36.222656 7.78125 36.726562 7.152344 36.742188 C 6.582031 36.753906 5.960938 36.207031 5.960938 35.585938 C 5.960938 34.828125 6.351562 34.488281 6.753906 34.488281 C 7.25 34.488281 7.449219 34.695312 7.449219 35.042969 C 7.449219 35.285156 7.332031 35.390625 7.164062 35.390625 C 6.738281 35.390625 6.855469 34.816406 6.855469 34.816406 C 6.644531 34.863281 6.472656 35.078125 6.570312 35.347656 C 6.417969 35.382812 6.273438 35.464844 6.15625 35.59375 C 6.273438 35.707031 6.402344 35.789062 6.570312 35.820312 C 6.472656 36.148438 6.605469 36.308594 6.894531 36.378906 C 6.835938 36.25 6.832031 36.132812 6.851562 36.023438 C 7.304688 36.152344 8 35.949219 8 35.164062 C 8 34.386719 7.460938 33.734375 6.449219 33.898438 C 6.6875 33.78125 6.8125 33.546875 6.835938 33.28125 C 6.652344 33.355469 6.449219 33.363281 6.449219 33.363281 C 6.566406 33.15625 6.730469 32.976562 6.722656 32.566406 C 6.535156 32.652344 6.363281 32.808594 6.121094 32.710938 C 6.5 31.96875 6.035156 30.945312 4.855469 30.707031 C 5.289062 31.210938 5.5 31.757812 5.5 32.300781 C 5.5 34.0625 5.011719 34.359375 5.011719 35.585938 C 5.011719 36.097656 5.273438 36.652344 5.796875 37.027344 L 5.796875 37.007812 C 5.449219 37.097656 5.230469 37.269531 5.101562 37.5 C 5.890625 37.722656 7.039062 37.71875 7.652344 37.476562 C 8.359375 37.394531 8.855469 36.851562 9 36.578125 C 9.144531 36.300781 9.429688 35.304688 9 34.410156 C 8.53125 33.425781 6.320312 28.742188 5.632812 27.269531 C 5.484375 26.957031 5.398438 26.625 5.398438 26.265625 C 5.398438 25.363281 6.222656 25.050781 6.695312 25.050781 C 7.253906 25.050781 7.828125 25.476562 7.828125 26.011719 C 7.828125 26.347656 7.644531 26.550781 7.378906 26.550781 C 6.742188 26.550781 6.78125 26.011719 6.90625 25.671875 C 6.511719 25.851562 6.285156 26.167969 6.347656 26.5 C 6.125 26.53125 5.910156 26.636719 5.714844 26.859375 C 5.867188 27.054688 6.058594 27.203125 6.347656 27.207031 C 6.21875 27.726562 6.566406 27.945312 6.90625 28.066406 C 6.800781 27.6875 6.730469 27.246094 7.378906 27.246094 C 7.851562 27.246094 8.222656 27.167969 8.4375 26.859375 C 8.453125 27.269531 8.488281 28.882812 8.488281 28.882812 C 8.515625 29.492188 7.675781 29.476562 7.144531 29.292969 C 7.34375 29.992188 7.757812 30.371094 8.714844 30.277344 C 8.480469 30.371094 8.234375 30.589844 8.234375 31.011719 C 8.234375 31.582031 8.695312 32.210938 9 32.398438 Z M 9.152344 26.46875 "/>
<path style=" stroke:none;fill-rule:nonzero;fill:rgb(99.607843%,77.254902%,4.705882%);fill-opacity:1;" d="M 9 5.46875 C 9 5.46875 9.722656 4.863281 9.964844 5.167969 C 10.359375 5.65625 8.753906 8.089844 8.753906 8.945312 C 8.753906 10.355469 9.695312 10.738281 10.851562 10.9375 C 11.628906 11.070312 12.898438 10.882812 12.898438 10.882812 C 12.660156 10.558594 12.503906 10.464844 12.101562 10.441406 C 12.550781 10.207031 13.003906 9.703125 13.003906 8.917969 C 13.003906 7.707031 12.507812 7.210938 12.507812 5.84375 C 12.507812 5.089844 13.128906 4.125 13.128906 4.125 C 12.03125 4.234375 11.488281 5.25 11.796875 6.0625 C 11.621094 6.085938 11.460938 6.046875 11.328125 5.917969 C 11.246094 6.144531 11.371094 6.40625 11.542969 6.628906 C 11.40625 6.703125 11.304688 6.660156 11.085938 6.613281 C 11.109375 6.847656 11.246094 7.09375 11.585938 7.324219 C 10.601562 7.070312 9.992188 7.757812 9.992188 8.476562 C 9.992188 9.019531 10.375 9.410156 10.746094 9.410156 C 10.867188 9.410156 11.042969 9.359375 11.144531 9.285156 C 11.214844 9.433594 11.179688 9.636719 11.105469 9.785156 C 11.378906 9.710938 11.550781 9.550781 11.429688 9.214844 C 11.636719 9.195312 11.804688 9.121094 11.917969 8.988281 C 11.804688 8.839844 11.628906 8.757812 11.429688 8.761719 C 11.582031 8.449219 11.410156 8.273438 11.164062 8.128906 C 11.164062 8.128906 11.320312 8.761719 10.917969 8.761719 C 10.738281 8.761719 10.574219 8.703125 10.574219 8.4375 C 10.574219 8.203125 10.777344 7.882812 11.246094 7.902344 C 11.714844 7.925781 12.09375 8.226562 12.09375 8.976562 C 12.09375 9.667969 11.539062 10.011719 10.800781 10.035156 C 10.140625 10.054688 9.640625 9.695312 9.640625 9.011719 C 9.640625 8.101562 10.953125 6.027344 10.953125 5.21875 C 10.953125 4.609375 10.40625 4.269531 9.871094 4.269531 C 9.175781 4.269531 8.59375 4.957031 8.59375 4.957031 Z M 9 5.46875 "/>
<path style=" stroke:none;fill-rule:nonzero;fill:rgb(99.607843%,77.254902%,4.705882%);fill-opacity:1;" d="M 8.847656 21.910156 C 8.847656 23.429688 10.214844 24.210938 11.285156 24.210938 C 12.730469 24.210938 13.5 23.347656 13.5 22.21875 C 13.5 21.578125 13.382812 21.175781 13.085938 20.558594 C 13.085938 20.558594 10.703125 15.605469 9.777344 13.6875 C 9.660156 13.445312 9.621094 13.175781 9.621094 12.777344 C 9.621094 12.160156 10.21875 11.65625 10.847656 11.640625 C 11.417969 11.625 12.039062 12.171875 12.039062 12.796875 C 12.039062 13.554688 11.648438 13.890625 11.246094 13.890625 C 10.75 13.890625 10.550781 13.6875 10.550781 13.339844 C 10.550781 13.097656 10.667969 12.992188 10.835938 12.992188 C 11.261719 12.992188 11.144531 13.5625 11.144531 13.5625 C 11.355469 13.515625 11.527344 13.300781 11.429688 13.03125 C 11.582031 12.996094 11.726562 12.917969 11.84375 12.785156 C 11.726562 12.675781 11.597656 12.589844 11.429688 12.5625 C 11.527344 12.230469 11.394531 12.070312 11.105469 12.003906 C 11.164062 12.128906 11.167969 12.246094 11.148438 12.355469 C 10.695312 12.226562 10 12.433594 10 13.214844 C 10 13.992188 10.539062 14.648438 11.550781 14.484375 C 11.3125 14.597656 11.1875 14.835938 11.164062 15.097656 C 11.347656 15.027344 11.550781 15.015625 11.550781 15.015625 C 11.433594 15.226562 11.269531 15.40625 11.277344 15.8125 C 11.464844 15.730469 11.636719 15.570312 11.878906 15.671875 C 11.5 16.414062 11.964844 17.433594 13.144531 17.675781 C 12.710938 17.167969 12.5 16.625 12.5 16.078125 C 12.5 14.316406 12.988281 14.023438 12.988281 12.796875 C 12.988281 12.285156 12.726562 11.730469 12.203125 11.355469 L 12.203125 11.375 C 12.550781 11.28125 12.769531 11.113281 12.898438 10.882812 C 12.109375 10.65625 10.960938 10.660156 10.347656 10.902344 C 9.640625 10.984375 9.144531 11.527344 9 11.804688 C 8.855469 12.078125 8.570312 13.074219 9 13.972656 C 9.46875 14.953125 11.679688 19.640625 12.367188 21.113281 C 12.515625 21.425781 12.601562 21.757812 12.601562 22.113281 C 12.601562 23.015625 11.777344 23.332031 11.304688 23.332031 C 10.746094 23.332031 10.171875 22.90625 10.171875 22.371094 C 10.171875 22.03125 10.355469 21.828125 10.621094 21.828125 C 11.257812 21.828125 11.21875 22.367188 11.09375 22.707031 C 11.488281 22.53125 11.714844 22.214844 11.652344 21.878906 C 11.875 21.847656 12.089844 21.742188 12.285156 21.523438 C 12.132812 21.328125 11.941406 21.179688 11.652344 21.175781 C 11.78125 20.65625 11.433594 20.4375 11.09375 20.316406 C 11.199219 20.695312 11.269531 21.132812 10.621094 21.132812 C 10.148438 21.132812 9.777344 21.214844 9.5625 21.523438 C 9.546875 21.113281 9.511719 19.496094 9.511719 19.496094 C 9.484375 18.890625 10.324219 18.90625 10.855469 19.085938 C 10.65625 18.386719 10.242188 18.007812 9.285156 18.105469 C 9.519531 18.007812 9.765625 17.789062 9.765625 17.367188 C 9.765625 16.800781 9.304688 16.167969 9 15.980469 Z M 8.847656 21.910156 "/>
<path style=" stroke:none;fill-rule:nonzero;fill:rgb(99.607843%,77.254902%,4.705882%);fill-opacity:1;" d="M 8.847656 26.46875 C 8.847656 24.949219 10.214844 24.167969 11.285156 24.167969 C 12.730469 24.167969 13.5 25.03125 13.5 26.164062 C 13.5 26.804688 13.382812 27.207031 13.085938 27.820312 C 13.085938 27.820312 10.703125 32.777344 9.777344 34.695312 C 9.660156 34.933594 9.621094 35.207031 9.621094 35.605469 C 9.621094 36.222656 10.21875 36.726562 10.847656 36.742188 C 11.417969 36.753906 12.039062 36.207031 12.039062 35.585938 C 12.039062 34.828125 11.648438 34.488281 11.246094 34.488281 C 10.75 34.488281 10.550781 34.695312 10.550781 35.042969 C 10.550781 35.285156 10.667969 35.390625 10.835938 35.390625 C 11.261719 35.390625 11.144531 34.816406 11.144531 34.816406 C 11.355469 34.863281 11.527344 35.078125 11.429688 35.347656 C 11.582031 35.382812 11.726562 35.464844 11.84375 35.59375 C 11.726562 35.707031 11.597656 35.789062 11.429688 35.820312 C 11.527344 36.148438 11.394531 36.308594 11.105469 36.378906 C 11.164062 36.25 11.167969 36.132812 11.148438 36.023438 C 10.695312 36.152344 10 35.949219 10 35.164062 C 10 34.386719 10.539062 33.734375 11.550781 33.898438 C 11.3125 33.78125 11.1875 33.546875 11.164062 33.28125 C 11.347656 33.355469 11.550781 33.363281 11.550781 33.363281 C 11.433594 33.15625 11.269531 32.976562 11.277344 32.566406 C 11.464844 32.652344 11.636719 32.808594 11.878906 32.710938 C 11.5 31.96875 11.964844 30.945312 13.144531 30.707031 C 12.710938 31.210938 12.5 31.757812 12.5 32.300781 C 12.5 34.0625 12.988281 34.359375 12.988281 35.585938 C 12.988281 36.097656 12.726562 36.652344 12.203125 37.027344 L 12.203125 37.007812 C 12.550781 37.097656 12.769531 37.269531 12.898438 37.5 C 12.109375 37.722656 10.960938 37.71875 10.347656 37.476562 C 9.640625 37.394531 9.144531 36.851562 9 36.578125 C 8.855469 36.300781 8.570312 35.304688 9 34.410156 C 9.46875 33.425781 11.679688 28.742188 12.367188 27.269531 C 12.515625 26.957031 12.601562 26.625 12.601562 26.265625 C 12.601562 25.363281 11.777344 25.050781 11.304688 25.050781 C 10.746094 25.050781 10.171875 25.476562 10.171875 26.011719 C 10.171875 26.347656 10.355469 26.550781 10.621094 26.550781 C 11.257812 26.550781 11.21875 26.011719 11.09375 25.671875 C 11.488281 25.851562 11.714844 26.167969 11.652344 26.5 C 11.875 26.53125 12.089844 26.636719 12.285156 26.859375 C 12.132812 27.054688 11.941406 27.203125 11.652344 27.207031 C 11.78125 27.726562 11.433594 27.945312 11.09375 28.066406 C 11.199219 27.6875 11.269531 27.246094 10.621094 27.246094 C 10.148438 27.246094 9.777344 27.167969 9.5625 26.859375 C 9.546875 27.269531 9.511719 28.882812 9.511719 28.882812 C 9.484375 29.492188 10.324219 29.476562 10.855469 29.292969 C 10.65625 29.992188 10.242188 30.371094 9.285156 30.277344 C 9.519531 30.371094 9.765625 30.589844 9.765625 31.011719 C 9.765625 31.582031 9.304688 32.210938 9 32.398438 Z M 8.847656 26.46875 "/>
<path style=" stroke:none;fill-rule:nonzero;fill:rgb(99.607843%,77.254902%,4.705882%);fill-opacity:1;" d="M 9 69.53125 C 9 69.53125 8.277344 70.136719 8.035156 69.832031 C 7.640625 69.34375 9.246094 66.910156 9.246094 66.054688 C 9.246094 64.644531 8.304688 64.261719 7.148438 64.0625 C 6.371094 63.929688 5.101562 64.117188 5.101562 64.117188 C 5.339844 64.441406 5.496094 64.535156 5.898438 64.558594 C 5.449219 64.792969 4.996094 65.296875 4.996094 66.082031 C 4.996094 67.292969 5.492188 67.789062 5.492188 69.15625 C 5.492188 69.910156 4.871094 70.875 4.871094 70.875 C 5.96875 70.765625 6.511719 69.75 6.203125 68.9375 C 6.378906 68.914062 6.539062 68.953125 6.671875 69.082031 C 6.753906 68.855469 6.628906 68.59375 6.457031 68.371094 C 6.59375 68.296875 6.695312 68.339844 6.914062 68.386719 C 6.890625 68.152344 6.753906 67.90625 6.414062 67.675781 C 7.398438 67.929688 8.007812 67.242188 8.007812 66.523438 C 8.007812 65.980469 7.625 65.589844 7.253906 65.589844 C 7.132812 65.589844 6.957031 65.640625 6.855469 65.714844 C 6.785156 65.566406 6.820312 65.363281 6.894531 65.214844 C 6.621094 65.289062 6.449219 65.449219 6.570312 65.785156 C 6.363281 65.804688 6.195312 65.878906 6.082031 66.011719 C 6.195312 66.160156 6.371094 66.242188 6.570312 66.238281 C 6.417969 66.550781 6.589844 66.726562 6.835938 66.871094 C 6.835938 66.871094 6.679688 66.238281 7.082031 66.238281 C 7.261719 66.238281 7.425781 66.296875 7.425781 66.5625 C 7.425781 66.796875 7.222656 67.117188 6.753906 67.097656 C 6.285156 67.074219 5.90625 66.773438 5.90625 66.023438 C 5.90625 65.332031 6.460938 64.988281 7.199219 64.964844 C 7.859375 64.945312 8.359375 65.304688 8.359375 65.988281 C 8.359375 66.898438 7.046875 68.972656 7.046875 69.78125 C 7.046875 70.390625 7.59375 70.730469 8.128906 70.730469 C 8.824219 70.730469 9.40625 70.042969 9.40625 70.042969 Z M 9 69.53125 "/>
<path style=" stroke:none;fill-rule:nonzero;fill:rgb(99.607843%,77.254902%,4.705882%);fill-opacity:1;" d="M 9.152344 53.089844 C 9.152344 51.570312 7.785156 50.789062 6.714844 50.789062 C 5.269531 50.789062 4.5 51.652344 4.5 52.78125 C 4.5 53.421875 4.617188 53.824219 4.914062 54.441406 C 4.914062 54.441406 7.296875 59.394531 8.222656 61.3125 C 8.339844 61.554688 8.378906 61.824219 8.378906 62.222656 C 8.378906 62.839844 7.78125 63.34375 7.152344 63.359375 C 6.582031 63.375 5.960938 62.828125 5.960938 62.203125 C 5.960938 61.445312 6.351562 61.109375 6.753906 61.109375 C 7.25 61.109375 7.449219 61.3125 7.449219 61.660156 C 7.449219 61.902344 7.332031 62.007812 7.164062 62.007812 C 6.738281 62.007812 6.855469 61.4375 6.855469 61.4375 C 6.644531 61.484375 6.472656 61.699219 6.570312 61.96875 C 6.417969 62.003906 6.273438 62.082031 6.15625 62.214844 C 6.273438 62.324219 6.402344 62.410156 6.570312 62.4375 C 6.472656 62.769531 6.605469 62.929688 6.894531 62.996094 C 6.835938 62.871094 6.832031 62.753906 6.851562 62.644531 C 7.304688 62.773438 8 62.566406 8 61.785156 C 8 61.007812 7.460938 60.351562 6.449219 60.515625 C 6.6875 60.402344 6.8125 60.164062 6.835938 59.902344 C 6.652344 59.972656 6.449219 59.984375 6.449219 59.984375 C 6.566406 59.773438 6.730469 59.59375 6.722656 59.1875 C 6.535156 59.269531 6.363281 59.429688 6.121094 59.328125 C 6.5 58.585938 6.035156 57.566406 4.855469 57.324219 C 5.289062 57.832031 5.5 58.375 5.5 58.921875 C 5.5 60.683594 5.011719 60.976562 5.011719 62.203125 C 5.011719 62.714844 5.273438 63.269531 5.796875 63.644531 L 5.796875 63.625 C 5.449219 63.71875 5.230469 63.886719 5.101562 64.117188 C 5.890625 64.34375 7.039062 64.339844 7.652344 64.097656 C 8.359375 64.015625 8.855469 63.472656 9 63.195312 C 9.144531 62.921875 9.429688 61.925781 9 61.027344 C 8.53125 60.046875 6.320312 55.359375 5.632812 53.886719 C 5.484375 53.574219 5.398438 53.242188 5.398438 52.886719 C 5.398438 51.984375 6.222656 51.667969 6.695312 51.667969 C 7.253906 51.667969 7.828125 52.09375 7.828125 52.628906 C 7.828125 52.96875 7.644531 53.171875 7.378906 53.171875 C 6.742188 53.171875 6.78125 52.632812 6.90625 52.292969 C 6.511719 52.46875 6.285156 52.785156 6.347656 53.121094 C 6.125 53.152344 5.910156 53.257812 5.714844 53.476562 C 5.867188 53.671875 6.058594 53.820312 6.347656 53.824219 C 6.21875 54.34375 6.566406 54.5625 6.90625 54.683594 C 6.800781 54.304688 6.730469 53.867188 7.378906 53.867188 C 7.851562 53.867188 8.222656 53.785156 8.4375 53.476562 C 8.453125 53.886719 8.488281 55.503906 8.488281 55.503906 C 8.515625 56.109375 7.675781 56.09375 7.144531 55.914062 C 7.34375 56.613281 7.757812 56.992188 8.714844 56.894531 C 8.480469 56.992188 8.234375 57.210938 8.234375 57.632812 C 8.234375 58.199219 8.695312 58.832031 9 59.019531 Z M 9.152344 53.089844 "/>
<path style=" stroke:none;fill-rule:nonzero;fill:rgb(99.607843%,77.254902%,4.705882%);fill-opacity:1;" d="M 9.152344 48.53125 C 9.152344 50.050781 7.785156 50.832031 6.714844 50.832031 C 5.269531 50.832031 4.5 49.96875 4.5 48.835938 C 4.5 48.195312 4.617188 47.792969 4.914062 47.179688 C 4.914062 47.179688 7.296875 42.222656 8.222656 40.304688 C 8.339844 40.066406 8.378906 39.792969 8.378906 39.394531 C 8.378906 38.777344 7.78125 38.273438 7.152344 38.257812 C 6.582031 38.246094 5.960938 38.792969 5.960938 39.414062 C 5.960938 40.171875 6.351562 40.511719 6.753906 40.511719 C 7.25 40.511719 7.449219 40.304688 7.449219 39.957031 C 7.449219 39.714844 7.332031 39.609375 7.164062 39.609375 C 6.738281 39.609375 6.855469 40.183594 6.855469 40.183594 C 6.644531 40.136719 6.472656 39.921875 6.570312 39.652344 C 6.417969 39.617188 6.273438 39.535156 6.15625 39.40625 C 6.273438 39.292969 6.402344 39.210938 6.570312 39.179688 C 6.472656 38.851562 6.605469 38.691406 6.894531 38.621094 C 6.835938 38.75 6.832031 38.867188 6.851562 38.976562 C 7.304688 38.847656 8 39.050781 8 39.835938 C 8 40.613281 7.460938 41.265625 6.449219 41.101562 C 6.6875 41.21875 6.8125 41.453125 6.835938 41.71875 C 6.652344 41.644531 6.449219 41.636719 6.449219 41.636719 C 6.566406 41.84375 6.730469 42.023438 6.722656 42.433594 C 6.535156 42.347656 6.363281 42.191406 6.121094 42.289062 C 6.5 43.03125 6.035156 44.054688 4.855469 44.292969 C 5.289062 43.789062 5.5 43.242188 5.5 42.699219 C 5.5 40.9375 5.011719 40.640625 5.011719 39.414062 C 5.011719 38.902344 5.273438 38.347656 5.796875 37.972656 L 5.796875 37.992188 C 5.449219 37.902344 5.230469 37.730469 5.101562 37.5 C 5.890625 37.277344 7.039062 37.28125 7.652344 37.523438 C 8.359375 37.605469 8.855469 38.148438 9 38.421875 C 9.144531 38.699219 9.429688 39.695312 9 40.589844 C 8.53125 41.574219 6.320312 46.257812 5.632812 47.730469 C 5.484375 48.042969 5.398438 48.375 5.398438 48.734375 C 5.398438 49.636719 6.222656 49.949219 6.695312 49.949219 C 7.253906 49.949219 7.828125 49.523438 7.828125 48.988281 C 7.828125 48.652344 7.644531 48.449219 7.378906 48.449219 C 6.742188 48.449219 6.78125 48.988281 6.90625 49.328125 C 6.511719 49.148438 6.285156 48.832031 6.347656 48.5 C 6.125 48.46875 5.910156 48.363281 5.714844 48.140625 C 5.867188 47.945312 6.058594 47.796875 6.347656 47.792969 C 6.21875 47.273438 6.566406 47.054688 6.90625 46.933594 C 6.800781 47.3125 6.730469 47.753906 7.378906 47.753906 C 7.851562 47.753906 8.222656 47.832031 8.4375 48.140625 C 8.453125 47.730469 8.488281 46.117188 8.488281 46.117188 C 8.515625 45.507812 7.675781 45.523438 7.144531 45.707031 C 7.34375 45.007812 7.757812 44.628906 8.714844 44.722656 C 8.480469 44.628906 8.234375 44.410156 8.234375 43.988281 C 8.234375 43.417969 8.695312 42.789062 9 42.601562 Z M 9.152344 48.53125 "/>
<path style=" stroke:none;fill-rule:nonzero;fill:rgb(99.607843%,77.254902%,4.705882%);fill-opacity:1;" d="M 9 69.53125 C 9 69.53125 9.722656 70.136719 9.964844 69.832031 C 10.359375 69.34375 8.753906 66.910156 8.753906 66.054688 C 8.753906 64.644531 9.695312 64.261719 10.851562 64.0625 C 11.628906 63.929688 12.898438 64.117188 12.898438 64.117188 C 12.660156 64.441406 12.503906 64.535156 12.101562 64.558594 C 12.550781 64.792969 13.003906 65.296875 13.003906 66.082031 C 13.003906 67.292969 12.507812 67.789062 12.507812 69.15625 C 12.507812 69.910156 13.128906 70.875 13.128906 70.875 C 12.03125 70.765625 11.488281 69.75 11.796875 68.9375 C 11.621094 68.914062 11.460938 68.953125 11.328125 69.082031 C 11.246094 68.855469 11.371094 68.59375 11.542969 68.371094 C 11.40625 68.296875 11.304688 68.339844 11.085938 68.386719 C 11.109375 68.152344 11.246094 67.90625 11.585938 67.675781 C 10.601562 67.929688 9.992188 67.242188 9.992188 66.523438 C 9.992188 65.980469 10.375 65.589844 10.746094 65.589844 C 10.867188 65.589844 11.042969 65.640625 11.144531 65.714844 C 11.214844 65.566406 11.179688 65.363281 11.105469 65.214844 C 11.378906 65.289062 11.550781 65.449219 11.429688 65.785156 C 11.636719 65.804688 11.804688 65.878906 11.917969 66.011719 C 11.804688 66.160156 11.628906 66.242188 11.429688 66.238281 C 11.582031 66.550781 11.410156 66.726562 11.164062 66.871094 C 11.164062 66.871094 11.320312 66.238281 10.917969 66.238281 C 10.738281 66.238281 10.574219 66.296875 10.574219 66.5625 C 10.574219 66.796875 10.777344 67.117188 11.246094 67.097656 C 11.714844 67.074219 12.09375 66.773438 12.09375 66.023438 C 12.09375 65.332031 11.539062 64.988281 10.800781 64.964844 C 10.140625 64.945312 9.640625 65.304688 9.640625 65.988281 C 9.640625 66.898438 10.953125 68.972656 10.953125 69.78125 C 10.953125 70.390625 10.40625 70.730469 9.871094 70.730469 C 9.175781 70.730469 8.59375 70.042969 8.59375 70.042969 Z M 9 69.53125 "/>
<path style=" stroke:none;fill-rule:nonzero;fill:rgb(99.607843%,77.254902%,4.705882%);fill-opacity:1;" d="M 8.847656 53.089844 C 8.847656 51.570312 10.214844 50.789062 11.285156 50.789062 C 12.730469 50.789062 13.5 51.652344 13.5 52.78125 C 13.5 53.421875 13.382812 53.824219 13.085938 54.441406 C 13.085938 54.441406 10.703125 59.394531 9.777344 61.3125 C 9.660156 61.554688 9.621094 61.824219 9.621094 62.222656 C 9.621094 62.839844 10.21875 63.34375 10.847656 63.359375 C 11.417969 63.375 12.039062 62.828125 12.039062 62.203125 C 12.039062 61.445312 11.648438 61.109375 11.246094 61.109375 C 10.75 61.109375 10.550781 61.3125 10.550781 61.660156 C 10.550781 61.902344 10.667969 62.007812 10.835938 62.007812 C 11.261719 62.007812 11.144531 61.4375 11.144531 61.4375 C 11.355469 61.484375 11.527344 61.699219 11.429688 61.96875 C 11.582031 62.003906 11.726562 62.082031 11.84375 62.214844 C 11.726562 62.324219 11.597656 62.410156 11.429688 62.4375 C 11.527344 62.769531 11.394531 62.929688 11.105469 62.996094 C 11.164062 62.871094 11.167969 62.753906 11.148438 62.644531 C 10.695312 62.773438 10 62.566406 10 61.785156 C 10 61.007812 10.539062 60.351562 11.550781 60.515625 C 11.3125 60.402344 11.1875 60.164062 11.164062 59.902344 C 11.347656 59.972656 11.550781 59.984375 11.550781 59.984375 C 11.433594 59.773438 11.269531 59.59375 11.277344 59.1875 C 11.464844 59.269531 11.636719 59.429688 11.878906 59.328125 C 11.5 58.585938 11.964844 57.566406 13.144531 57.324219 C 12.710938 57.832031 12.5 58.375 12.5 58.921875 C 12.5 60.683594 12.988281 60.976562 12.988281 62.203125 C 12.988281 62.714844 12.726562 63.269531 12.203125 63.644531 L 12.203125 63.625 C 12.550781 63.71875 12.769531 63.886719 12.898438 64.117188 C 12.109375 64.34375 10.960938 64.339844 10.347656 64.097656 C 9.640625 64.015625 9.144531 63.472656 9 63.195312 C 8.855469 62.921875 8.570312 61.925781 9 61.027344 C 9.46875 60.046875 11.679688 55.359375 12.367188 53.886719 C 12.515625 53.574219 12.601562 53.242188 12.601562 52.886719 C 12.601562 51.984375 11.777344 51.667969 11.304688 51.667969 C 10.746094 51.667969 10.171875 52.09375 10.171875 52.628906 C 10.171875 52.96875 10.355469 53.171875 10.621094 53.171875 C 11.257812 53.171875 11.21875 52.632812 11.09375 52.292969 C 11.488281 52.46875 11.714844 52.785156 11.652344 53.121094 C 11.875 53.152344 12.089844 53.257812 12.285156 53.476562 C 12.132812 53.671875 11.941406 53.820312 11.652344 53.824219 C 11.78125 54.34375 11.433594 54.5625 11.09375 54.683594 C 11.199219 54.304688 11.269531 53.867188 10.621094 53.867188 C 10.148438 53.867188 9.777344 53.785156 9.5625 53.476562 C 9.546875 53.886719 9.511719 55.503906 9.511719 55.503906 C 9.484375 56.109375 10.324219 56.09375 10.855469 55.914062 C 10.65625 56.613281 10.242188 56.992188 9.285156 56.894531 C 9.519531 56.992188 9.765625 57.210938 9.765625 57.632812 C 9.765625 58.199219 9.304688 58.832031 9 59.019531 Z M 8.847656 53.089844 "/>
<path style=" stroke:none;fill-rule:nonzero;fill:rgb(99.607843%,77.254902%,4.705882%);fill-opacity:1;" d="M 8.847656 48.53125 C 8.847656 50.050781 10.214844 50.832031 11.285156 50.832031 C 12.730469 50.832031 13.5 49.96875 13.5 48.835938 C 13.5 48.195312 13.382812 47.792969 13.085938 47.179688 C 13.085938 47.179688 10.703125 42.222656 9.777344 40.304688 C 9.660156 40.066406 9.621094 39.792969 9.621094 39.394531 C 9.621094 38.777344 10.21875 38.273438 10.847656 38.257812 C 11.417969 38.246094 12.039062 38.792969 12.039062 39.414062 C 12.039062 40.171875 11.648438 40.511719 11.246094 40.511719 C 10.75 40.511719 10.550781 40.304688 10.550781 39.957031 C 10.550781 39.714844 10.667969 39.609375 10.835938 39.609375 C 11.261719 39.609375 11.144531 40.183594 11.144531 40.183594 C 11.355469 40.136719 11.527344 39.921875 11.429688 39.652344 C 11.582031 39.617188 11.726562 39.535156 11.84375 39.40625 C 11.726562 39.292969 11.597656 39.210938 11.429688 39.179688 C 11.527344 38.851562 11.394531 38.691406 11.105469 38.621094 C 11.164062 38.75 11.167969 38.867188 11.148438 38.976562 C 10.695312 38.847656 10 39.050781 10 39.835938 C 10 40.613281 10.539062 41.265625 11.550781 41.101562 C 11.3125 41.21875 11.1875 41.453125 11.164062 41.71875 C 11.347656 41.644531 11.550781 41.636719 11.550781 41.636719 C 11.433594 41.84375 11.269531 42.023438 11.277344 42.433594 C 11.464844 42.347656 11.636719 42.191406 11.878906 42.289062 C 11.5 43.03125 11.964844 44.054688 13.144531 44.292969 C 12.710938 43.789062 12.5 43.242188 12.5 42.699219 C 12.5 40.9375 12.988281 40.640625 12.988281 39.414062 C 12.988281 38.902344 12.726562 38.347656 12.203125 37.972656 L 12.203125 37.992188 C 12.550781 37.902344 12.769531 37.730469 12.898438 37.5 C 12.109375 37.277344 10.960938 37.28125 10.347656 37.523438 C 9.640625 37.605469 9.144531 38.148438 9 38.421875 C 8.855469 38.699219 8.570312 39.695312 9 40.589844 C 9.46875 41.574219 11.679688 46.257812 12.367188 47.730469 C 12.515625 48.042969 12.601562 48.375 12.601562 48.734375 C 12.601562 49.636719 11.777344 49.949219 11.304688 49.949219 C 10.746094 49.949219 10.171875 49.523438 10.171875 48.988281 C 10.171875 48.652344 10.355469 48.449219 10.621094 48.449219 C 11.257812 48.449219 11.21875 48.988281 11.09375 49.328125 C 11.488281 49.148438 11.714844 48.832031 11.652344 48.5 C 11.875 48.46875 12.089844 48.363281 12.285156 48.140625 C 12.132812 47.945312 11.941406 47.796875 11.652344 47.792969 C 11.78125 47.273438 11.433594 47.054688 11.09375 46.933594 C 11.199219 47.3125 11.269531 47.753906 10.621094 47.753906 C 10.148438 47.753906 9.777344 47.832031 9.5625 48.140625 C 9.546875 47.730469 9.511719 46.117188 9.511719 46.117188 C 9.484375 45.507812 10.324219 45.523438 10.855469 45.707031 C 10.65625 45.007812 10.242188 44.628906 9.285156 44.722656 C 9.519531 44.628906 9.765625 44.410156 9.765625 43.988281 C 9.765625 43.417969 9.304688 42.789062 9 42.601562 Z M 8.847656 48.53125 "/>
</g>
</svg>
