<?xml version="1.0" encoding="UTF-8"?>
<svg xmlns="http://www.w3.org/2000/svg" xmlns:xlink="http://www.w3.org/1999/xlink" width="700pt" height="350pt" viewBox="0 0 700 350" version="1.1">
<g id="surface1">
<rect x="0" y="0" width="700" height="350" style="fill:rgb(80%,0%,0.392157%);fill-opacity:1;stroke:none;"/>
<path style=" stroke:none;fill-rule:nonzero;fill:rgb(100%,100%,100%);fill-opacity:1;" d="M 0 325 L 700 325 L 700 350 L 0 350 Z M 0 325 "/>
<path style=" stroke:none;fill-rule:nonzero;fill:rgb(100%,100%,100%);fill-opacity:1;" d="M 0 275 L 700 275 L 700 300 L 0 300 Z M 0 275 "/>
<path style=" stroke:none;fill-rule:nonzero;fill:rgb(100%,100%,100%);fill-opacity:1;" d="M 0 225 L 700 225 L 700 250 L 0 250 Z M 0 225 "/>
<path style=" stroke:none;fill-rule:nonzero;fill:rgb(100%,100%,100%);fill-opacity:1;" d="M 0 175 L 700 175 L 700 200 L 0 200 Z M 0 175 "/>
<path style=" stroke:none;fill-rule:nonzero;fill:rgb(100%,100%,100%);fill-opacity:1;" d="M 0 125 L 700 125 L 700 150 L 0 150 Z M 0 125 "/>
<path style=" stroke:none;fill-rule:nonzero;fill:rgb(100%,100%,100%);fill-opacity:1;" d="M 0 75 L 700 75 L 700 100 L 0 100 Z M 0 75 "/>
<path style=" stroke:none;fill-rule:nonzero;fill:rgb(100%,100%,100%);fill-opacity:1;" d="M 0 25 L 700 25 L 700 50 L 0 50 Z M 0 25 "/>
<path style=" stroke:none;fill-rule:nonzero;fill:rgb(0.392157%,0%,40%);fill-opacity:1;" d="M 0 0 L 350 0 L 350 200 L 0 200 Z M 0 0 "/>
<path style=" stroke:none;fill-rule:nonzero;fill:rgb(100%,80%,0%);fill-opacity:1;" d="M 144 25 C 102.464844 25 68.75 58.601562 68.75 100 C 68.75 141.398438 102.464844 175 144 175 C 159.007812 175 172.988281 170.609375 184.730469 163.054688 C 177.894531 165.414062 170.554688 166.703125 162.914062 166.703125 C 126.082031 166.703125 96.191406 136.910156 96.191406 100.203125 C 96.191406 63.492188 126.082031 33.699219 162.914062 33.699219 C 171.054688 33.699219 178.851562 35.152344 186.0625 37.816406 C 174.054688 29.726562 159.578125 25 144 25 Z M 144 25 "/>
<path style=" stroke:none;fill-rule:nonzero;fill:rgb(100%,80%,0%);fill-opacity:1;" d="M 268.792969 139.042969 L 237.09375 122.503906 L 246.464844 156.351562 L 225.265625 128.039062 L 218.652344 162.5 L 212.144531 128.019531 L 190.855469 156.269531 L 200.335938 122.449219 L 168.585938 138.894531 L 192.171875 112.433594 L 156.25 113.8125 L 189.269531 99.957031 L 156.292969 86 L 192.210938 87.484375 L 168.707031 60.957031 L 200.40625 77.496094 L 191.035156 43.648438 L 212.234375 71.960938 L 218.847656 37.5 L 225.355469 71.980469 L 246.644531 43.730469 L 237.164062 77.550781 L 268.914062 61.105469 L 245.328125 87.566406 L 281.25 86.1875 L 248.230469 100.042969 L 281.207031 114 L 245.289062 112.515625 Z M 268.792969 139.042969 "/>
</g>
</svg>
