<?xml version="1.0" encoding="UTF-8"?>
<svg xmlns="http://www.w3.org/2000/svg" xmlns:xlink="http://www.w3.org/1999/xlink" width="300pt" height="150pt" viewBox="0 0 300 150" version="1.1">
<defs>
<clipPath id="clip1">
  <path d="M 0 0 L 150 0 L 150 75 L 0 75 Z M 0 0 "/>
</clipPath>
<clipPath id="clip2">
  <path d="M 0 0 L 150 0 L 150 75 L 0 75 Z M 0 0 "/>
</clipPath>
<clipPath id="clip3">
  <path d="M 0 0 L 75 37.5 L 0 37.5 Z M 75 0 L 150 0 L 75 37.5 Z M 75 37.5 L 150 37.5 L 150 75 Z M 75 37.5 L 75 75 L 0 75 Z M 75 37.5 "/>
</clipPath>
<clipPath id="clip4">
  <path d="M 0 0 L 150 0 L 150 75 L 0 75 Z M 0 0 "/>
</clipPath>
<clipPath id="clip5">
  <path d="M 0 0 L 150 0 L 150 75 L 0 75 Z M 0 0 "/>
</clipPath>
</defs>
<g id="surface1">
<rect x="0" y="0" width="300" height="150" style="fill:rgb(0%,14.117647%,49.019608%);fill-opacity:1;stroke:none;"/>
<path style=" stroke:none;fill-rule:nonzero;fill:rgb(0%,0%,0%);fill-opacity:1;" d="M 0 0 L 150 75 M 0 75 L 150 0 "/>
<g clip-path="url(#clip1)" clip-rule="nonzero">
<path style="fill:none;stroke-width:60;stroke-linecap:butt;stroke-linejoin:miter;stroke:rgb(100%,100%,100%);stroke-opacity:1;stroke-miterlimit:4;" d="M 0 0 L 600 300 M 0 300 L 600 0 " transform="matrix(0.25,0,0,0.25,0,0)"/>
</g>
<g clip-path="url(#clip2)" clip-rule="nonzero">
<g clip-path="url(#clip3)" clip-rule="nonzero">
<path style="fill-rule:nonzero;fill:rgb(0%,0%,0%);fill-opacity:1;stroke-width:40;stroke-linecap:butt;stroke-linejoin:miter;stroke:rgb(80%,7.843137%,16.862745%);stroke-opacity:1;stroke-miterlimit:4;" d="M 0 0 L 600 300 M 0 300 L 600 0 " transform="matrix(0.25,0,0,0.25,0,0)"/>
</g>
</g>
<path style=" stroke:none;fill-rule:nonzero;fill:rgb(0%,0%,0%);fill-opacity:1;" d="M 75 0 L 75 75 M 0 37.5 L 150 37.5 "/>
<g clip-path="url(#clip4)" clip-rule="nonzero">
<path style="fill:none;stroke-width:100;stroke-linecap:butt;stroke-linejoin:miter;stroke:rgb(100%,100%,100%);stroke-opacity:1;stroke-miterlimit:4;" d="M 300 0 L 300 300 M 0 150 L 600 150 " transform="matrix(0.25,0,0,0.25,0,0)"/>
</g>
<path style=" stroke:none;fill-rule:nonzero;fill:rgb(0%,0%,0%);fill-opacity:1;" d="M 75 0 L 75 75 M 0 37.5 L 150 37.5 "/>
<g clip-path="url(#clip5)" clip-rule="nonzero">
<path style="fill:none;stroke-width:60;stroke-linecap:butt;stroke-linejoin:miter;stroke:rgb(80%,7.843137%,16.862745%);stroke-opacity:1;stroke-miterlimit:4;" d="M 300 0 L 300 300 M 0 150 L 600 150 " transform="matrix(0.25,0,0,0.25,0,0)"/>
</g>
<path style=" stroke:none;fill-rule:nonzero;fill:rgb(100%,100%,100%);fill-opacity:1;" d="M 225 26.3125 L 225 31.988281 L 236.351562 26.3125 Z M 225 26.3125 "/>
<path style=" stroke:none;fill-rule:nonzero;fill:rgb(100%,100%,100%);fill-opacity:1;" d="M 227.167969 32.984375 L 223.832031 28.390625 L 236.351562 26.3125 Z M 227.167969 32.984375 "/>
<path style=" stroke:none;fill-rule:nonzero;fill:rgb(100%,100%,100%);fill-opacity:1;" d="M 225 26.3125 L 225 31.988281 L 213.648438 26.3125 Z M 225 26.3125 "/>
<path style=" stroke:none;fill-rule:nonzero;fill:rgb(100%,100%,100%);fill-opacity:1;" d="M 222.832031 32.984375 L 226.167969 28.390625 L 213.648438 26.3125 Z M 222.832031 32.984375 "/>
<path style=" stroke:none;fill-rule:nonzero;fill:rgb(100%,100%,100%);fill-opacity:1;" d="M 228.507812 28.859375 L 223.109375 30.613281 L 232.015625 39.65625 Z M 228.507812 28.859375 "/>
<path style=" stroke:none;fill-rule:nonzero;fill:rgb(100%,100%,100%);fill-opacity:1;" d="M 222.832031 32.984375 L 226.167969 28.390625 L 232.015625 39.65625 Z M 222.832031 32.984375 "/>
<path style=" stroke:none;fill-rule:nonzero;fill:rgb(100%,100%,100%);fill-opacity:1;" d="M 221.492188 28.859375 L 226.890625 30.613281 L 225 18.066406 Z M 221.492188 28.859375 "/>
<path style=" stroke:none;fill-rule:nonzero;fill:rgb(100%,100%,100%);fill-opacity:1;" d="M 228.507812 28.859375 L 223.109375 30.613281 L 225 18.066406 Z M 228.507812 28.859375 "/>
<path style=" stroke:none;fill-rule:nonzero;fill:rgb(100%,100%,100%);fill-opacity:1;" d="M 221.492188 28.859375 L 226.890625 30.613281 L 217.984375 39.65625 Z M 221.492188 28.859375 "/>
<path style=" stroke:none;fill-rule:nonzero;fill:rgb(100%,100%,100%);fill-opacity:1;" d="M 227.167969 32.984375 L 223.832031 28.390625 L 217.984375 39.65625 Z M 227.167969 32.984375 "/>
<path style=" stroke:none;fill-rule:nonzero;fill:rgb(80%,7.843137%,16.862745%);fill-opacity:1;" d="M 225 27.5625 L 225 31.3125 L 232.5 27.5625 Z M 225 27.5625 "/>
<path style=" stroke:none;fill-rule:nonzero;fill:rgb(80%,7.843137%,16.862745%);fill-opacity:1;" d="M 226.433594 31.972656 L 224.226562 28.9375 L 232.5 27.5625 Z M 226.433594 31.972656 "/>
<path style=" stroke:none;fill-rule:nonzero;fill:rgb(80%,7.843137%,16.862745%);fill-opacity:1;" d="M 225 27.5625 L 225 31.3125 L 217.5 27.5625 Z M 225 27.5625 "/>
<path style=" stroke:none;fill-rule:nonzero;fill:rgb(80%,7.843137%,16.862745%);fill-opacity:1;" d="M 223.566406 31.972656 L 225.773438 28.9375 L 217.5 27.5625 Z M 223.566406 31.972656 "/>
<path style=" stroke:none;fill-rule:nonzero;fill:rgb(80%,7.843137%,16.862745%);fill-opacity:1;" d="M 227.316406 29.246094 L 223.75 30.40625 L 229.636719 36.378906 Z M 227.316406 29.246094 "/>
<path style=" stroke:none;fill-rule:nonzero;fill:rgb(80%,7.843137%,16.862745%);fill-opacity:1;" d="M 223.566406 31.972656 L 225.773438 28.9375 L 229.636719 36.378906 Z M 223.566406 31.972656 "/>
<path style=" stroke:none;fill-rule:nonzero;fill:rgb(80%,7.843137%,16.862745%);fill-opacity:1;" d="M 222.683594 29.246094 L 226.25 30.40625 L 225 22.113281 Z M 222.683594 29.246094 "/>
<path style=" stroke:none;fill-rule:nonzero;fill:rgb(80%,7.843137%,16.862745%);fill-opacity:1;" d="M 227.316406 29.246094 L 223.75 30.40625 L 225 22.113281 Z M 227.316406 29.246094 "/>
<path style=" stroke:none;fill-rule:nonzero;fill:rgb(80%,7.843137%,16.862745%);fill-opacity:1;" d="M 222.683594 29.246094 L 226.25 30.40625 L 220.363281 36.378906 Z M 222.683594 29.246094 "/>
<path style=" stroke:none;fill-rule:nonzero;fill:rgb(80%,7.843137%,16.862745%);fill-opacity:1;" d="M 226.433594 31.972656 L 224.226562 28.9375 L 220.363281 36.378906 Z M 226.433594 31.972656 "/>
<path style=" stroke:none;fill-rule:nonzero;fill:rgb(100%,100%,100%);fill-opacity:1;" d="M 254.707031 52.542969 L 254.707031 57.59375 L 264.808594 52.542969 Z M 254.707031 52.542969 "/>
<path style=" stroke:none;fill-rule:nonzero;fill:rgb(100%,100%,100%);fill-opacity:1;" d="M 256.636719 58.480469 L 253.667969 54.394531 L 264.808594 52.542969 Z M 256.636719 58.480469 "/>
<path style=" stroke:none;fill-rule:nonzero;fill:rgb(100%,100%,100%);fill-opacity:1;" d="M 254.707031 52.542969 L 254.707031 57.59375 L 244.609375 52.542969 Z M 254.707031 52.542969 "/>
<path style=" stroke:none;fill-rule:nonzero;fill:rgb(100%,100%,100%);fill-opacity:1;" d="M 252.777344 58.480469 L 255.746094 54.394531 L 244.609375 52.542969 Z M 252.777344 58.480469 "/>
<path style=" stroke:none;fill-rule:nonzero;fill:rgb(100%,100%,100%);fill-opacity:1;" d="M 257.828125 54.8125 L 253.027344 56.371094 L 260.949219 64.417969 Z M 257.828125 54.8125 "/>
<path style=" stroke:none;fill-rule:nonzero;fill:rgb(100%,100%,100%);fill-opacity:1;" d="M 252.777344 58.480469 L 255.746094 54.394531 L 260.949219 64.417969 Z M 252.777344 58.480469 "/>
<path style=" stroke:none;fill-rule:nonzero;fill:rgb(100%,100%,100%);fill-opacity:1;" d="M 251.585938 54.8125 L 256.390625 56.371094 L 254.707031 45.203125 Z M 251.585938 54.8125 "/>
<path style=" stroke:none;fill-rule:nonzero;fill:rgb(100%,100%,100%);fill-opacity:1;" d="M 257.828125 54.8125 L 253.027344 56.371094 L 254.707031 45.203125 Z M 257.828125 54.8125 "/>
<path style=" stroke:none;fill-rule:nonzero;fill:rgb(100%,100%,100%);fill-opacity:1;" d="M 251.585938 54.8125 L 256.390625 56.371094 L 248.464844 64.417969 Z M 251.585938 54.8125 "/>
<path style=" stroke:none;fill-rule:nonzero;fill:rgb(100%,100%,100%);fill-opacity:1;" d="M 256.636719 58.480469 L 253.667969 54.394531 L 248.464844 64.417969 Z M 256.636719 58.480469 "/>
<path style=" stroke:none;fill-rule:nonzero;fill:rgb(80%,7.843137%,16.862745%);fill-opacity:1;" d="M 254.707031 53.792969 L 254.707031 56.917969 L 260.957031 53.792969 Z M 254.707031 53.792969 "/>
<path style=" stroke:none;fill-rule:nonzero;fill:rgb(80%,7.843137%,16.862745%);fill-opacity:1;" d="M 255.902344 57.46875 L 254.066406 54.941406 L 260.957031 53.792969 Z M 255.902344 57.46875 "/>
<path style=" stroke:none;fill-rule:nonzero;fill:rgb(80%,7.843137%,16.862745%);fill-opacity:1;" d="M 254.707031 53.792969 L 254.707031 56.917969 L 248.457031 53.792969 Z M 254.707031 53.792969 "/>
<path style=" stroke:none;fill-rule:nonzero;fill:rgb(80%,7.843137%,16.862745%);fill-opacity:1;" d="M 253.515625 57.46875 L 255.351562 54.941406 L 248.457031 53.792969 Z M 253.515625 57.46875 "/>
<path style=" stroke:none;fill-rule:nonzero;fill:rgb(80%,7.843137%,16.862745%);fill-opacity:1;" d="M 256.640625 55.195312 L 253.667969 56.164062 L 258.570312 61.140625 Z M 256.640625 55.195312 "/>
<path style=" stroke:none;fill-rule:nonzero;fill:rgb(80%,7.843137%,16.862745%);fill-opacity:1;" d="M 253.515625 57.46875 L 255.351562 54.941406 L 258.570312 61.140625 Z M 253.515625 57.46875 "/>
<path style=" stroke:none;fill-rule:nonzero;fill:rgb(80%,7.843137%,16.862745%);fill-opacity:1;" d="M 252.777344 55.195312 L 255.75 56.164062 L 254.707031 49.253906 Z M 252.777344 55.195312 "/>
<path style=" stroke:none;fill-rule:nonzero;fill:rgb(80%,7.843137%,16.862745%);fill-opacity:1;" d="M 256.640625 55.195312 L 253.667969 56.164062 L 254.707031 49.253906 Z M 256.640625 55.195312 "/>
<path style=" stroke:none;fill-rule:nonzero;fill:rgb(80%,7.843137%,16.862745%);fill-opacity:1;" d="M 252.777344 55.195312 L 255.75 56.164062 L 250.84375 61.140625 Z M 252.777344 55.195312 "/>
<path style=" stroke:none;fill-rule:nonzero;fill:rgb(80%,7.843137%,16.862745%);fill-opacity:1;" d="M 255.902344 57.46875 L 254.066406 54.941406 L 250.84375 61.140625 Z M 255.902344 57.46875 "/>
<path style=" stroke:none;fill-rule:nonzero;fill:rgb(100%,100%,100%);fill-opacity:1;" d="M 190.339844 61.183594 L 190.339844 66.859375 L 201.691406 61.183594 Z M 190.339844 61.183594 "/>
<path style=" stroke:none;fill-rule:nonzero;fill:rgb(100%,100%,100%);fill-opacity:1;" d="M 192.507812 67.855469 L 189.171875 63.261719 L 201.691406 61.183594 Z M 192.507812 67.855469 "/>
<path style=" stroke:none;fill-rule:nonzero;fill:rgb(100%,100%,100%);fill-opacity:1;" d="M 190.339844 61.183594 L 190.339844 66.859375 L 178.992188 61.183594 Z M 190.339844 61.183594 "/>
<path style=" stroke:none;fill-rule:nonzero;fill:rgb(100%,100%,100%);fill-opacity:1;" d="M 188.171875 67.855469 L 191.507812 63.261719 L 178.992188 61.183594 Z M 188.171875 67.855469 "/>
<path style=" stroke:none;fill-rule:nonzero;fill:rgb(100%,100%,100%);fill-opacity:1;" d="M 193.847656 63.730469 L 188.449219 65.484375 L 197.355469 74.527344 Z M 193.847656 63.730469 "/>
<path style=" stroke:none;fill-rule:nonzero;fill:rgb(100%,100%,100%);fill-opacity:1;" d="M 188.171875 67.855469 L 191.507812 63.261719 L 197.355469 74.527344 Z M 188.171875 67.855469 "/>
<path style=" stroke:none;fill-rule:nonzero;fill:rgb(100%,100%,100%);fill-opacity:1;" d="M 186.832031 63.730469 L 192.230469 65.484375 L 190.339844 52.9375 Z M 186.832031 63.730469 "/>
<path style=" stroke:none;fill-rule:nonzero;fill:rgb(100%,100%,100%);fill-opacity:1;" d="M 193.847656 63.730469 L 188.449219 65.484375 L 190.339844 52.9375 Z M 193.847656 63.730469 "/>
<path style=" stroke:none;fill-rule:nonzero;fill:rgb(100%,100%,100%);fill-opacity:1;" d="M 186.832031 63.730469 L 192.230469 65.484375 L 183.324219 74.527344 Z M 186.832031 63.730469 "/>
<path style=" stroke:none;fill-rule:nonzero;fill:rgb(100%,100%,100%);fill-opacity:1;" d="M 192.507812 67.855469 L 189.171875 63.261719 L 183.324219 74.527344 Z M 192.507812 67.855469 "/>
<path style=" stroke:none;fill-rule:nonzero;fill:rgb(80%,7.843137%,16.862745%);fill-opacity:1;" d="M 190.339844 62.433594 L 190.339844 66.183594 L 197.839844 62.433594 Z M 190.339844 62.433594 "/>
<path style=" stroke:none;fill-rule:nonzero;fill:rgb(80%,7.843137%,16.862745%);fill-opacity:1;" d="M 191.773438 66.84375 L 189.570312 63.808594 L 197.839844 62.433594 Z M 191.773438 66.84375 "/>
<path style=" stroke:none;fill-rule:nonzero;fill:rgb(80%,7.843137%,16.862745%);fill-opacity:1;" d="M 190.339844 62.433594 L 190.339844 66.183594 L 182.839844 62.433594 Z M 190.339844 62.433594 "/>
<path style=" stroke:none;fill-rule:nonzero;fill:rgb(80%,7.843137%,16.862745%);fill-opacity:1;" d="M 188.910156 66.84375 L 191.113281 63.808594 L 182.839844 62.433594 Z M 188.910156 66.84375 "/>
<path style=" stroke:none;fill-rule:nonzero;fill:rgb(80%,7.843137%,16.862745%);fill-opacity:1;" d="M 192.660156 64.117188 L 189.09375 65.277344 L 194.976562 71.25 Z M 192.660156 64.117188 "/>
<path style=" stroke:none;fill-rule:nonzero;fill:rgb(80%,7.843137%,16.862745%);fill-opacity:1;" d="M 188.910156 66.84375 L 191.113281 63.808594 L 194.976562 71.25 Z M 188.910156 66.84375 "/>
<path style=" stroke:none;fill-rule:nonzero;fill:rgb(80%,7.843137%,16.862745%);fill-opacity:1;" d="M 188.023438 64.117188 L 191.589844 65.277344 L 190.339844 56.984375 Z M 188.023438 64.117188 "/>
<path style=" stroke:none;fill-rule:nonzero;fill:rgb(80%,7.843137%,16.862745%);fill-opacity:1;" d="M 192.660156 64.117188 L 189.089844 65.277344 L 190.339844 56.984375 Z M 192.660156 64.117188 "/>
<path style=" stroke:none;fill-rule:nonzero;fill:rgb(80%,7.843137%,16.862745%);fill-opacity:1;" d="M 188.023438 64.117188 L 191.589844 65.277344 L 185.707031 71.25 Z M 188.023438 64.117188 "/>
<path style=" stroke:none;fill-rule:nonzero;fill:rgb(80%,7.843137%,16.862745%);fill-opacity:1;" d="M 191.773438 66.84375 L 189.570312 63.808594 L 185.707031 71.25 Z M 191.773438 66.84375 "/>
<path style=" stroke:none;fill-rule:nonzero;fill:rgb(100%,100%,100%);fill-opacity:1;" d="M 225 115.90625 L 225 122.207031 L 237.601562 115.90625 Z M 225 115.90625 "/>
<path style=" stroke:none;fill-rule:nonzero;fill:rgb(100%,100%,100%);fill-opacity:1;" d="M 227.40625 123.3125 L 223.703125 118.214844 L 237.601562 115.90625 Z M 227.40625 123.3125 "/>
<path style=" stroke:none;fill-rule:nonzero;fill:rgb(100%,100%,100%);fill-opacity:1;" d="M 225 115.90625 L 225 122.207031 L 212.398438 115.90625 Z M 225 115.90625 "/>
<path style=" stroke:none;fill-rule:nonzero;fill:rgb(100%,100%,100%);fill-opacity:1;" d="M 222.59375 123.3125 L 226.296875 118.214844 L 212.398438 115.90625 Z M 222.59375 123.3125 "/>
<path style=" stroke:none;fill-rule:nonzero;fill:rgb(100%,100%,100%);fill-opacity:1;" d="M 228.894531 118.734375 L 222.902344 120.683594 L 232.789062 130.71875 Z M 228.894531 118.734375 "/>
<path style=" stroke:none;fill-rule:nonzero;fill:rgb(100%,100%,100%);fill-opacity:1;" d="M 222.59375 123.3125 L 226.296875 118.214844 L 232.789062 130.71875 Z M 222.59375 123.3125 "/>
<path style=" stroke:none;fill-rule:nonzero;fill:rgb(100%,100%,100%);fill-opacity:1;" d="M 221.105469 118.734375 L 227.097656 120.683594 L 225 106.75 Z M 221.105469 118.734375 "/>
<path style=" stroke:none;fill-rule:nonzero;fill:rgb(100%,100%,100%);fill-opacity:1;" d="M 228.894531 118.734375 L 222.902344 120.683594 L 225 106.75 Z M 228.894531 118.734375 "/>
<path style=" stroke:none;fill-rule:nonzero;fill:rgb(100%,100%,100%);fill-opacity:1;" d="M 221.105469 118.734375 L 227.097656 120.683594 L 217.210938 130.71875 Z M 221.105469 118.734375 "/>
<path style=" stroke:none;fill-rule:nonzero;fill:rgb(100%,100%,100%);fill-opacity:1;" d="M 227.40625 123.3125 L 223.703125 118.214844 L 217.210938 130.71875 Z M 227.40625 123.3125 "/>
<path style=" stroke:none;fill-rule:nonzero;fill:rgb(80%,7.843137%,16.862745%);fill-opacity:1;" d="M 225 117.15625 L 225 121.53125 L 233.75 117.15625 Z M 225 117.15625 "/>
<path style=" stroke:none;fill-rule:nonzero;fill:rgb(80%,7.843137%,16.862745%);fill-opacity:1;" d="M 226.671875 122.300781 L 224.097656 118.761719 L 233.75 117.15625 Z M 226.671875 122.300781 "/>
<path style=" stroke:none;fill-rule:nonzero;fill:rgb(80%,7.843137%,16.862745%);fill-opacity:1;" d="M 225 117.15625 L 225 121.53125 L 216.25 117.15625 Z M 225 117.15625 "/>
<path style=" stroke:none;fill-rule:nonzero;fill:rgb(80%,7.843137%,16.862745%);fill-opacity:1;" d="M 223.328125 122.300781 L 225.902344 118.761719 L 216.25 117.15625 Z M 223.328125 122.300781 "/>
<path style=" stroke:none;fill-rule:nonzero;fill:rgb(80%,7.843137%,16.862745%);fill-opacity:1;" d="M 227.703125 119.121094 L 223.542969 120.472656 L 230.40625 127.441406 Z M 227.703125 119.121094 "/>
<path style=" stroke:none;fill-rule:nonzero;fill:rgb(80%,7.843137%,16.862745%);fill-opacity:1;" d="M 223.328125 122.300781 L 225.902344 118.761719 L 230.40625 127.441406 Z M 223.328125 122.300781 "/>
<path style=" stroke:none;fill-rule:nonzero;fill:rgb(80%,7.843137%,16.862745%);fill-opacity:1;" d="M 222.296875 119.121094 L 226.457031 120.472656 L 225 110.800781 Z M 222.296875 119.121094 "/>
<path style=" stroke:none;fill-rule:nonzero;fill:rgb(80%,7.843137%,16.862745%);fill-opacity:1;" d="M 227.703125 119.121094 L 223.542969 120.472656 L 225 110.800781 Z M 227.703125 119.121094 "/>
<path style=" stroke:none;fill-rule:nonzero;fill:rgb(80%,7.843137%,16.862745%);fill-opacity:1;" d="M 222.296875 119.121094 L 226.457031 120.472656 L 219.59375 127.441406 Z M 222.296875 119.121094 "/>
<path style=" stroke:none;fill-rule:nonzero;fill:rgb(80%,7.843137%,16.862745%);fill-opacity:1;" d="M 226.671875 122.300781 L 224.097656 118.761719 L 219.59375 127.441406 Z M 226.671875 122.300781 "/>
</g>
</svg>
