<?xml version="1.0" encoding="UTF-8"?>
<svg xmlns="http://www.w3.org/2000/svg" xmlns:xlink="http://www.w3.org/1999/xlink" width="270pt" height="180pt" viewBox="0 0 270 180" version="1.1">
<g id="surface1">
<path style=" stroke:none;fill-rule:nonzero;fill:rgb(92.941176%,16.078431%,22.352941%);fill-opacity:1;" d="M 0 0 L 270 0 L 270 90 L 0 90 Z M 0 0 "/>
<path style=" stroke:none;fill-rule:nonzero;fill:rgb(100%,100%,100%);fill-opacity:1;" d="M 0 90 L 270 90 L 270 180 L 0 180 Z M 0 90 "/>
<path style=" stroke:none;fill-rule:nonzero;fill:rgb(100%,100%,100%);fill-opacity:1;" d="M 92.605469 45 C 92.605469 63.691406 77.453125 78.84375 58.761719 78.84375 C 40.070312 78.84375 24.917969 63.691406 24.917969 45 C 24.917969 26.308594 40.070312 11.15625 58.761719 11.15625 C 77.453125 11.15625 92.605469 26.308594 92.605469 45 Z M 92.605469 45 "/>
<path style=" stroke:none;fill-rule:nonzero;fill:rgb(92.941176%,16.078431%,22.352941%);fill-opacity:1;" d="M 103.238281 45 C 103.238281 62.664062 88.921875 76.984375 71.257812 76.984375 C 53.59375 76.984375 39.273438 62.664062 39.273438 45 C 39.273438 27.335938 53.59375 13.015625 71.257812 13.015625 C 88.921875 13.015625 103.238281 27.335938 103.238281 45 Z M 103.238281 45 "/>
<path style=" stroke:none;fill-rule:nonzero;fill:rgb(100%,100%,100%);fill-opacity:1;" d="M 62.949219 45.816406 L 58.351562 42.289062 L 53.757812 45.820312 L 55.523438 40.132812 L 50.914062 36.625 L 56.605469 36.636719 L 58.351562 30.941406 L 60.097656 36.636719 L 65.789062 36.625 L 61.179688 40.128906 Z M 62.949219 45.816406 "/>
<path style=" stroke:none;fill-rule:nonzero;fill:rgb(100%,100%,100%);fill-opacity:1;" d="M 99.023438 45.816406 L 94.425781 42.289062 L 89.828125 45.820312 L 91.601562 40.132812 L 86.988281 36.625 L 92.679688 36.636719 L 94.425781 30.941406 L 96.171875 36.636719 L 101.863281 36.625 L 97.253906 40.128906 Z M 99.023438 45.816406 "/>
<path style=" stroke:none;fill-rule:nonzero;fill:rgb(100%,100%,100%);fill-opacity:1;" d="M 81.003906 32.429688 L 76.40625 28.902344 L 71.8125 32.429688 L 73.582031 26.742188 L 68.96875 23.238281 L 74.660156 23.25 L 76.40625 17.554688 L 78.152344 23.25 L 83.84375 23.234375 L 79.234375 26.742188 Z M 81.003906 32.429688 "/>
<path style=" stroke:none;fill-rule:nonzero;fill:rgb(100%,100%,100%);fill-opacity:1;" d="M 69.699219 67.238281 L 65.101562 63.710938 L 60.507812 67.242188 L 62.273438 61.554688 L 57.664062 58.046875 L 63.355469 58.058594 L 65.101562 52.363281 L 66.847656 58.058594 L 72.539062 58.046875 L 67.929688 61.550781 Z M 69.699219 67.238281 "/>
<path style=" stroke:none;fill-rule:nonzero;fill:rgb(100%,100%,100%);fill-opacity:1;" d="M 92.273438 67.238281 L 87.675781 63.710938 L 83.078125 67.242188 L 84.851562 61.554688 L 80.238281 58.046875 L 85.929688 58.058594 L 87.675781 52.363281 L 89.421875 58.058594 L 95.113281 58.046875 L 90.503906 61.550781 Z M 92.273438 67.238281 "/>
</g>
</svg>
