<?xml version="1.0" encoding="UTF-8"?>
<svg xmlns="http://www.w3.org/2000/svg" xmlns:xlink="http://www.w3.org/1999/xlink" width="309pt" height="163pt" viewBox="0 0 309 163" version="1.1">
<g id="surface1">
<rect x="0" y="0" width="309" height="163" style="fill:rgb(100%,100%,100%);fill-opacity:1;stroke:none;"/>
<path style=" stroke:none;fill-rule:nonzero;fill:rgb(69.803922%,13.333333%,20.392157%);fill-opacity:1;" d="M 0 0 L 309 0 L 309 12.539062 L 0 12.539062 Z M 0 0 "/>
<path style=" stroke:none;fill-rule:nonzero;fill:rgb(69.803922%,13.333333%,20.392157%);fill-opacity:1;" d="M 0 25.078125 L 309 25.078125 L 309 37.617188 L 0 37.617188 Z M 0 25.078125 "/>
<path style=" stroke:none;fill-rule:nonzero;fill:rgb(69.803922%,13.333333%,20.392157%);fill-opacity:1;" d="M 0 50.152344 L 309 50.152344 L 309 62.691406 L 0 62.691406 Z M 0 50.152344 "/>
<path style=" stroke:none;fill-rule:nonzero;fill:rgb(69.803922%,13.333333%,20.392157%);fill-opacity:1;" d="M 0 75.230469 L 309 75.230469 L 309 87.769531 L 0 87.769531 Z M 0 75.230469 "/>
<path style=" stroke:none;fill-rule:nonzero;fill:rgb(69.803922%,13.333333%,20.392157%);fill-opacity:1;" d="M 0 100.308594 L 309 100.308594 L 309 112.847656 L 0 112.847656 Z M 0 100.308594 "/>
<path style=" stroke:none;fill-rule:nonzero;fill:rgb(69.803922%,13.333333%,20.392157%);fill-opacity:1;" d="M 0 125.382812 L 309 125.382812 L 309 137.921875 L 0 137.921875 Z M 0 125.382812 "/>
<path style=" stroke:none;fill-rule:nonzero;fill:rgb(69.803922%,13.333333%,20.392157%);fill-opacity:1;" d="M 0 150.460938 L 309 150.460938 L 309 163 L 0 163 Z M 0 150.460938 "/>
<path style=" stroke:none;fill-rule:nonzero;fill:rgb(23.529412%,23.137255%,43.137255%);fill-opacity:1;" d="M 0 0 L 123.601562 0 L 123.601562 87.769531 L 0 87.769531 Z M 0 0 "/>
<path style=" stroke:none;fill-rule:nonzero;fill:rgb(100%,100%,100%);fill-opacity:1;" d="M 11.886719 9.636719 L 7.625 12.738281 L 9.253906 7.71875 Z M 11.886719 9.636719 "/>
<path style=" stroke:none;fill-rule:nonzero;fill:rgb(100%,100%,100%);fill-opacity:1;" d="M 10.066406 10.226562 L 5.808594 7.125 L 11.074219 7.125 Z M 10.066406 10.226562 "/>
<path style=" stroke:none;fill-rule:nonzero;fill:rgb(100%,100%,100%);fill-opacity:1;" d="M 8.945312 8.675781 L 10.570312 3.65625 L 12.199219 8.675781 Z M 8.945312 8.675781 "/>
<path style=" stroke:none;fill-rule:nonzero;fill:rgb(100%,100%,100%);fill-opacity:1;" d="M 10.066406 7.125 L 15.335938 7.125 L 11.074219 10.226562 Z M 10.066406 7.125 "/>
<path style=" stroke:none;fill-rule:nonzero;fill:rgb(100%,100%,100%);fill-opacity:1;" d="M 11.886719 7.71875 L 13.515625 12.738281 L 9.253906 9.636719 Z M 11.886719 7.71875 "/>
<path style=" stroke:none;fill-rule:nonzero;fill:rgb(100%,100%,100%);fill-opacity:1;" d="M 32.378906 9.636719 L 28.117188 12.738281 L 29.746094 7.71875 Z M 32.378906 9.636719 "/>
<path style=" stroke:none;fill-rule:nonzero;fill:rgb(100%,100%,100%);fill-opacity:1;" d="M 30.558594 10.226562 L 26.296875 7.125 L 31.566406 7.125 Z M 30.558594 10.226562 "/>
<path style=" stroke:none;fill-rule:nonzero;fill:rgb(100%,100%,100%);fill-opacity:1;" d="M 29.433594 8.675781 L 31.0625 3.65625 L 32.691406 8.675781 Z M 29.433594 8.675781 "/>
<path style=" stroke:none;fill-rule:nonzero;fill:rgb(100%,100%,100%);fill-opacity:1;" d="M 30.558594 7.125 L 35.828125 7.125 L 31.566406 10.226562 Z M 30.558594 7.125 "/>
<path style=" stroke:none;fill-rule:nonzero;fill:rgb(100%,100%,100%);fill-opacity:1;" d="M 32.378906 7.71875 L 34.007812 12.738281 L 29.746094 9.636719 Z M 32.378906 7.71875 "/>
<path style=" stroke:none;fill-rule:nonzero;fill:rgb(100%,100%,100%);fill-opacity:1;" d="M 52.871094 9.636719 L 48.609375 12.738281 L 50.238281 7.71875 Z M 52.871094 9.636719 "/>
<path style=" stroke:none;fill-rule:nonzero;fill:rgb(100%,100%,100%);fill-opacity:1;" d="M 51.050781 10.226562 L 46.789062 7.125 L 52.058594 7.125 Z M 51.050781 10.226562 "/>
<path style=" stroke:none;fill-rule:nonzero;fill:rgb(100%,100%,100%);fill-opacity:1;" d="M 49.925781 8.675781 L 51.554688 3.65625 L 53.183594 8.675781 Z M 49.925781 8.675781 "/>
<path style=" stroke:none;fill-rule:nonzero;fill:rgb(100%,100%,100%);fill-opacity:1;" d="M 51.050781 7.125 L 56.316406 7.125 L 52.058594 10.226562 Z M 51.050781 7.125 "/>
<path style=" stroke:none;fill-rule:nonzero;fill:rgb(100%,100%,100%);fill-opacity:1;" d="M 52.871094 7.71875 L 54.5 12.738281 L 50.238281 9.636719 Z M 52.871094 7.71875 "/>
<path style=" stroke:none;fill-rule:nonzero;fill:rgb(100%,100%,100%);fill-opacity:1;" d="M 73.363281 9.636719 L 69.101562 12.738281 L 70.730469 7.71875 Z M 73.363281 9.636719 "/>
<path style=" stroke:none;fill-rule:nonzero;fill:rgb(100%,100%,100%);fill-opacity:1;" d="M 71.542969 10.226562 L 67.28125 7.125 L 72.546875 7.125 Z M 71.542969 10.226562 "/>
<path style=" stroke:none;fill-rule:nonzero;fill:rgb(100%,100%,100%);fill-opacity:1;" d="M 70.417969 8.675781 L 72.046875 3.65625 L 73.671875 8.675781 Z M 70.417969 8.675781 "/>
<path style=" stroke:none;fill-rule:nonzero;fill:rgb(100%,100%,100%);fill-opacity:1;" d="M 71.542969 7.125 L 76.808594 7.125 L 72.546875 10.226562 Z M 71.542969 7.125 "/>
<path style=" stroke:none;fill-rule:nonzero;fill:rgb(100%,100%,100%);fill-opacity:1;" d="M 73.363281 7.71875 L 74.988281 12.738281 L 70.730469 9.636719 Z M 73.363281 7.71875 "/>
<path style=" stroke:none;fill-rule:nonzero;fill:rgb(100%,100%,100%);fill-opacity:1;" d="M 93.855469 9.636719 L 89.59375 12.738281 L 91.21875 7.71875 Z M 93.855469 9.636719 "/>
<path style=" stroke:none;fill-rule:nonzero;fill:rgb(100%,100%,100%);fill-opacity:1;" d="M 92.035156 10.226562 L 87.773438 7.125 L 93.039062 7.125 Z M 92.035156 10.226562 "/>
<path style=" stroke:none;fill-rule:nonzero;fill:rgb(100%,100%,100%);fill-opacity:1;" d="M 90.910156 8.675781 L 92.539062 3.65625 L 94.164062 8.675781 Z M 90.910156 8.675781 "/>
<path style=" stroke:none;fill-rule:nonzero;fill:rgb(100%,100%,100%);fill-opacity:1;" d="M 92.035156 7.125 L 97.300781 7.125 L 93.039062 10.226562 Z M 92.035156 7.125 "/>
<path style=" stroke:none;fill-rule:nonzero;fill:rgb(100%,100%,100%);fill-opacity:1;" d="M 93.855469 7.71875 L 95.480469 12.738281 L 91.21875 9.636719 Z M 93.855469 7.71875 "/>
<path style=" stroke:none;fill-rule:nonzero;fill:rgb(100%,100%,100%);fill-opacity:1;" d="M 114.34375 9.636719 L 110.085938 12.738281 L 111.710938 7.71875 Z M 114.34375 9.636719 "/>
<path style=" stroke:none;fill-rule:nonzero;fill:rgb(100%,100%,100%);fill-opacity:1;" d="M 112.527344 10.226562 L 108.265625 7.125 L 113.53125 7.125 Z M 112.527344 10.226562 "/>
<path style=" stroke:none;fill-rule:nonzero;fill:rgb(100%,100%,100%);fill-opacity:1;" d="M 111.402344 8.675781 L 113.027344 3.65625 L 114.65625 8.675781 Z M 111.402344 8.675781 "/>
<path style=" stroke:none;fill-rule:nonzero;fill:rgb(100%,100%,100%);fill-opacity:1;" d="M 112.527344 7.125 L 117.792969 7.125 L 113.53125 10.226562 Z M 112.527344 7.125 "/>
<path style=" stroke:none;fill-rule:nonzero;fill:rgb(100%,100%,100%);fill-opacity:1;" d="M 114.34375 7.71875 L 115.972656 12.738281 L 111.710938 9.636719 Z M 114.34375 7.71875 "/>
<path style=" stroke:none;fill-rule:nonzero;fill:rgb(100%,100%,100%);fill-opacity:1;" d="M 22.132812 18.4375 L 17.871094 21.539062 L 19.5 16.519531 Z M 22.132812 18.4375 "/>
<path style=" stroke:none;fill-rule:nonzero;fill:rgb(100%,100%,100%);fill-opacity:1;" d="M 20.3125 19.03125 L 16.054688 15.925781 L 21.320312 15.925781 Z M 20.3125 19.03125 "/>
<path style=" stroke:none;fill-rule:nonzero;fill:rgb(100%,100%,100%);fill-opacity:1;" d="M 19.1875 17.480469 L 20.816406 12.457031 L 22.445312 17.480469 Z M 19.1875 17.480469 "/>
<path style=" stroke:none;fill-rule:nonzero;fill:rgb(100%,100%,100%);fill-opacity:1;" d="M 20.3125 15.925781 L 25.582031 15.925781 L 21.320312 19.03125 Z M 20.3125 15.925781 "/>
<path style=" stroke:none;fill-rule:nonzero;fill:rgb(100%,100%,100%);fill-opacity:1;" d="M 22.132812 16.519531 L 23.761719 21.539062 L 19.5 18.4375 Z M 22.132812 16.519531 "/>
<path style=" stroke:none;fill-rule:nonzero;fill:rgb(100%,100%,100%);fill-opacity:1;" d="M 42.625 18.4375 L 38.363281 21.539062 L 39.992188 16.519531 Z M 42.625 18.4375 "/>
<path style=" stroke:none;fill-rule:nonzero;fill:rgb(100%,100%,100%);fill-opacity:1;" d="M 40.804688 19.03125 L 36.542969 15.925781 L 41.8125 15.925781 Z M 40.804688 19.03125 "/>
<path style=" stroke:none;fill-rule:nonzero;fill:rgb(100%,100%,100%);fill-opacity:1;" d="M 39.679688 17.480469 L 41.308594 12.457031 L 42.9375 17.480469 Z M 39.679688 17.480469 "/>
<path style=" stroke:none;fill-rule:nonzero;fill:rgb(100%,100%,100%);fill-opacity:1;" d="M 40.804688 15.925781 L 46.074219 15.925781 L 41.8125 19.03125 Z M 40.804688 15.925781 "/>
<path style=" stroke:none;fill-rule:nonzero;fill:rgb(100%,100%,100%);fill-opacity:1;" d="M 42.625 16.519531 L 44.253906 21.539062 L 39.992188 18.4375 Z M 42.625 16.519531 "/>
<path style=" stroke:none;fill-rule:nonzero;fill:rgb(100%,100%,100%);fill-opacity:1;" d="M 63.117188 18.4375 L 58.855469 21.539062 L 60.484375 16.519531 Z M 63.117188 18.4375 "/>
<path style=" stroke:none;fill-rule:nonzero;fill:rgb(100%,100%,100%);fill-opacity:1;" d="M 61.296875 19.03125 L 57.035156 15.925781 L 62.304688 15.925781 Z M 61.296875 19.03125 "/>
<path style=" stroke:none;fill-rule:nonzero;fill:rgb(100%,100%,100%);fill-opacity:1;" d="M 60.171875 17.480469 L 61.800781 12.457031 L 63.425781 17.480469 Z M 60.171875 17.480469 "/>
<path style=" stroke:none;fill-rule:nonzero;fill:rgb(100%,100%,100%);fill-opacity:1;" d="M 61.296875 15.925781 L 66.5625 15.925781 L 62.304688 19.03125 Z M 61.296875 15.925781 "/>
<path style=" stroke:none;fill-rule:nonzero;fill:rgb(100%,100%,100%);fill-opacity:1;" d="M 63.117188 16.519531 L 64.746094 21.539062 L 60.484375 18.4375 Z M 63.117188 16.519531 "/>
<path style=" stroke:none;fill-rule:nonzero;fill:rgb(100%,100%,100%);fill-opacity:1;" d="M 83.609375 18.4375 L 79.347656 21.539062 L 80.976562 16.519531 Z M 83.609375 18.4375 "/>
<path style=" stroke:none;fill-rule:nonzero;fill:rgb(100%,100%,100%);fill-opacity:1;" d="M 81.789062 19.03125 L 77.527344 15.925781 L 82.792969 15.925781 Z M 81.789062 19.03125 "/>
<path style=" stroke:none;fill-rule:nonzero;fill:rgb(100%,100%,100%);fill-opacity:1;" d="M 80.664062 17.480469 L 82.292969 12.457031 L 83.917969 17.480469 Z M 80.664062 17.480469 "/>
<path style=" stroke:none;fill-rule:nonzero;fill:rgb(100%,100%,100%);fill-opacity:1;" d="M 81.789062 15.925781 L 87.054688 15.925781 L 82.792969 19.03125 Z M 81.789062 15.925781 "/>
<path style=" stroke:none;fill-rule:nonzero;fill:rgb(100%,100%,100%);fill-opacity:1;" d="M 83.609375 16.519531 L 85.234375 21.539062 L 80.976562 18.4375 Z M 83.609375 16.519531 "/>
<path style=" stroke:none;fill-rule:nonzero;fill:rgb(100%,100%,100%);fill-opacity:1;" d="M 104.101562 18.4375 L 99.839844 21.539062 L 101.464844 16.519531 Z M 104.101562 18.4375 "/>
<path style=" stroke:none;fill-rule:nonzero;fill:rgb(100%,100%,100%);fill-opacity:1;" d="M 102.28125 19.03125 L 98.019531 15.925781 L 103.285156 15.925781 Z M 102.28125 19.03125 "/>
<path style=" stroke:none;fill-rule:nonzero;fill:rgb(100%,100%,100%);fill-opacity:1;" d="M 101.15625 17.480469 L 102.78125 12.457031 L 104.410156 17.480469 Z M 101.15625 17.480469 "/>
<path style=" stroke:none;fill-rule:nonzero;fill:rgb(100%,100%,100%);fill-opacity:1;" d="M 102.28125 15.925781 L 107.546875 15.925781 L 103.285156 19.03125 Z M 102.28125 15.925781 "/>
<path style=" stroke:none;fill-rule:nonzero;fill:rgb(100%,100%,100%);fill-opacity:1;" d="M 104.101562 16.519531 L 105.726562 21.539062 L 101.464844 18.4375 Z M 104.101562 16.519531 "/>
<path style=" stroke:none;fill-rule:nonzero;fill:rgb(100%,100%,100%);fill-opacity:1;" d="M 11.886719 27.238281 L 7.625 30.34375 L 9.253906 25.320312 Z M 11.886719 27.238281 "/>
<path style=" stroke:none;fill-rule:nonzero;fill:rgb(100%,100%,100%);fill-opacity:1;" d="M 10.066406 27.832031 L 5.808594 24.730469 L 11.074219 24.730469 Z M 10.066406 27.832031 "/>
<path style=" stroke:none;fill-rule:nonzero;fill:rgb(100%,100%,100%);fill-opacity:1;" d="M 8.945312 26.28125 L 10.570312 21.261719 L 12.199219 26.28125 Z M 8.945312 26.28125 "/>
<path style=" stroke:none;fill-rule:nonzero;fill:rgb(100%,100%,100%);fill-opacity:1;" d="M 10.066406 24.730469 L 15.335938 24.730469 L 11.074219 27.832031 Z M 10.066406 24.730469 "/>
<path style=" stroke:none;fill-rule:nonzero;fill:rgb(100%,100%,100%);fill-opacity:1;" d="M 11.886719 25.320312 L 13.515625 30.34375 L 9.253906 27.238281 Z M 11.886719 25.320312 "/>
<path style=" stroke:none;fill-rule:nonzero;fill:rgb(100%,100%,100%);fill-opacity:1;" d="M 32.378906 27.238281 L 28.117188 30.34375 L 29.746094 25.320312 Z M 32.378906 27.238281 "/>
<path style=" stroke:none;fill-rule:nonzero;fill:rgb(100%,100%,100%);fill-opacity:1;" d="M 30.558594 27.832031 L 26.296875 24.730469 L 31.566406 24.730469 Z M 30.558594 27.832031 "/>
<path style=" stroke:none;fill-rule:nonzero;fill:rgb(100%,100%,100%);fill-opacity:1;" d="M 29.433594 26.28125 L 31.0625 21.261719 L 32.691406 26.28125 Z M 29.433594 26.28125 "/>
<path style=" stroke:none;fill-rule:nonzero;fill:rgb(100%,100%,100%);fill-opacity:1;" d="M 30.558594 24.730469 L 35.828125 24.730469 L 31.566406 27.832031 Z M 30.558594 24.730469 "/>
<path style=" stroke:none;fill-rule:nonzero;fill:rgb(100%,100%,100%);fill-opacity:1;" d="M 32.378906 25.320312 L 34.007812 30.34375 L 29.746094 27.238281 Z M 32.378906 25.320312 "/>
<path style=" stroke:none;fill-rule:nonzero;fill:rgb(100%,100%,100%);fill-opacity:1;" d="M 52.871094 27.238281 L 48.609375 30.34375 L 50.238281 25.320312 Z M 52.871094 27.238281 "/>
<path style=" stroke:none;fill-rule:nonzero;fill:rgb(100%,100%,100%);fill-opacity:1;" d="M 51.050781 27.832031 L 46.789062 24.730469 L 52.058594 24.730469 Z M 51.050781 27.832031 "/>
<path style=" stroke:none;fill-rule:nonzero;fill:rgb(100%,100%,100%);fill-opacity:1;" d="M 49.925781 26.28125 L 51.554688 21.261719 L 53.183594 26.28125 Z M 49.925781 26.28125 "/>
<path style=" stroke:none;fill-rule:nonzero;fill:rgb(100%,100%,100%);fill-opacity:1;" d="M 51.050781 24.730469 L 56.316406 24.730469 L 52.058594 27.832031 Z M 51.050781 24.730469 "/>
<path style=" stroke:none;fill-rule:nonzero;fill:rgb(100%,100%,100%);fill-opacity:1;" d="M 52.871094 25.320312 L 54.5 30.34375 L 50.238281 27.238281 Z M 52.871094 25.320312 "/>
<path style=" stroke:none;fill-rule:nonzero;fill:rgb(100%,100%,100%);fill-opacity:1;" d="M 73.363281 27.238281 L 69.101562 30.34375 L 70.730469 25.320312 Z M 73.363281 27.238281 "/>
<path style=" stroke:none;fill-rule:nonzero;fill:rgb(100%,100%,100%);fill-opacity:1;" d="M 71.542969 27.832031 L 67.28125 24.730469 L 72.546875 24.730469 Z M 71.542969 27.832031 "/>
<path style=" stroke:none;fill-rule:nonzero;fill:rgb(100%,100%,100%);fill-opacity:1;" d="M 70.417969 26.28125 L 72.046875 21.261719 L 73.671875 26.28125 Z M 70.417969 26.28125 "/>
<path style=" stroke:none;fill-rule:nonzero;fill:rgb(100%,100%,100%);fill-opacity:1;" d="M 71.542969 24.730469 L 76.808594 24.730469 L 72.546875 27.832031 Z M 71.542969 24.730469 "/>
<path style=" stroke:none;fill-rule:nonzero;fill:rgb(100%,100%,100%);fill-opacity:1;" d="M 73.363281 25.320312 L 74.988281 30.34375 L 70.730469 27.238281 Z M 73.363281 25.320312 "/>
<path style=" stroke:none;fill-rule:nonzero;fill:rgb(100%,100%,100%);fill-opacity:1;" d="M 93.855469 27.238281 L 89.59375 30.34375 L 91.21875 25.320312 Z M 93.855469 27.238281 "/>
<path style=" stroke:none;fill-rule:nonzero;fill:rgb(100%,100%,100%);fill-opacity:1;" d="M 92.035156 27.832031 L 87.773438 24.730469 L 93.039062 24.730469 Z M 92.035156 27.832031 "/>
<path style=" stroke:none;fill-rule:nonzero;fill:rgb(100%,100%,100%);fill-opacity:1;" d="M 90.910156 26.28125 L 92.539062 21.261719 L 94.164062 26.28125 Z M 90.910156 26.28125 "/>
<path style=" stroke:none;fill-rule:nonzero;fill:rgb(100%,100%,100%);fill-opacity:1;" d="M 92.035156 24.730469 L 97.300781 24.730469 L 93.039062 27.832031 Z M 92.035156 24.730469 "/>
<path style=" stroke:none;fill-rule:nonzero;fill:rgb(100%,100%,100%);fill-opacity:1;" d="M 93.855469 25.320312 L 95.480469 30.34375 L 91.21875 27.238281 Z M 93.855469 25.320312 "/>
<path style=" stroke:none;fill-rule:nonzero;fill:rgb(100%,100%,100%);fill-opacity:1;" d="M 114.34375 27.238281 L 110.085938 30.34375 L 111.710938 25.320312 Z M 114.34375 27.238281 "/>
<path style=" stroke:none;fill-rule:nonzero;fill:rgb(100%,100%,100%);fill-opacity:1;" d="M 112.527344 27.832031 L 108.265625 24.730469 L 113.53125 24.730469 Z M 112.527344 27.832031 "/>
<path style=" stroke:none;fill-rule:nonzero;fill:rgb(100%,100%,100%);fill-opacity:1;" d="M 111.402344 26.28125 L 113.027344 21.261719 L 114.65625 26.28125 Z M 111.402344 26.28125 "/>
<path style=" stroke:none;fill-rule:nonzero;fill:rgb(100%,100%,100%);fill-opacity:1;" d="M 112.527344 24.730469 L 117.792969 24.730469 L 113.53125 27.832031 Z M 112.527344 24.730469 "/>
<path style=" stroke:none;fill-rule:nonzero;fill:rgb(100%,100%,100%);fill-opacity:1;" d="M 114.34375 25.320312 L 115.972656 30.34375 L 111.710938 27.238281 Z M 114.34375 25.320312 "/>
<path style=" stroke:none;fill-rule:nonzero;fill:rgb(100%,100%,100%);fill-opacity:1;" d="M 22.132812 36.042969 L 17.871094 39.144531 L 19.5 34.125 Z M 22.132812 36.042969 "/>
<path style=" stroke:none;fill-rule:nonzero;fill:rgb(100%,100%,100%);fill-opacity:1;" d="M 20.3125 36.632812 L 16.054688 33.53125 L 21.320312 33.53125 Z M 20.3125 36.632812 "/>
<path style=" stroke:none;fill-rule:nonzero;fill:rgb(100%,100%,100%);fill-opacity:1;" d="M 19.1875 35.082031 L 20.816406 30.0625 L 22.445312 35.082031 Z M 19.1875 35.082031 "/>
<path style=" stroke:none;fill-rule:nonzero;fill:rgb(100%,100%,100%);fill-opacity:1;" d="M 20.3125 33.53125 L 25.582031 33.53125 L 21.320312 36.632812 Z M 20.3125 33.53125 "/>
<path style=" stroke:none;fill-rule:nonzero;fill:rgb(100%,100%,100%);fill-opacity:1;" d="M 22.132812 34.125 L 23.761719 39.144531 L 19.5 36.042969 Z M 22.132812 34.125 "/>
<path style=" stroke:none;fill-rule:nonzero;fill:rgb(100%,100%,100%);fill-opacity:1;" d="M 42.625 36.042969 L 38.363281 39.144531 L 39.992188 34.125 Z M 42.625 36.042969 "/>
<path style=" stroke:none;fill-rule:nonzero;fill:rgb(100%,100%,100%);fill-opacity:1;" d="M 40.804688 36.632812 L 36.542969 33.53125 L 41.8125 33.53125 Z M 40.804688 36.632812 "/>
<path style=" stroke:none;fill-rule:nonzero;fill:rgb(100%,100%,100%);fill-opacity:1;" d="M 39.679688 35.082031 L 41.308594 30.0625 L 42.9375 35.082031 Z M 39.679688 35.082031 "/>
<path style=" stroke:none;fill-rule:nonzero;fill:rgb(100%,100%,100%);fill-opacity:1;" d="M 40.804688 33.53125 L 46.074219 33.53125 L 41.8125 36.632812 Z M 40.804688 33.53125 "/>
<path style=" stroke:none;fill-rule:nonzero;fill:rgb(100%,100%,100%);fill-opacity:1;" d="M 42.625 34.125 L 44.253906 39.144531 L 39.992188 36.042969 Z M 42.625 34.125 "/>
<path style=" stroke:none;fill-rule:nonzero;fill:rgb(100%,100%,100%);fill-opacity:1;" d="M 63.117188 36.042969 L 58.855469 39.144531 L 60.484375 34.125 Z M 63.117188 36.042969 "/>
<path style=" stroke:none;fill-rule:nonzero;fill:rgb(100%,100%,100%);fill-opacity:1;" d="M 61.296875 36.632812 L 57.035156 33.53125 L 62.304688 33.53125 Z M 61.296875 36.632812 "/>
<path style=" stroke:none;fill-rule:nonzero;fill:rgb(100%,100%,100%);fill-opacity:1;" d="M 60.171875 35.082031 L 61.800781 30.0625 L 63.425781 35.082031 Z M 60.171875 35.082031 "/>
<path style=" stroke:none;fill-rule:nonzero;fill:rgb(100%,100%,100%);fill-opacity:1;" d="M 61.296875 33.53125 L 66.5625 33.53125 L 62.304688 36.632812 Z M 61.296875 33.53125 "/>
<path style=" stroke:none;fill-rule:nonzero;fill:rgb(100%,100%,100%);fill-opacity:1;" d="M 63.117188 34.125 L 64.746094 39.144531 L 60.484375 36.042969 Z M 63.117188 34.125 "/>
<path style=" stroke:none;fill-rule:nonzero;fill:rgb(100%,100%,100%);fill-opacity:1;" d="M 83.609375 36.042969 L 79.347656 39.144531 L 80.976562 34.125 Z M 83.609375 36.042969 "/>
<path style=" stroke:none;fill-rule:nonzero;fill:rgb(100%,100%,100%);fill-opacity:1;" d="M 81.789062 36.632812 L 77.527344 33.53125 L 82.792969 33.53125 Z M 81.789062 36.632812 "/>
<path style=" stroke:none;fill-rule:nonzero;fill:rgb(100%,100%,100%);fill-opacity:1;" d="M 80.664062 35.082031 L 82.292969 30.0625 L 83.917969 35.082031 Z M 80.664062 35.082031 "/>
<path style=" stroke:none;fill-rule:nonzero;fill:rgb(100%,100%,100%);fill-opacity:1;" d="M 81.789062 33.53125 L 87.054688 33.53125 L 82.792969 36.632812 Z M 81.789062 33.53125 "/>
<path style=" stroke:none;fill-rule:nonzero;fill:rgb(100%,100%,100%);fill-opacity:1;" d="M 83.609375 34.125 L 85.234375 39.144531 L 80.976562 36.042969 Z M 83.609375 34.125 "/>
<path style=" stroke:none;fill-rule:nonzero;fill:rgb(100%,100%,100%);fill-opacity:1;" d="M 104.101562 36.042969 L 99.839844 39.144531 L 101.464844 34.125 Z M 104.101562 36.042969 "/>
<path style=" stroke:none;fill-rule:nonzero;fill:rgb(100%,100%,100%);fill-opacity:1;" d="M 102.28125 36.632812 L 98.019531 33.53125 L 103.285156 33.53125 Z M 102.28125 36.632812 "/>
<path style=" stroke:none;fill-rule:nonzero;fill:rgb(100%,100%,100%);fill-opacity:1;" d="M 101.15625 35.082031 L 102.78125 30.0625 L 104.410156 35.082031 Z M 101.15625 35.082031 "/>
<path style=" stroke:none;fill-rule:nonzero;fill:rgb(100%,100%,100%);fill-opacity:1;" d="M 102.28125 33.53125 L 107.546875 33.53125 L 103.285156 36.632812 Z M 102.28125 33.53125 "/>
<path style=" stroke:none;fill-rule:nonzero;fill:rgb(100%,100%,100%);fill-opacity:1;" d="M 104.101562 34.125 L 105.726562 39.144531 L 101.464844 36.042969 Z M 104.101562 34.125 "/>
<path style=" stroke:none;fill-rule:nonzero;fill:rgb(100%,100%,100%);fill-opacity:1;" d="M 11.886719 44.84375 L 7.625 47.945312 L 9.253906 42.925781 Z M 11.886719 44.84375 "/>
<path style=" stroke:none;fill-rule:nonzero;fill:rgb(100%,100%,100%);fill-opacity:1;" d="M 10.066406 45.4375 L 5.808594 42.332031 L 11.074219 42.332031 Z M 10.066406 45.4375 "/>
<path style=" stroke:none;fill-rule:nonzero;fill:rgb(100%,100%,100%);fill-opacity:1;" d="M 8.945312 43.882812 L 10.570312 38.863281 L 12.199219 43.882812 Z M 8.945312 43.882812 "/>
<path style=" stroke:none;fill-rule:nonzero;fill:rgb(100%,100%,100%);fill-opacity:1;" d="M 10.066406 42.332031 L 15.335938 42.332031 L 11.074219 45.4375 Z M 10.066406 42.332031 "/>
<path style=" stroke:none;fill-rule:nonzero;fill:rgb(100%,100%,100%);fill-opacity:1;" d="M 11.886719 42.925781 L 13.515625 47.945312 L 9.253906 44.84375 Z M 11.886719 42.925781 "/>
<path style=" stroke:none;fill-rule:nonzero;fill:rgb(100%,100%,100%);fill-opacity:1;" d="M 32.378906 44.84375 L 28.117188 47.945312 L 29.746094 42.925781 Z M 32.378906 44.84375 "/>
<path style=" stroke:none;fill-rule:nonzero;fill:rgb(100%,100%,100%);fill-opacity:1;" d="M 30.558594 45.4375 L 26.296875 42.332031 L 31.566406 42.332031 Z M 30.558594 45.4375 "/>
<path style=" stroke:none;fill-rule:nonzero;fill:rgb(100%,100%,100%);fill-opacity:1;" d="M 29.433594 43.882812 L 31.0625 38.863281 L 32.691406 43.882812 Z M 29.433594 43.882812 "/>
<path style=" stroke:none;fill-rule:nonzero;fill:rgb(100%,100%,100%);fill-opacity:1;" d="M 30.558594 42.332031 L 35.828125 42.332031 L 31.566406 45.4375 Z M 30.558594 42.332031 "/>
<path style=" stroke:none;fill-rule:nonzero;fill:rgb(100%,100%,100%);fill-opacity:1;" d="M 32.378906 42.925781 L 34.007812 47.945312 L 29.746094 44.84375 Z M 32.378906 42.925781 "/>
<path style=" stroke:none;fill-rule:nonzero;fill:rgb(100%,100%,100%);fill-opacity:1;" d="M 52.871094 44.84375 L 48.609375 47.945312 L 50.238281 42.925781 Z M 52.871094 44.84375 "/>
<path style=" stroke:none;fill-rule:nonzero;fill:rgb(100%,100%,100%);fill-opacity:1;" d="M 51.050781 45.4375 L 46.789062 42.332031 L 52.058594 42.332031 Z M 51.050781 45.4375 "/>
<path style=" stroke:none;fill-rule:nonzero;fill:rgb(100%,100%,100%);fill-opacity:1;" d="M 49.925781 43.882812 L 51.554688 38.863281 L 53.183594 43.882812 Z M 49.925781 43.882812 "/>
<path style=" stroke:none;fill-rule:nonzero;fill:rgb(100%,100%,100%);fill-opacity:1;" d="M 51.050781 42.332031 L 56.316406 42.332031 L 52.058594 45.4375 Z M 51.050781 42.332031 "/>
<path style=" stroke:none;fill-rule:nonzero;fill:rgb(100%,100%,100%);fill-opacity:1;" d="M 52.871094 42.925781 L 54.5 47.945312 L 50.238281 44.84375 Z M 52.871094 42.925781 "/>
<path style=" stroke:none;fill-rule:nonzero;fill:rgb(100%,100%,100%);fill-opacity:1;" d="M 73.363281 44.84375 L 69.101562 47.945312 L 70.730469 42.925781 Z M 73.363281 44.84375 "/>
<path style=" stroke:none;fill-rule:nonzero;fill:rgb(100%,100%,100%);fill-opacity:1;" d="M 71.542969 45.4375 L 67.28125 42.332031 L 72.546875 42.332031 Z M 71.542969 45.4375 "/>
<path style=" stroke:none;fill-rule:nonzero;fill:rgb(100%,100%,100%);fill-opacity:1;" d="M 70.417969 43.882812 L 72.046875 38.863281 L 73.671875 43.882812 Z M 70.417969 43.882812 "/>
<path style=" stroke:none;fill-rule:nonzero;fill:rgb(100%,100%,100%);fill-opacity:1;" d="M 71.542969 42.332031 L 76.808594 42.332031 L 72.546875 45.4375 Z M 71.542969 42.332031 "/>
<path style=" stroke:none;fill-rule:nonzero;fill:rgb(100%,100%,100%);fill-opacity:1;" d="M 73.363281 42.925781 L 74.988281 47.945312 L 70.730469 44.84375 Z M 73.363281 42.925781 "/>
<path style=" stroke:none;fill-rule:nonzero;fill:rgb(100%,100%,100%);fill-opacity:1;" d="M 93.855469 44.84375 L 89.59375 47.945312 L 91.21875 42.925781 Z M 93.855469 44.84375 "/>
<path style=" stroke:none;fill-rule:nonzero;fill:rgb(100%,100%,100%);fill-opacity:1;" d="M 92.035156 45.4375 L 87.773438 42.332031 L 93.039062 42.332031 Z M 92.035156 45.4375 "/>
<path style=" stroke:none;fill-rule:nonzero;fill:rgb(100%,100%,100%);fill-opacity:1;" d="M 90.910156 43.882812 L 92.539062 38.863281 L 94.164062 43.882812 Z M 90.910156 43.882812 "/>
<path style=" stroke:none;fill-rule:nonzero;fill:rgb(100%,100%,100%);fill-opacity:1;" d="M 92.035156 42.332031 L 97.300781 42.332031 L 93.039062 45.4375 Z M 92.035156 42.332031 "/>
<path style=" stroke:none;fill-rule:nonzero;fill:rgb(100%,100%,100%);fill-opacity:1;" d="M 93.855469 42.925781 L 95.480469 47.945312 L 91.21875 44.84375 Z M 93.855469 42.925781 "/>
<path style=" stroke:none;fill-rule:nonzero;fill:rgb(100%,100%,100%);fill-opacity:1;" d="M 114.34375 44.84375 L 110.085938 47.945312 L 111.710938 42.925781 Z M 114.34375 44.84375 "/>
<path style=" stroke:none;fill-rule:nonzero;fill:rgb(100%,100%,100%);fill-opacity:1;" d="M 112.527344 45.4375 L 108.265625 42.332031 L 113.53125 42.332031 Z M 112.527344 45.4375 "/>
<path style=" stroke:none;fill-rule:nonzero;fill:rgb(100%,100%,100%);fill-opacity:1;" d="M 111.402344 43.882812 L 113.027344 38.863281 L 114.65625 43.882812 Z M 111.402344 43.882812 "/>
<path style=" stroke:none;fill-rule:nonzero;fill:rgb(100%,100%,100%);fill-opacity:1;" d="M 112.527344 42.332031 L 117.792969 42.332031 L 113.53125 45.4375 Z M 112.527344 42.332031 "/>
<path style=" stroke:none;fill-rule:nonzero;fill:rgb(100%,100%,100%);fill-opacity:1;" d="M 114.34375 42.925781 L 115.972656 47.945312 L 111.710938 44.84375 Z M 114.34375 42.925781 "/>
<path style=" stroke:none;fill-rule:nonzero;fill:rgb(100%,100%,100%);fill-opacity:1;" d="M 22.132812 53.644531 L 17.871094 56.75 L 19.5 51.726562 Z M 22.132812 53.644531 "/>
<path style=" stroke:none;fill-rule:nonzero;fill:rgb(100%,100%,100%);fill-opacity:1;" d="M 20.3125 54.238281 L 16.054688 51.136719 L 21.320312 51.136719 Z M 20.3125 54.238281 "/>
<path style=" stroke:none;fill-rule:nonzero;fill:rgb(100%,100%,100%);fill-opacity:1;" d="M 19.1875 52.6875 L 20.816406 47.667969 L 22.445312 52.6875 Z M 19.1875 52.6875 "/>
<path style=" stroke:none;fill-rule:nonzero;fill:rgb(100%,100%,100%);fill-opacity:1;" d="M 20.3125 51.136719 L 25.582031 51.136719 L 21.320312 54.238281 Z M 20.3125 51.136719 "/>
<path style=" stroke:none;fill-rule:nonzero;fill:rgb(100%,100%,100%);fill-opacity:1;" d="M 22.132812 51.726562 L 23.761719 56.75 L 19.5 53.644531 Z M 22.132812 51.726562 "/>
<path style=" stroke:none;fill-rule:nonzero;fill:rgb(100%,100%,100%);fill-opacity:1;" d="M 42.625 53.644531 L 38.363281 56.75 L 39.992188 51.726562 Z M 42.625 53.644531 "/>
<path style=" stroke:none;fill-rule:nonzero;fill:rgb(100%,100%,100%);fill-opacity:1;" d="M 40.804688 54.238281 L 36.542969 51.136719 L 41.8125 51.136719 Z M 40.804688 54.238281 "/>
<path style=" stroke:none;fill-rule:nonzero;fill:rgb(100%,100%,100%);fill-opacity:1;" d="M 39.679688 52.6875 L 41.308594 47.667969 L 42.9375 52.6875 Z M 39.679688 52.6875 "/>
<path style=" stroke:none;fill-rule:nonzero;fill:rgb(100%,100%,100%);fill-opacity:1;" d="M 40.804688 51.136719 L 46.074219 51.136719 L 41.8125 54.238281 Z M 40.804688 51.136719 "/>
<path style=" stroke:none;fill-rule:nonzero;fill:rgb(100%,100%,100%);fill-opacity:1;" d="M 42.625 51.726562 L 44.253906 56.75 L 39.992188 53.644531 Z M 42.625 51.726562 "/>
<path style=" stroke:none;fill-rule:nonzero;fill:rgb(100%,100%,100%);fill-opacity:1;" d="M 63.117188 53.644531 L 58.855469 56.75 L 60.484375 51.726562 Z M 63.117188 53.644531 "/>
<path style=" stroke:none;fill-rule:nonzero;fill:rgb(100%,100%,100%);fill-opacity:1;" d="M 61.296875 54.238281 L 57.035156 51.136719 L 62.304688 51.136719 Z M 61.296875 54.238281 "/>
<path style=" stroke:none;fill-rule:nonzero;fill:rgb(100%,100%,100%);fill-opacity:1;" d="M 60.171875 52.6875 L 61.800781 47.667969 L 63.425781 52.6875 Z M 60.171875 52.6875 "/>
<path style=" stroke:none;fill-rule:nonzero;fill:rgb(100%,100%,100%);fill-opacity:1;" d="M 61.296875 51.136719 L 66.5625 51.136719 L 62.304688 54.238281 Z M 61.296875 51.136719 "/>
<path style=" stroke:none;fill-rule:nonzero;fill:rgb(100%,100%,100%);fill-opacity:1;" d="M 63.117188 51.726562 L 64.746094 56.75 L 60.484375 53.644531 Z M 63.117188 51.726562 "/>
<path style=" stroke:none;fill-rule:nonzero;fill:rgb(100%,100%,100%);fill-opacity:1;" d="M 83.609375 53.644531 L 79.347656 56.75 L 80.976562 51.726562 Z M 83.609375 53.644531 "/>
<path style=" stroke:none;fill-rule:nonzero;fill:rgb(100%,100%,100%);fill-opacity:1;" d="M 81.789062 54.238281 L 77.527344 51.136719 L 82.792969 51.136719 Z M 81.789062 54.238281 "/>
<path style=" stroke:none;fill-rule:nonzero;fill:rgb(100%,100%,100%);fill-opacity:1;" d="M 80.664062 52.6875 L 82.292969 47.667969 L 83.917969 52.6875 Z M 80.664062 52.6875 "/>
<path style=" stroke:none;fill-rule:nonzero;fill:rgb(100%,100%,100%);fill-opacity:1;" d="M 81.789062 51.136719 L 87.054688 51.136719 L 82.792969 54.238281 Z M 81.789062 51.136719 "/>
<path style=" stroke:none;fill-rule:nonzero;fill:rgb(100%,100%,100%);fill-opacity:1;" d="M 83.609375 51.726562 L 85.234375 56.75 L 80.976562 53.644531 Z M 83.609375 51.726562 "/>
<path style=" stroke:none;fill-rule:nonzero;fill:rgb(100%,100%,100%);fill-opacity:1;" d="M 104.101562 53.644531 L 99.839844 56.75 L 101.464844 51.726562 Z M 104.101562 53.644531 "/>
<path style=" stroke:none;fill-rule:nonzero;fill:rgb(100%,100%,100%);fill-opacity:1;" d="M 102.28125 54.238281 L 98.019531 51.136719 L 103.285156 51.136719 Z M 102.28125 54.238281 "/>
<path style=" stroke:none;fill-rule:nonzero;fill:rgb(100%,100%,100%);fill-opacity:1;" d="M 101.15625 52.6875 L 102.78125 47.667969 L 104.410156 52.6875 Z M 101.15625 52.6875 "/>
<path style=" stroke:none;fill-rule:nonzero;fill:rgb(100%,100%,100%);fill-opacity:1;" d="M 102.28125 51.136719 L 107.546875 51.136719 L 103.285156 54.238281 Z M 102.28125 51.136719 "/>
<path style=" stroke:none;fill-rule:nonzero;fill:rgb(100%,100%,100%);fill-opacity:1;" d="M 104.101562 51.726562 L 105.726562 56.75 L 101.464844 53.644531 Z M 104.101562 51.726562 "/>
<path style=" stroke:none;fill-rule:nonzero;fill:rgb(100%,100%,100%);fill-opacity:1;" d="M 11.886719 62.449219 L 7.625 65.550781 L 9.253906 60.53125 Z M 11.886719 62.449219 "/>
<path style=" stroke:none;fill-rule:nonzero;fill:rgb(100%,100%,100%);fill-opacity:1;" d="M 10.066406 63.039062 L 5.808594 59.9375 L 11.074219 59.9375 Z M 10.066406 63.039062 "/>
<path style=" stroke:none;fill-rule:nonzero;fill:rgb(100%,100%,100%);fill-opacity:1;" d="M 8.945312 61.488281 L 10.570312 56.46875 L 12.199219 61.488281 Z M 8.945312 61.488281 "/>
<path style=" stroke:none;fill-rule:nonzero;fill:rgb(100%,100%,100%);fill-opacity:1;" d="M 10.066406 59.9375 L 15.335938 59.9375 L 11.074219 63.039062 Z M 10.066406 59.9375 "/>
<path style=" stroke:none;fill-rule:nonzero;fill:rgb(100%,100%,100%);fill-opacity:1;" d="M 11.886719 60.53125 L 13.515625 65.550781 L 9.253906 62.449219 Z M 11.886719 60.53125 "/>
<path style=" stroke:none;fill-rule:nonzero;fill:rgb(100%,100%,100%);fill-opacity:1;" d="M 32.378906 62.449219 L 28.117188 65.550781 L 29.746094 60.53125 Z M 32.378906 62.449219 "/>
<path style=" stroke:none;fill-rule:nonzero;fill:rgb(100%,100%,100%);fill-opacity:1;" d="M 30.558594 63.039062 L 26.296875 59.9375 L 31.566406 59.9375 Z M 30.558594 63.039062 "/>
<path style=" stroke:none;fill-rule:nonzero;fill:rgb(100%,100%,100%);fill-opacity:1;" d="M 29.433594 61.488281 L 31.0625 56.46875 L 32.691406 61.488281 Z M 29.433594 61.488281 "/>
<path style=" stroke:none;fill-rule:nonzero;fill:rgb(100%,100%,100%);fill-opacity:1;" d="M 30.558594 59.9375 L 35.828125 59.9375 L 31.566406 63.039062 Z M 30.558594 59.9375 "/>
<path style=" stroke:none;fill-rule:nonzero;fill:rgb(100%,100%,100%);fill-opacity:1;" d="M 32.378906 60.53125 L 34.007812 65.550781 L 29.746094 62.449219 Z M 32.378906 60.53125 "/>
<path style=" stroke:none;fill-rule:nonzero;fill:rgb(100%,100%,100%);fill-opacity:1;" d="M 52.871094 62.449219 L 48.609375 65.550781 L 50.238281 60.53125 Z M 52.871094 62.449219 "/>
<path style=" stroke:none;fill-rule:nonzero;fill:rgb(100%,100%,100%);fill-opacity:1;" d="M 51.050781 63.039062 L 46.789062 59.9375 L 52.058594 59.9375 Z M 51.050781 63.039062 "/>
<path style=" stroke:none;fill-rule:nonzero;fill:rgb(100%,100%,100%);fill-opacity:1;" d="M 49.925781 61.488281 L 51.554688 56.46875 L 53.183594 61.488281 Z M 49.925781 61.488281 "/>
<path style=" stroke:none;fill-rule:nonzero;fill:rgb(100%,100%,100%);fill-opacity:1;" d="M 51.050781 59.9375 L 56.316406 59.9375 L 52.058594 63.039062 Z M 51.050781 59.9375 "/>
<path style=" stroke:none;fill-rule:nonzero;fill:rgb(100%,100%,100%);fill-opacity:1;" d="M 52.871094 60.53125 L 54.5 65.550781 L 50.238281 62.449219 Z M 52.871094 60.53125 "/>
<path style=" stroke:none;fill-rule:nonzero;fill:rgb(100%,100%,100%);fill-opacity:1;" d="M 73.363281 62.449219 L 69.101562 65.550781 L 70.730469 60.53125 Z M 73.363281 62.449219 "/>
<path style=" stroke:none;fill-rule:nonzero;fill:rgb(100%,100%,100%);fill-opacity:1;" d="M 71.542969 63.039062 L 67.28125 59.9375 L 72.546875 59.9375 Z M 71.542969 63.039062 "/>
<path style=" stroke:none;fill-rule:nonzero;fill:rgb(100%,100%,100%);fill-opacity:1;" d="M 70.417969 61.488281 L 72.046875 56.46875 L 73.671875 61.488281 Z M 70.417969 61.488281 "/>
<path style=" stroke:none;fill-rule:nonzero;fill:rgb(100%,100%,100%);fill-opacity:1;" d="M 71.542969 59.9375 L 76.808594 59.9375 L 72.546875 63.039062 Z M 71.542969 59.9375 "/>
<path style=" stroke:none;fill-rule:nonzero;fill:rgb(100%,100%,100%);fill-opacity:1;" d="M 73.363281 60.53125 L 74.988281 65.550781 L 70.730469 62.449219 Z M 73.363281 60.53125 "/>
<path style=" stroke:none;fill-rule:nonzero;fill:rgb(100%,100%,100%);fill-opacity:1;" d="M 93.855469 62.449219 L 89.59375 65.550781 L 91.21875 60.53125 Z M 93.855469 62.449219 "/>
<path style=" stroke:none;fill-rule:nonzero;fill:rgb(100%,100%,100%);fill-opacity:1;" d="M 92.035156 63.039062 L 87.773438 59.9375 L 93.039062 59.9375 Z M 92.035156 63.039062 "/>
<path style=" stroke:none;fill-rule:nonzero;fill:rgb(100%,100%,100%);fill-opacity:1;" d="M 90.910156 61.488281 L 92.539062 56.46875 L 94.164062 61.488281 Z M 90.910156 61.488281 "/>
<path style=" stroke:none;fill-rule:nonzero;fill:rgb(100%,100%,100%);fill-opacity:1;" d="M 92.035156 59.9375 L 97.300781 59.9375 L 93.039062 63.039062 Z M 92.035156 59.9375 "/>
<path style=" stroke:none;fill-rule:nonzero;fill:rgb(100%,100%,100%);fill-opacity:1;" d="M 93.855469 60.53125 L 95.480469 65.550781 L 91.21875 62.449219 Z M 93.855469 60.53125 "/>
<path style=" stroke:none;fill-rule:nonzero;fill:rgb(100%,100%,100%);fill-opacity:1;" d="M 114.34375 62.449219 L 110.085938 65.550781 L 111.710938 60.53125 Z M 114.34375 62.449219 "/>
<path style=" stroke:none;fill-rule:nonzero;fill:rgb(100%,100%,100%);fill-opacity:1;" d="M 112.527344 63.039062 L 108.265625 59.9375 L 113.53125 59.9375 Z M 112.527344 63.039062 "/>
<path style=" stroke:none;fill-rule:nonzero;fill:rgb(100%,100%,100%);fill-opacity:1;" d="M 111.402344 61.488281 L 113.027344 56.46875 L 114.65625 61.488281 Z M 111.402344 61.488281 "/>
<path style=" stroke:none;fill-rule:nonzero;fill:rgb(100%,100%,100%);fill-opacity:1;" d="M 112.527344 59.9375 L 117.792969 59.9375 L 113.53125 63.039062 Z M 112.527344 59.9375 "/>
<path style=" stroke:none;fill-rule:nonzero;fill:rgb(100%,100%,100%);fill-opacity:1;" d="M 114.34375 60.53125 L 115.972656 65.550781 L 111.710938 62.449219 Z M 114.34375 60.53125 "/>
<path style=" stroke:none;fill-rule:nonzero;fill:rgb(100%,100%,100%);fill-opacity:1;" d="M 22.132812 71.25 L 17.871094 74.351562 L 19.5 69.332031 Z M 22.132812 71.25 "/>
<path style=" stroke:none;fill-rule:nonzero;fill:rgb(100%,100%,100%);fill-opacity:1;" d="M 20.3125 71.84375 L 16.054688 68.738281 L 21.320312 68.738281 Z M 20.3125 71.84375 "/>
<path style=" stroke:none;fill-rule:nonzero;fill:rgb(100%,100%,100%);fill-opacity:1;" d="M 19.1875 70.289062 L 20.816406 65.269531 L 22.445312 70.289062 Z M 19.1875 70.289062 "/>
<path style=" stroke:none;fill-rule:nonzero;fill:rgb(100%,100%,100%);fill-opacity:1;" d="M 20.3125 68.738281 L 25.582031 68.738281 L 21.320312 71.84375 Z M 20.3125 68.738281 "/>
<path style=" stroke:none;fill-rule:nonzero;fill:rgb(100%,100%,100%);fill-opacity:1;" d="M 22.132812 69.332031 L 23.761719 74.351562 L 19.5 71.25 Z M 22.132812 69.332031 "/>
<path style=" stroke:none;fill-rule:nonzero;fill:rgb(100%,100%,100%);fill-opacity:1;" d="M 42.625 71.25 L 38.363281 74.351562 L 39.992188 69.332031 Z M 42.625 71.25 "/>
<path style=" stroke:none;fill-rule:nonzero;fill:rgb(100%,100%,100%);fill-opacity:1;" d="M 40.804688 71.84375 L 36.542969 68.738281 L 41.8125 68.738281 Z M 40.804688 71.84375 "/>
<path style=" stroke:none;fill-rule:nonzero;fill:rgb(100%,100%,100%);fill-opacity:1;" d="M 39.679688 70.289062 L 41.308594 65.269531 L 42.9375 70.289062 Z M 39.679688 70.289062 "/>
<path style=" stroke:none;fill-rule:nonzero;fill:rgb(100%,100%,100%);fill-opacity:1;" d="M 40.804688 68.738281 L 46.074219 68.738281 L 41.8125 71.84375 Z M 40.804688 68.738281 "/>
<path style=" stroke:none;fill-rule:nonzero;fill:rgb(100%,100%,100%);fill-opacity:1;" d="M 42.625 69.332031 L 44.253906 74.351562 L 39.992188 71.25 Z M 42.625 69.332031 "/>
<path style=" stroke:none;fill-rule:nonzero;fill:rgb(100%,100%,100%);fill-opacity:1;" d="M 63.117188 71.25 L 58.855469 74.351562 L 60.484375 69.332031 Z M 63.117188 71.25 "/>
<path style=" stroke:none;fill-rule:nonzero;fill:rgb(100%,100%,100%);fill-opacity:1;" d="M 61.296875 71.84375 L 57.035156 68.738281 L 62.304688 68.738281 Z M 61.296875 71.84375 "/>
<path style=" stroke:none;fill-rule:nonzero;fill:rgb(100%,100%,100%);fill-opacity:1;" d="M 60.171875 70.289062 L 61.800781 65.269531 L 63.425781 70.289062 Z M 60.171875 70.289062 "/>
<path style=" stroke:none;fill-rule:nonzero;fill:rgb(100%,100%,100%);fill-opacity:1;" d="M 61.296875 68.738281 L 66.5625 68.738281 L 62.304688 71.84375 Z M 61.296875 68.738281 "/>
<path style=" stroke:none;fill-rule:nonzero;fill:rgb(100%,100%,100%);fill-opacity:1;" d="M 63.117188 69.332031 L 64.746094 74.351562 L 60.484375 71.25 Z M 63.117188 69.332031 "/>
<path style=" stroke:none;fill-rule:nonzero;fill:rgb(100%,100%,100%);fill-opacity:1;" d="M 83.609375 71.25 L 79.347656 74.351562 L 80.976562 69.332031 Z M 83.609375 71.25 "/>
<path style=" stroke:none;fill-rule:nonzero;fill:rgb(100%,100%,100%);fill-opacity:1;" d="M 81.789062 71.84375 L 77.527344 68.738281 L 82.792969 68.738281 Z M 81.789062 71.84375 "/>
<path style=" stroke:none;fill-rule:nonzero;fill:rgb(100%,100%,100%);fill-opacity:1;" d="M 80.664062 70.289062 L 82.292969 65.269531 L 83.917969 70.289062 Z M 80.664062 70.289062 "/>
<path style=" stroke:none;fill-rule:nonzero;fill:rgb(100%,100%,100%);fill-opacity:1;" d="M 81.789062 68.738281 L 87.054688 68.738281 L 82.792969 71.84375 Z M 81.789062 68.738281 "/>
<path style=" stroke:none;fill-rule:nonzero;fill:rgb(100%,100%,100%);fill-opacity:1;" d="M 83.609375 69.332031 L 85.234375 74.351562 L 80.976562 71.25 Z M 83.609375 69.332031 "/>
<path style=" stroke:none;fill-rule:nonzero;fill:rgb(100%,100%,100%);fill-opacity:1;" d="M 104.101562 71.25 L 99.839844 74.351562 L 101.464844 69.332031 Z M 104.101562 71.25 "/>
<path style=" stroke:none;fill-rule:nonzero;fill:rgb(100%,100%,100%);fill-opacity:1;" d="M 102.28125 71.84375 L 98.019531 68.738281 L 103.285156 68.738281 Z M 102.28125 71.84375 "/>
<path style=" stroke:none;fill-rule:nonzero;fill:rgb(100%,100%,100%);fill-opacity:1;" d="M 101.15625 70.289062 L 102.78125 65.269531 L 104.410156 70.289062 Z M 101.15625 70.289062 "/>
<path style=" stroke:none;fill-rule:nonzero;fill:rgb(100%,100%,100%);fill-opacity:1;" d="M 102.28125 68.738281 L 107.546875 68.738281 L 103.285156 71.84375 Z M 102.28125 68.738281 "/>
<path style=" stroke:none;fill-rule:nonzero;fill:rgb(100%,100%,100%);fill-opacity:1;" d="M 104.101562 69.332031 L 105.726562 74.351562 L 101.464844 71.25 Z M 104.101562 69.332031 "/>
<path style=" stroke:none;fill-rule:nonzero;fill:rgb(100%,100%,100%);fill-opacity:1;" d="M 11.886719 80.050781 L 7.625 83.152344 L 9.253906 78.132812 Z M 11.886719 80.050781 "/>
<path style=" stroke:none;fill-rule:nonzero;fill:rgb(100%,100%,100%);fill-opacity:1;" d="M 10.066406 80.644531 L 5.808594 77.542969 L 11.074219 77.542969 Z M 10.066406 80.644531 "/>
<path style=" stroke:none;fill-rule:nonzero;fill:rgb(100%,100%,100%);fill-opacity:1;" d="M 8.945312 79.09375 L 10.570312 74.070312 L 12.199219 79.09375 Z M 8.945312 79.09375 "/>
<path style=" stroke:none;fill-rule:nonzero;fill:rgb(100%,100%,100%);fill-opacity:1;" d="M 10.066406 77.542969 L 15.335938 77.542969 L 11.074219 80.644531 Z M 10.066406 77.542969 "/>
<path style=" stroke:none;fill-rule:nonzero;fill:rgb(100%,100%,100%);fill-opacity:1;" d="M 11.886719 78.132812 L 13.515625 83.152344 L 9.253906 80.050781 Z M 11.886719 78.132812 "/>
<path style=" stroke:none;fill-rule:nonzero;fill:rgb(100%,100%,100%);fill-opacity:1;" d="M 32.378906 80.050781 L 28.117188 83.152344 L 29.746094 78.132812 Z M 32.378906 80.050781 "/>
<path style=" stroke:none;fill-rule:nonzero;fill:rgb(100%,100%,100%);fill-opacity:1;" d="M 30.558594 80.644531 L 26.296875 77.542969 L 31.566406 77.542969 Z M 30.558594 80.644531 "/>
<path style=" stroke:none;fill-rule:nonzero;fill:rgb(100%,100%,100%);fill-opacity:1;" d="M 29.433594 79.09375 L 31.0625 74.070312 L 32.691406 79.09375 Z M 29.433594 79.09375 "/>
<path style=" stroke:none;fill-rule:nonzero;fill:rgb(100%,100%,100%);fill-opacity:1;" d="M 30.558594 77.542969 L 35.828125 77.542969 L 31.566406 80.644531 Z M 30.558594 77.542969 "/>
<path style=" stroke:none;fill-rule:nonzero;fill:rgb(100%,100%,100%);fill-opacity:1;" d="M 32.378906 78.132812 L 34.007812 83.152344 L 29.746094 80.050781 Z M 32.378906 78.132812 "/>
<path style=" stroke:none;fill-rule:nonzero;fill:rgb(100%,100%,100%);fill-opacity:1;" d="M 52.871094 80.050781 L 48.609375 83.152344 L 50.238281 78.132812 Z M 52.871094 80.050781 "/>
<path style=" stroke:none;fill-rule:nonzero;fill:rgb(100%,100%,100%);fill-opacity:1;" d="M 51.050781 80.644531 L 46.789062 77.542969 L 52.058594 77.542969 Z M 51.050781 80.644531 "/>
<path style=" stroke:none;fill-rule:nonzero;fill:rgb(100%,100%,100%);fill-opacity:1;" d="M 49.925781 79.09375 L 51.554688 74.070312 L 53.183594 79.09375 Z M 49.925781 79.09375 "/>
<path style=" stroke:none;fill-rule:nonzero;fill:rgb(100%,100%,100%);fill-opacity:1;" d="M 51.050781 77.542969 L 56.316406 77.542969 L 52.058594 80.644531 Z M 51.050781 77.542969 "/>
<path style=" stroke:none;fill-rule:nonzero;fill:rgb(100%,100%,100%);fill-opacity:1;" d="M 52.871094 78.132812 L 54.5 83.152344 L 50.238281 80.050781 Z M 52.871094 78.132812 "/>
<path style=" stroke:none;fill-rule:nonzero;fill:rgb(100%,100%,100%);fill-opacity:1;" d="M 73.363281 80.050781 L 69.101562 83.152344 L 70.730469 78.132812 Z M 73.363281 80.050781 "/>
<path style=" stroke:none;fill-rule:nonzero;fill:rgb(100%,100%,100%);fill-opacity:1;" d="M 71.542969 80.644531 L 67.28125 77.542969 L 72.546875 77.542969 Z M 71.542969 80.644531 "/>
<path style=" stroke:none;fill-rule:nonzero;fill:rgb(100%,100%,100%);fill-opacity:1;" d="M 70.417969 79.09375 L 72.046875 74.070312 L 73.671875 79.09375 Z M 70.417969 79.09375 "/>
<path style=" stroke:none;fill-rule:nonzero;fill:rgb(100%,100%,100%);fill-opacity:1;" d="M 71.542969 77.542969 L 76.808594 77.542969 L 72.546875 80.644531 Z M 71.542969 77.542969 "/>
<path style=" stroke:none;fill-rule:nonzero;fill:rgb(100%,100%,100%);fill-opacity:1;" d="M 73.363281 78.132812 L 74.988281 83.152344 L 70.730469 80.050781 Z M 73.363281 78.132812 "/>
<path style=" stroke:none;fill-rule:nonzero;fill:rgb(100%,100%,100%);fill-opacity:1;" d="M 93.855469 80.050781 L 89.59375 83.152344 L 91.21875 78.132812 Z M 93.855469 80.050781 "/>
<path style=" stroke:none;fill-rule:nonzero;fill:rgb(100%,100%,100%);fill-opacity:1;" d="M 92.035156 80.644531 L 87.773438 77.542969 L 93.039062 77.542969 Z M 92.035156 80.644531 "/>
<path style=" stroke:none;fill-rule:nonzero;fill:rgb(100%,100%,100%);fill-opacity:1;" d="M 90.910156 79.09375 L 92.539062 74.070312 L 94.164062 79.09375 Z M 90.910156 79.09375 "/>
<path style=" stroke:none;fill-rule:nonzero;fill:rgb(100%,100%,100%);fill-opacity:1;" d="M 92.035156 77.542969 L 97.300781 77.542969 L 93.039062 80.644531 Z M 92.035156 77.542969 "/>
<path style=" stroke:none;fill-rule:nonzero;fill:rgb(100%,100%,100%);fill-opacity:1;" d="M 93.855469 78.132812 L 95.480469 83.152344 L 91.21875 80.050781 Z M 93.855469 78.132812 "/>
<path style=" stroke:none;fill-rule:nonzero;fill:rgb(100%,100%,100%);fill-opacity:1;" d="M 114.34375 80.050781 L 110.085938 83.152344 L 111.710938 78.132812 Z M 114.34375 80.050781 "/>
<path style=" stroke:none;fill-rule:nonzero;fill:rgb(100%,100%,100%);fill-opacity:1;" d="M 112.527344 80.644531 L 108.265625 77.542969 L 113.53125 77.542969 Z M 112.527344 80.644531 "/>
<path style=" stroke:none;fill-rule:nonzero;fill:rgb(100%,100%,100%);fill-opacity:1;" d="M 111.402344 79.09375 L 113.027344 74.070312 L 114.65625 79.09375 Z M 111.402344 79.09375 "/>
<path style=" stroke:none;fill-rule:nonzero;fill:rgb(100%,100%,100%);fill-opacity:1;" d="M 112.527344 77.542969 L 117.792969 77.542969 L 113.53125 80.644531 Z M 112.527344 77.542969 "/>
<path style=" stroke:none;fill-rule:nonzero;fill:rgb(100%,100%,100%);fill-opacity:1;" d="M 114.34375 78.132812 L 115.972656 83.152344 L 111.710938 80.050781 Z M 114.34375 78.132812 "/>
</g>
</svg>
