<?xml version="1.0" encoding="UTF-8"?>
<svg xmlns="http://www.w3.org/2000/svg" xmlns:xlink="http://www.w3.org/1999/xlink" width="225pt" height="150pt" viewBox="0 0 225 150" version="1.1">
<g id="surface1">
<rect x="0" y="0" width="225" height="150" style="fill:rgb(85.490196%,14.509804%,11.372549%);fill-opacity:1;stroke:none;"/>
<path style=" stroke:none;fill-rule:nonzero;fill:rgb(100%,100%,0%);fill-opacity:1;" d="M 112.5 30 L 98.59375 72.796875 L 127.125 82.066406 "/>
<path style=" stroke:none;fill-rule:nonzero;fill:rgb(100%,100%,0%);fill-opacity:1;" d="M 112.5 30 L 126.40625 72.796875 L 97.875 82.066406 "/>
<path style=" stroke:none;fill-rule:nonzero;fill:rgb(100%,100%,0%);fill-opacity:1;" d="M 155.296875 61.09375 L 110.296875 61.09375 L 110.296875 91.09375 "/>
<path style=" stroke:none;fill-rule:nonzero;fill:rgb(100%,100%,0%);fill-opacity:1;" d="M 155.296875 61.09375 L 118.890625 87.542969 L 101.257812 63.273438 "/>
<path style=" stroke:none;fill-rule:nonzero;fill:rgb(100%,100%,0%);fill-opacity:1;" d="M 138.949219 111.40625 L 125.042969 68.609375 L 96.511719 77.878906 "/>
<path style=" stroke:none;fill-rule:nonzero;fill:rgb(100%,100%,0%);fill-opacity:1;" d="M 138.949219 111.40625 L 102.542969 84.957031 L 120.179688 60.683594 "/>
<path style=" stroke:none;fill-rule:nonzero;fill:rgb(100%,100%,0%);fill-opacity:1;" d="M 69.703125 61.09375 L 114.703125 61.09375 L 114.703125 91.09375 "/>
<path style=" stroke:none;fill-rule:nonzero;fill:rgb(100%,100%,0%);fill-opacity:1;" d="M 69.703125 61.09375 L 106.109375 87.542969 L 123.742188 63.273438 "/>
<path style=" stroke:none;fill-rule:nonzero;fill:rgb(100%,100%,0%);fill-opacity:1;" d="M 86.050781 111.40625 L 99.957031 68.609375 L 128.488281 77.878906 "/>
<path style=" stroke:none;fill-rule:nonzero;fill:rgb(100%,100%,0%);fill-opacity:1;" d="M 86.050781 111.40625 L 122.457031 84.957031 L 104.820312 60.683594 "/>
</g>
</svg>
