						<svg viewBox="0 0 32 32" xmlns="http://www.w3.org/2000/svg">
							<path fill="#3776be" style="fill: var(--color13, #3776be)" d="M16 32c8.837 0 16-7.163 16-16s-7.163-16-16-16c-8.837 0-16 7.163-16 16s7.163 16 16 16z"></path>
<path fill="#fefefe" style="fill: var(--color14, #fefefe)" d="M8.316 8.597v1.429c-1.284 1.649-2.049 3.722-2.049 5.975 0 5.376 4.358 9.733 9.733 9.733s9.733-4.358 9.733-9.733c0-2.252-0.765-4.325-2.049-5.974v-1.429h-1.366c-1.7-1.452-3.906-2.33-6.318-2.33s-4.618 0.878-6.318 2.33h-1.366zM10.985 8.597c1.431-0.971 3.156-1.538 5.015-1.538s3.585 0.568 5.015 1.538h-10.031zM23.684 11.426c0.798 1.338 1.258 2.902 1.258 4.574 0 4.939-4.003 8.942-8.942 8.942s-8.942-4.003-8.942-8.942c0-1.672 0.459-3.236 1.258-4.574v6.239c0 5.386 7.683 7.205 7.684 7.205s7.684-1.819 7.684-7.205v-6.239zM11.345 20.126l3.817 1.141c0 0 0.285-0.57 1.676-0.677s3.71 0.464 3.71 0.464-1.534 1.89-2.925 2.175c-1.392 0.286-2.376-0.969-2.604-1.034l-3.852-1.106 0.178-0.963zM13.009 11.123c2.19 0 3.965 1.775 3.965 3.965s-1.775 3.966-3.965 3.966c-2.189 0-3.965-1.776-3.965-3.966s1.775-3.965 3.965-3.965zM18.99 11.123c2.19 0 3.965 1.775 3.965 3.965s-1.775 3.966-3.965 3.966c-0.818 0-1.578-0.248-2.209-0.673 0.77-0.881 1.236-2.032 1.236-3.293s-0.466-2.412-1.236-3.292c0.631-0.425 1.392-0.673 2.209-0.673z"></path>

						</svg>