<svg width="511.61" height="512" xmlns="http://www.w3.org/2000/svg" xmlns:svg="http://www.w3.org/2000/svg">
 <defs>
  <style>.cls-1{fill:#00fd7d;}.cls-2{fill:#161515;}</style>
 </defs>
 <title>Translated-into</title>
 <g>
  <title>Layer 1</title>
  <path d="m262.90699,10l-216.85602,0a37.09911,37.10018 0 0 0 -37.05097,37.05203l0,217.7192a37.07986,37.08092 0 0 0 36.53103,37.03277l19.13209,-22.75311l-18.61214,0a14.28889,14.2893 0 0 1 -14.27926,-14.27967l0,-217.7192a14.29852,14.29893 0 0 1 14.27926,-14.27967l216.85602,0a14.30815,14.30855 0 0 1 14.27926,14.27967l0,217.7192a14.29852,14.29893 0 0 1 -14.27926,14.27967l-108.9287,0l19.13209,22.77236l89.79661,0a37.09911,37.10018 0 0 0 37.05097,-37.05203l0,-217.7192a37.08949,37.09055 0 0 0 -37.05097,-37.05203l-0.00001,0.00001z" id="svg_1" fill="#00ff7f" stroke-width="15" stroke="#00ff7f"/>
  <path class="cls-2" d="m213.46397,125.60465l-117.98924,0a7.80882,7.80904 0 1 1 0,-15.60846l117.98924,0a7.80882,7.80904 0 1 1 0,15.60846z" id="svg_2" stroke="null"/>
  <path class="cls-2" d="m154.47898,125.60465a7.79919,7.79941 0 0 1 -7.79919,-7.80904l0,-34.42334a7.80882,7.80904 0 1 1 15.60801,0l0,34.47148a7.80882,7.80904 0 0 1 -7.80882,7.7609z" id="svg_3" stroke="null"/>
  <path class="cls-2" d="m107.89567,220.17013a7.80882,7.80904 0 0 1 -3.75517,-14.70334c43.05924,-23.32121 65.75392,-52.25607 69.39354,-88.48002a7.80882,7.80904 0 0 1 15.53098,1.56951c-4.13068,41.1732 -30.19539,75.03807 -77.49122,100.64133a7.7029,7.70312 0 0 1 -3.67814,0.97252l0.00001,0z" id="svg_4" stroke="null"/>
  <path class="cls-2" d="m196.01689,220.17013a7.7029,7.70312 0 0 1 -3.63962,-0.90512c-34.86527,-18.44898 -57.70438,-43.7056 -71.85847,-79.47699a7.79919,7.79941 0 1 1 14.51035,-5.77734c12.89274,32.55533 32.83363,54.58627 64.64663,71.4176a7.80882,7.80904 0 0 1 -3.65888,14.71297l0,0.02889l-0.00001,-0.00001z" id="svg_5" stroke="null"/>
  <path d="m464.57866,210.24414l-216.85602,0a37.07986,37.08092 0 0 0 -37.05097,37.03277l0,90.06879l22.77171,19.15189l0,-109.26883a14.28889,14.2893 0 0 1 14.27926,-14.27004l216.85602,0a14.28889,14.2893 0 0 1 14.26963,14.27004l0,217.7192a14.28889,14.2893 0 0 1 -14.26963,14.27967l-216.85602,0a14.28889,14.2893 0 0 1 -14.27926,-14.27967l0,-20.35551l-22.77171,19.15189l0,1.20361a37.08949,37.09055 0 0 0 37.05097,37.05203l216.85602,0a37.07986,37.08092 0 0 0 37.04134,-37.05203l0,-217.7192a37.07023,37.07129 0 0 0 -37.04134,-36.98463l0,0.00002z" id="svg_6" fill="#00ff7f" stroke-width="15" stroke="#00ff7f"/>
  <path class="cls-2" d="m390.18786,398.57451l-68.09367,0l-11.15959,28.69414l-26.6039,0l58.4169,-152.13672l26.79648,0l58.4169,152.13672l-26.78685,0l-10.98627,-28.69414zm-34.05094,-88.78047l-24.18302,62.05062l48.37424,0l-13.19122,-36.05062l-11,-26z" id="svg_7" stroke="null" fill="black"/>
  <polygon points="164.95493399666668,323.0742552894699 109.31107552716242,256.90441737474976 53.67684820921352,323.0742552894699 87.66590737551462,323.0742552894699 87.66590737551462,368.10866229990097 130.95623620120807,368.10866229990097 130.95623620120807,323.0742552894699 164.95493399666668,323.0742552894699 " id="svg_8" fill="#007fff"/>
  <polygon points="187.86143155476714,457.16639322768424 254.019755765146,401.5305689943543 187.86143155476714,345.8851242466517 187.86143155476714,379.88480127156436 86.81859036670642,379.88480127156436 130.95623620120807,423.17636668759405 187.86143155476714,423.17636668759405 187.86143155476714,457.16639322768424 " id="svg_9" fill="#007fff"/>
 </g>
</svg>
